<?xml version="1.0" encoding="UTF-8" standalone="no"?>
<svg width="48px" height="38px" viewBox="0 0 48 38" version="1.1" xmlns="http://www.w3.org/2000/svg" xmlns:xlink="http://www.w3.org/1999/xlink">
    <title>Message</title>
    <defs></defs>
    <g id="Marketing-Site-(2)" stroke="none" stroke-width="1" fill="none" fill-rule="evenodd">
        <g id="Contact" transform="translate(-762.000000, -181.000000)" fill="currentColor">
            <g id="1478030628_email_envelope_letter_mail" transform="translate(762.000000, 181.000000)">
                <g id="Layer_1">
                    <path d="M1.71428571,38 C0.768,38 0,37.2279091 0,36.2727273 L0,8.63636364 C0,7.68290909 0.768,6.90909091 1.71428571,6.90909091 C2.66057143,6.90909091 3.42857143,7.68290909 3.42857143,8.63636364 L3.42857143,34.5454545 L44.5714286,34.5454545 L44.5714286,3.45454545 L1.71428571,3.45454545 C0.768,3.45454545 0,2.68072727 0,1.72727273 C0,0.773818182 0.768,0 1.71428571,0 L46.2857143,0 C47.2337143,0 48,0.773818182 48,1.72727273 L48,36.2727273 C48,37.2279091 47.2337143,38 46.2857143,38 L1.71428571,38 Z" id="Shape"></path>
                    <path d="M24,24.1818182 C23.5611429,24.1818182 23.1222857,24.0125455 22.788,23.6757273 L9.07371429,9.85754545 C8.40342857,9.18218182 8.40342857,8.09054545 9.07371429,7.41518182 C9.744,6.73981818 10.8274286,6.73981818 11.4977143,7.41518182 L24,20.0121818 L36.5022857,7.41518182 C37.1725714,6.73981818 38.256,6.73981818 38.9262857,7.41518182 C39.5965714,8.09054545 39.5965714,9.18218182 38.9262857,9.85754545 L25.212,23.6757273 C24.8777143,24.0125455 24.4388571,24.1818182 24,24.1818182 L24,24.1818182 Z" id="Shape"></path>
                    <path d="M37.716,31.0909091 C37.2771429,31.0909091 36.8382857,30.9216364 36.504,30.5848182 L31.3577143,25.3995455 C30.6874286,24.7241818 30.6874286,23.6325455 31.3577143,22.9571818 C32.028,22.2818182 33.1114286,22.2818182 33.7817143,22.9571818 L38.928,28.1424545 C39.5982857,28.8178182 39.5982857,29.9094545 38.928,30.5848182 C38.5937143,30.9216364 38.1548571,31.0909091 37.716,31.0909091 L37.716,31.0909091 Z" id="Shape"></path>
                    <path d="M10.2874286,31.0909091 C9.84857143,31.0909091 9.40971429,30.9216364 9.07542857,30.5848182 C8.40514286,29.9094545 8.40514286,28.8178182 9.07542857,28.1424545 L14.2165714,22.9623636 C14.8868571,22.287 15.9702857,22.287 16.6405714,22.9623636 C17.3108571,23.6377273 17.3108571,24.7293636 16.6405714,25.4047273 L11.4994286,30.5848182 C11.1651429,30.9216364 10.7262857,31.0909091 10.2874286,31.0909091 L10.2874286,31.0909091 Z" id="Shape"></path>
                </g>
            </g>
        </g>
    </g>
</svg>
