<?xml version="1.0" encoding="UTF-8" standalone="no"?>
<svg width="25px" height="17px" viewBox="0 0 25 17" version="1.1" xmlns="http://www.w3.org/2000/svg" xmlns:xlink="http://www.w3.org/1999/xlink">
    <title>Start of quote</title>
    <defs></defs>
    <g id="Marketing-Site-(2)" stroke="none" stroke-width="1" fill="none" fill-rule="evenodd">
        <g id="Home" transform="translate(-531.000000, -4080.000000)" fill="#5CD4B1">
            <g id="Testimonials" transform="translate(0.000000, 4000.000000)">
                <g id="Quote" transform="translate(531.000000, 80.000000)">
                    <path d="M8.72000021,7.48000019 C10.2133411,8.44000501 10.9600003,9.73332545 10.9600003,11.3600003 C10.9600003,12.9866751 10.4800051,14.2666624 9.52000024,15.2000004 C8.55999541,16.1333384 7.36000738,16.6000004 5.92000014,16.6000004 C4.4799929,16.6000004 3.26667167,16.1466716 2.28000004,15.2400004 C1.29332841,14.3333292 0.8,13.1466743 0.8,11.6800003 C0.8,10.2133263 1.27999521,8.78667382 2.24000004,7.40000018 L6.96000017,0.6 L11.8400003,0.6 L8.72000021,7.48000019 Z M20.9600005,7.48000019 C22.4533414,8.44000501 23.2000006,9.73332545 23.2000006,11.3600003 C23.2000006,12.9866751 22.7200054,14.2666624 21.7600006,15.2000004 C20.7999957,16.1333384 19.6000077,16.6000004 18.1600005,16.6000004 C16.7199932,16.6000004 15.506672,16.1466716 14.5200004,15.2400004 C13.5333287,14.3333292 13.0400003,13.1466743 13.0400003,11.6800003 C13.0400003,10.2133263 13.5199955,8.78667382 14.4800004,7.40000018 L19.2000005,0.6 L24.0800006,0.6 L20.9600005,7.48000019 Z" id="“"></path>
                </g>
            </g>
        </g>
    </g>
</svg>
