<?xml version="1.0" encoding="UTF-8" standalone="no"?>
<svg width="48px" height="48px" viewBox="0 0 48 48" version="1.1" xmlns="http://www.w3.org/2000/svg" xmlns:xlink="http://www.w3.org/1999/xlink">
    <title>Calendar with checkbox</title>
    <defs></defs>
    <g id="Account---Availability" stroke="none" stroke-width="1" fill="none" fill-rule="evenodd">
        <g id="Availability---One-time" transform="translate(-136.000000, -100.000000)" fill="currentColor">
            <g id="Intro-Bar" transform="translate(0.000000, 60.000000)">
                <g id="Group-3" transform="translate(136.000000, 40.000000)">
                    <path d="M45.8,2 L36,2 C36,0.8 35.2,0 34,0 C32.8,0 32,0.8 32,2 L16,2 C16,0.8 15.2,0 14,0 C12.8,0 12,0.8 12,2 L2.2,2 C1,2 0,3 0,4.2 L0,45.8 C0,47 1,48 2.2,48 L45.8,48 C47,48 48,47 48,45.8 L48,4.2 C48,3 47,2 45.8,2 L45.8,2 Z M44,44 L4,44 L4,16 L44,16 L44,44 L44,44 Z M44,14 L4,14 L4,6 L12,6 L12,8 C12,9.2 12.8,10 14,10 C15.2,10 16,9.2 16,8 L16,6 L32,6 L32,8 C32,9.2 32.8,10 34,10 C35.2,10 36,9.2 36,8 L36,6 L44,6 L44,14 L44,14 Z" id="Shape"></path>
                    <path d="M20.6,35.4 C21.4,36.2 22.6,36.2 23.4,35.4 L31.6,27.2 C32.4,26.4 32.4,25.2 31.6,24.4 C30.8,23.6 29.6,23.6 28.8,24.4 L22,31.4 L19.2,28.6 C18.4,27.8 17.2,27.8 16.4,28.6 C15.6,29.4 15.6,30.6 16.4,31.4 L20.6,35.4 L20.6,35.4 Z" id="Shape"></path>
                </g>
            </g>
        </g>
    </g>
</svg>
