<?xml version="1.0" encoding="UTF-8" standalone="no"?>
<svg width="32px" height="32px" viewBox="0 0 32 32" version="1.1" xmlns="http://www.w3.org/2000/svg" xmlns:xlink="http://www.w3.org/1999/xlink">
    <title>Rotate device</title>
    <defs></defs>
    <g id="Listing-(Mobile)" stroke="none" stroke-width="1" fill="none" fill-rule="evenodd">
        <g id="Listing---Gallery" transform="translate(-144.000000, -456.000000)" fill="currentColor">
            <g id="Group-4" transform="translate(129.000000, 456.000000)">
                <path d="M30.9765522,2.81143949e-05 C29.914263,0.00202972558 28.8363361,0.109979582 27.7563675,0.333629978 C19.1166209,2.12283537 13.5451259,10.607256 15.3343314,19.2470023 C17.123537,27.8867487 25.6056407,33.4582416 34.2453871,31.6690384 L33.7936346,29.4913596 C26.33086,31.0368258 19.0574766,26.2580243 17.5120103,18.7952498 C15.9665439,11.3324753 20.7453462,4.05677505 28.20812,2.51130881 C35.6708945,0.965842578 42.9442781,5.74464406 44.4897443,13.2074186 C45.1357547,16.3268851 44.680595,19.5709675 43.2063038,22.3884199 L41.6842453,21.5080816 L40.9290078,28.8241558 L46.8875077,24.5128151 L45.1337813,23.5004261 C46.8802878,20.2095401 47.4239403,16.4110677 46.6674232,12.7579827 C45.1018682,5.19820421 38.4125777,-0.0139668545 30.9765522,2.81143949e-05 L30.9765522,2.81143949e-05 Z" id="path3036" transform="translate(31.000000, 16.001685) scale(-1, 1) translate(-31.000000, -16.001685) "></path>
            </g>
        </g>
    </g>
</svg>
