<?xml version="1.0" encoding="UTF-8" standalone="no"?>
<svg width="9px" height="12px" viewBox="0 0 9 12" version="1.1" xmlns="http://www.w3.org/2000/svg" xmlns:xlink="http://www.w3.org/1999/xlink">
    <title>Property negotiation</title>
    <defs></defs>
    <g id="Account---On-the-market-(3)" stroke="none" stroke-width="1" fill="none" fill-rule="evenodd">
        <g id="OTM---Viewings" transform="translate(-794.000000, -240.000000)">
            <g id="Navigation" transform="translate(350.000000, 223.000000)">
                <g id="Negotiations" transform="translate(422.000000, 0.000000)">
                    <g id="Group-4" transform="translate(14.000000, 11.000000)">
                        <rect id="Rectangle" fill-opacity="0" fill="#D8D8D8" x="0" y="0" width="24" height="24"></rect>
                        <path d="M11.264,9.616 L11.264,11.712 L13.936,11.712 L13.936,13.28 L11.264,13.28 L11.264,16.192 L16.032,16.192 L16.032,17.872 L8.064,17.872 L8.064,16.192 L9.376,16.192 L9.376,13.28 L8,13.28 L8,11.712 L9.376,11.712 L9.376,9.712 C9.376,8.42132688 9.70133008,7.48000296 10.352,6.888 C11.0026699,6.29599704 11.8559947,6 12.912,6 C14.3093403,6 15.3599965,6.59732736 16.064,7.792 L14.736,8.848 C14.2986645,8.12266304 13.7333368,7.76 13.04,7.76 C12.5279974,7.76 12.1040017,7.9066652 11.768,8.2 C11.4319983,8.4933348 11.264,8.96533008 11.264,9.616 Z" id="£" fill="#00B991"></path>
                    </g>
                </g>
            </g>
        </g>
    </g>
</svg>
