<?xml version="1.0" encoding="UTF-8" standalone="no"?>
<svg width="8px" height="13px" viewBox="0 0 8 13" version="1.1" xmlns="http://www.w3.org/2000/svg" xmlns:xlink="http://www.w3.org/1999/xlink">
    <title>Phone number</title>
    <defs></defs>
    <g id="Book-a-Valuation" stroke="none" stroke-width="1" fill="none" fill-rule="evenodd">
        <g id="[Book-a-Valuation]-Final" transform="translate(-408.000000, -577.000000)" fill="currentColor">
            <g id="1.1:-Pre-valuation" transform="translate(350.000000, 351.000000)">
                <g id="Contact-Box" transform="translate(40.000000, 180.000000)">
                    <path d="M22.6607198,57.7142842 C22.6607198,58.156249 22.2991123,58.5178566 21.8571475,58.5178566 C21.4151826,58.5178566 21.0535751,58.156249 21.0535751,57.7142842 C21.0535751,57.2723194 21.4151826,56.9107118 21.8571475,56.9107118 C22.2991123,56.9107118 22.6607198,57.2723194 22.6607198,57.7142842 L22.6607198,57.7142842 Z M24.750008,56.1071394 C24.750008,56.2778985 24.5993382,56.4285684 24.4285791,56.4285684 L19.2857158,56.4285684 C19.1149567,56.4285684 18.9642869,56.2778985 18.9642869,56.1071394 L18.9642869,49.0357024 C18.9642869,48.8649433 19.1149567,48.7142735 19.2857158,48.7142735 L24.4285791,48.7142735 C24.5993382,48.7142735 24.750008,48.8649433 24.750008,49.0357024 L24.750008,56.1071394 Z M22.8214343,47.5892721 C22.8214343,47.679674 22.7511217,47.7499866 22.6607198,47.7499866 L21.0535751,47.7499866 C20.9631732,47.7499866 20.8928606,47.679674 20.8928606,47.5892721 C20.8928606,47.4988702 20.9631732,47.4285576 21.0535751,47.4285576 L22.6607198,47.4285576 C22.7511217,47.4285576 22.8214343,47.4988702 22.8214343,47.5892721 L22.8214343,47.5892721 Z M25.7142949,47.4285576 C25.7142949,46.7254318 25.1317049,46.1428418 24.4285791,46.1428418 L19.2857158,46.1428418 C18.58259,46.1428418 18,46.7254318 18,47.4285576 L18,57.7142842 C18,58.41741 18.58259,59 19.2857158,59 L24.4285791,59 C25.1317049,59 25.7142949,58.41741 25.7142949,57.7142842 L25.7142949,47.4285576 Z" id=""></path>
                </g>
            </g>
        </g>
    </g>
</svg>
