<?xml version="1.0" encoding="UTF-8" standalone="no"?>
<svg width="54px" height="54px" viewBox="0 0 54 54" version="1.1" xmlns="http://www.w3.org/2000/svg" xmlns:xlink="http://www.w3.org/1999/xlink">
    <title>Warning</title>
    <defs></defs>
    <g id="Book-a-Viewing" stroke="none" stroke-width="1" fill="none" fill-rule="evenodd">
        <g id="3.1:-[Alone]-ID-Check" transform="translate(-904.000000, -385.000000)" stroke-width="4" stroke="currentColor">
            <g id="1465277518_.svg" transform="translate(906.000000, 386.000000)">
                <g id="svg2">
                    <g id="layer1" transform="translate(0.000000, 0.419618)">
                        <path d="M1.82056184,28.5496053 C-0.166247368,26.5628289 -0.166247368,23.9136842 1.82056184,21.9269276 L21.6886513,2.05882895 C23.6754605,0.0720131579 26.3245388,0.0720131579 28.311348,2.05882895 L48.1794375,21.9269276 C50.166248,23.9136842 50.166248,26.5628289 48.1794375,28.5496053 L28.311348,48.4177632 C26.3245388,50.4045395 23.6754605,50.4045395 21.6886513,48.4177632 L1.82056184,28.5496053 Z" id="path4035"></path>
                        <g id="g3842" transform="translate(23.684211, 15.460513)" fill="#DE5E45">
                            <path d="M2.30263158,18.3303947 C2.30263158,18.8753947 1.86080724,19.3172368 1.31578947,19.3172368 C0.770771711,19.3172368 0.328947368,18.8753947 0.328947368,18.3303947 C0.328947368,17.7853947 0.770771711,17.3435526 1.31578947,17.3435526 C1.86080724,17.3435526 2.30263158,17.7853947 2.30263158,18.3303947 L2.30263158,18.3303947 Z" id="path3837"></path>
                            <path d="M2.30263158,1.22513158 C2.30263158,0.680131579 1.86080724,0.238289474 1.31578947,0.238289474 C0.770771711,0.238289474 0.328947368,0.680131579 0.328947368,1.22513158 C0.328947368,1.77013158 0.770771711,13.3961842 1.31578947,13.3961842 C1.86080724,13.3961842 2.30263158,1.77013158 2.30263158,1.22513158 L2.30263158,1.22513158 Z" id="path3840"></path>
                        </g>
                    </g>
                </g>
            </g>
        </g>
    </g>
</svg>
