<?xml version="1.0" encoding="UTF-8" standalone="no"?>
<svg width="70px" height="140px" viewBox="0 0 70 140" version="1.1" xmlns="http://www.w3.org/2000/svg" xmlns:xlink="http://www.w3.org/1999/xlink">
    <title>Mobile phone friendly</title>
    <defs></defs>
    <g id="Marketing-Site" stroke="none" stroke-width="1" fill="none" fill-rule="evenodd">
        <g id="How-it-works" transform="translate(-685.000000, -1040.000000)" fill="currentColor">
            <g id="Moving-home-is-hard." transform="translate(391.000000, 1040.000000)">
                <g id="1475005443_Device-13" transform="translate(294.000000, 0.000000)">
                    <g id="Layer_1">
                        <g id="Group">
                            <g id="Shape">
                                <path d="M60.1748,140 L9.8042,140 C4.6984,140 0.5446,135.8462 0.5446,130.7404 L0.5446,9.2596 C0.5446,4.1538 4.6984,0 9.8042,0 L60.1748,0 C65.2806,0 69.4344,4.1538 69.4344,9.2596 L69.4344,130.7404 C69.4344,135.8462 65.2806,140 60.1748,140 L60.1748,140 Z M9.8042,2.2218 C5.9234,2.2218 2.7678,5.3788 2.7678,9.2582 L2.7678,130.739 C2.7678,134.6198 5.9248,137.7754 9.8042,137.7754 L60.1748,137.7754 C64.0556,137.7754 67.2112,134.6184 67.2112,130.739 L67.2112,9.2596 C67.2112,5.3788 64.0542,2.2232 60.1748,2.2232 L9.8042,2.2232 L9.8042,2.2218 Z"></path>
                                <path d="M65.1756,122.4202 L4.8048,122.4202 L4.8048,17.605 L65.1756,17.605 L65.1756,122.4202 L65.1756,122.4202 Z M5.9164,121.31 L64.064,121.31 L64.064,18.718 L5.9164,18.718 L5.9164,121.31 L5.9164,121.31 Z"></path>
                            </g>
                            <path d="M40.1744,10.7156 L29.8046,10.7156 C29.0906,10.7156 28.5082,10.1346 28.5082,9.4192 L28.5082,9.1224 C28.5082,8.4084 29.0892,7.826 29.8046,7.826 L40.1744,7.826 C40.8884,7.826 41.4708,8.407 41.4708,9.1224 L41.4708,9.4192 C41.4708,10.1346 40.8898,10.7156 40.1744,10.7156 L40.1744,10.7156 Z M29.8046,8.9376 C29.7024,8.9376 29.6198,9.0202 29.6198,9.1224 L29.6198,9.4192 C29.6198,9.5214 29.7024,9.604 29.8046,9.604 L40.1744,9.604 C40.2766,9.604 40.3592,9.5214 40.3592,9.4192 L40.3592,9.1224 C40.3592,9.0202 40.2766,8.9376 40.1744,8.9376 L29.8046,8.9376 L29.8046,8.9376 Z" id="Shape"></path>
                            <path d="M24.3726,11.0866 C23.373,11.0866 22.5582,10.2718 22.5582,9.2722 C22.5582,8.2712 23.373,7.4564 24.3726,7.4564 C25.3736,7.4564 26.1884,8.2712 26.1884,9.2722 C26.1884,10.2718 25.3736,11.0866 24.3726,11.0866 L24.3726,11.0866 Z M24.3726,8.568 C23.9848,8.568 23.6698,8.883 23.6698,9.2722 C23.6698,9.66 23.9848,9.975 24.3726,9.975 C24.7618,9.975 25.0768,9.66 25.0768,9.2722 C25.0768,8.883 24.7618,8.568 24.3726,8.568 L24.3726,8.568 Z" id="Shape"></path>
                            <path d="M34.9902,135.6922 C31.8248,135.6922 29.2488,133.1176 29.2488,129.9508 C29.2488,126.784 31.8234,124.2094 34.9902,124.2094 C38.157,124.2094 40.7316,126.784 40.7316,129.9508 C40.7316,133.1176 38.1556,135.6922 34.9902,135.6922 L34.9902,135.6922 Z M34.9902,125.321 C32.438,125.321 30.3604,127.3986 30.3604,129.9508 C30.3604,132.503 32.438,134.5806 34.9902,134.5806 C37.5424,134.5806 39.62,132.503 39.62,129.9508 C39.62,127.3986 37.5424,125.321 34.9902,125.321 L34.9902,125.321 Z" id="Shape"></path>
                            <g transform="translate(0.000000, 16.800000)" id="Rectangle-path">
                                <g>
                                    <rect x="0.0042" y="0.3766" width="1.8494" height="6.3882"></rect>
                                    <rect x="0.0042" y="12.3004" width="1.8494" height="11.2224"></rect>
                                    <rect x="0.0042" y="24.7072" width="1.8494" height="11.6004"></rect>
                                </g>
                                <rect x="68.1394" y="12.033" width="1.8564" height="12.9626"></rect>
                            </g>
                        </g>
                    </g>
                </g>
            </g>
        </g>
    </g>
</svg>
