<?xml version="1.0" encoding="UTF-8" standalone="no"?>
<svg width="24px" height="24px" viewBox="0 0 24 24" version="1.1" xmlns="http://www.w3.org/2000/svg" xmlns:xlink="http://www.w3.org/1999/xlink">
    <title>Statistics</title>
    <defs></defs>
    <g id="Account---On-the-market" stroke="none" stroke-width="1" fill="none" fill-rule="evenodd">
        <g id="Property---4.0-On-the-market---Activity" transform="translate(-48.000000, -277.000000)" fill="currentColor">
            <g id="Stats" transform="translate(48.000000, 277.000000)">
                <g id="1468941604_analytics_graph_monitoring_stats">
                    <g id="Group">
                        <path d="M23.0564103,22.2358974 L1.76410256,22.2358974 L1.76410256,0.943589744 C1.76410256,0.471794872 1.39487179,0.102564103 0.923076923,0.102564103 C0.451282051,0.102564103 0.0820512821,0.471794872 0.0820512821,0.943589744 L0.0820512821,23.0769231 C0.0820512821,23.5487179 0.451282051,23.9179487 0.923076923,23.9179487 L23.0564103,23.9179487 C23.5282051,23.9179487 23.8974359,23.5487179 23.8974359,23.0769231 C23.8974359,22.6051282 23.5282051,22.2358974 23.0564103,22.2358974 L23.0564103,22.2358974 Z" id="Shape"></path>
                        <path d="M9.90769231,18.9948718 L9.90769231,6.89230769 C9.90769231,6.42051282 9.53846154,6.05128205 9.06666667,6.05128205 C8.59487179,6.05128205 8.22564103,6.42051282 8.22564103,6.89230769 L8.22564103,18.9948718 C8.22564103,19.4666667 8.59487179,19.8358974 9.06666667,19.8358974 C9.53846154,19.8358974 9.90769231,19.4666667 9.90769231,18.9948718 L9.90769231,18.9948718 Z" id="Shape"></path>
                        <path d="M5.84615385,18.9948718 L5.84615385,6.89230769 C5.84615385,6.42051282 5.47692308,6.05128205 5.00512821,6.05128205 C4.53333333,6.05128205 4.16410256,6.42051282 4.16410256,6.89230769 L4.16410256,18.9948718 C4.16410256,19.4666667 4.53333333,19.8358974 5.00512821,19.8358974 C5.47692308,19.8358974 5.84615385,19.4666667 5.84615385,18.9948718 L5.84615385,18.9948718 Z" id="Shape"></path>
                        <path d="M18.0307692,18.9948718 L18.0307692,6.89230769 C18.0307692,6.42051282 17.6615385,6.05128205 17.1897436,6.05128205 C16.7179487,6.05128205 16.3487179,6.42051282 16.3487179,6.89230769 L16.3487179,18.9948718 C16.3487179,19.4666667 16.7179487,19.8358974 17.1897436,19.8358974 C17.6615385,19.8358974 18.0307692,19.4666667 18.0307692,18.9948718 L18.0307692,18.9948718 Z" id="Shape"></path>
                        <path d="M22.0923077,18.9948718 L22.0923077,12.9435897 C22.0923077,12.4717949 21.7230769,12.1025641 21.2512821,12.1025641 C20.7794872,12.1025641 20.4102564,12.4717949 20.4102564,12.9435897 L20.4102564,18.9948718 C20.4102564,19.4666667 20.7794872,19.8358974 21.2512821,19.8358974 C21.7230769,19.8358974 22.0923077,19.4666667 22.0923077,18.9948718 L22.0923077,18.9948718 Z" id="Shape"></path>
                        <path d="M13.9692308,18.9948718 L13.9692308,12.9435897 C13.9692308,12.4717949 13.6,12.1025641 13.1282051,12.1025641 C12.6564103,12.1025641 12.2871795,12.4717949 12.2871795,12.9435897 L12.2871795,18.9948718 C12.2871795,19.4666667 12.6564103,19.8358974 13.1282051,19.8358974 C13.6,19.8358974 13.9692308,19.4666667 13.9692308,18.9948718 L13.9692308,18.9948718 Z" id="Shape"></path>
                    </g>
                </g>
            </g>
        </g>
    </g>
</svg>
