<?xml version="1.0" encoding="UTF-8" standalone="no"?>
<svg width="24px" height="16px" viewBox="0 0 24 16" version="1.1" xmlns="http://www.w3.org/2000/svg" xmlns:xlink="http://www.w3.org/1999/xlink">
    <title>Property viewings</title>
    <defs></defs>
    <g id="Account----On-the-market-(2)" stroke="none" stroke-width="1" fill="none" fill-rule="evenodd">
        <g id="Property---4.0-On-the-market---Activity" transform="translate(-602.000000, -204.000000)" fill="#00B991">
            <g id="Nav" transform="translate(244.000000, 202.000000)">
                <g id="Viewings" transform="translate(358.000000, 0.000000)">
                    <g id="Group" transform="translate(0.000000, 2.000000)">
                        <path d="M12,15.2727273 C8.34428571,15.2727273 4.88485714,13.7395152 2.25685714,10.9556364 C1.93371429,10.613697 1.95257143,10.0766061 2.298,9.75672727 C2.64428571,9.43684848 3.186,9.45551515 3.51,9.79745455 C5.80971429,12.234303 8.82428571,13.5757576 12,13.5757576 C16.0825714,13.5757576 19.842,11.3654545 22.1485714,7.63636364 C19.8428571,3.90727273 16.0825714,1.6969697 12,1.6969697 C7.76742857,1.6969697 3.88114286,4.07357576 1.60285714,8.05466667 C1.36971429,8.46278788 0.845142857,8.6070303 0.434571429,8.37454545 C0.0222857143,8.14375758 -0.121714286,7.62618182 0.111428571,7.21806061 C2.69742857,2.69818182 7.14257143,0 12,0 C16.8582857,0 21.3025714,2.69818182 23.8885714,7.21806061 C24.0368571,7.47769697 24.0368571,7.7950303 23.8885714,8.05381818 C21.3025714,12.573697 16.8582857,15.2727273 12,15.2727273 L12,15.2727273 Z" id="Shape"></path>
                        <path d="M12,11.8787879 C9.63685714,11.8787879 7.71428571,9.97563636 7.71428571,7.63636364 C7.71428571,5.29709091 9.63685714,3.39393939 12,3.39393939 C14.3631429,3.39393939 16.2857143,5.29709091 16.2857143,7.63636364 C16.2857143,9.97563636 14.3631429,11.8787879 12,11.8787879 L12,11.8787879 Z M12,5.09090909 C10.5822857,5.09090909 9.42857143,6.2329697 9.42857143,7.63636364 C9.42857143,9.03975758 10.5822857,10.1818182 12,10.1818182 C13.4177143,10.1818182 14.5714286,9.03975758 14.5714286,7.63636364 C14.5714286,6.2329697 13.4177143,5.09090909 12,5.09090909 L12,5.09090909 Z" id="Shape"></path>
                    </g>
                </g>
            </g>
        </g>
    </g>
</svg>
