<?xml version="1.0" encoding="UTF-8" standalone="no"?>
<svg width="120px" height="120px" viewBox="0 0 120 120" version="1.1" xmlns="http://www.w3.org/2000/svg" xmlns:xlink="http://www.w3.org/1999/xlink">
    <title>Play video</title>
    <defs></defs>
    <g id="Marketing-Site-(2)" stroke="none" stroke-width="1" fill="none" fill-rule="evenodd">
        <g id="Home" transform="translate(-660.000000, -775.000000)">
            <g id="Hero" transform="translate(30.000000, 29.000000)">
                <g id="Play" transform="translate(630.000000, 746.000000)">
                    <rect id="Rectangle-11" fill="currentColor" x="0" y="0" width="120" height="120" rx="60"></rect>
                    <g id="Layer_1" transform="translate(10.000000, 10.000000)" fill="#FFFFFF">
                        <path d="M70.9588889,43.3322222 L45.9822222,28.3455556 C44.4,27.3966667 42.8244444,26.9155556 41.3011111,26.9155556 C38.0911111,26.9155556 34.6366667,29.3722222 34.6366667,34.7677778 L34.6366667,65.23 C34.6366667,70.6244444 38.0911111,73.0833333 41.3011111,73.0833333 C42.8233333,73.0833333 44.3977778,72.6 45.9833333,71.6533333 L70.96,56.6655556 C73.6933333,55.0255556 75.2588889,52.5977778 75.2611111,50 C75.2577778,47.4022222 73.6922222,44.9722222 70.9588889,43.3322222 L70.9588889,43.3322222 Z M68.1477778,51.9766667 L43.17,66.9655556 C42.47,67.3866667 41.8055556,67.6166667 41.3011111,67.6166667 C40.26,67.6166667 40.1044444,66.1211111 40.1044444,65.2311111 L40.1044444,34.7688889 C40.1044444,33.8777778 40.26,32.3822222 41.3011111,32.3822222 C41.8055556,32.3822222 42.47,32.6133333 43.17,33.0333333 L68.1477778,48.0188889 C69.1622222,48.6277778 69.7911111,49.3866667 69.7911111,50 C69.7922222,50.6111111 69.1622222,51.3688889 68.1477778,51.9766667 L68.1477778,51.9766667 Z" id="Shape"></path>
                    </g>
                </g>
            </g>
        </g>
    </g>
</svg>
