<?xml version="1.0" encoding="UTF-8" standalone="no"?>
<svg width="12px" height="12px" viewBox="0 0 12 12" version="1.1" xmlns="http://www.w3.org/2000/svg" xmlns:xlink="http://www.w3.org/1999/xlink">
    <title>Recurring</title>
    <desc>Indicates a repeatable action.</desc>
    <defs></defs>
    <g id="Account---Availability" stroke="none" stroke-width="1" fill="none" fill-rule="evenodd">
        <g id="Availability---One-time" transform="translate(-1115.000000, -824.000000)" fill="currentColor">
            <g id="Group" transform="translate(563.000000, 469.000000)">
                <g id="Time" transform="translate(0.000000, 336.000000)">
                    <path d="M562.961509,26.517853 C562.961509,26.394527 562.859946,26.2857099 562.729365,26.2857099 L561.336507,26.2857099 C561.22769,26.2857099 561.155145,26.3510001 561.118872,26.4525627 C560.995546,26.7427417 560.908493,27.0184116 560.734385,27.3013361 C560.059719,28.404016 558.862731,29.0714275 557.571435,29.0714275 C556.635608,29.0714275 555.728799,28.7087038 555.046879,28.0703102 L556.040741,27.0764474 C556.127795,26.9893937 556.178576,26.8733222 556.178576,26.7499961 C556.178576,26.4960896 555.968197,26.2857099 555.71429,26.2857099 L552.464286,26.2857099 C552.21038,26.2857099 552,26.4960896 552,26.7499961 L552,30 C552,30.2539066 552.21038,30.4642863 552.464286,30.4642863 C552.587612,30.4642863 552.703684,30.413505 552.790738,30.3264513 L553.726565,29.3906243 C554.7567,30.3699781 556.127795,30.9285725 557.542417,30.9285725 C560.219318,30.9285725 562.337624,29.1367177 562.954254,26.5686343 C562.961509,26.5541254 562.961509,26.5323619 562.961509,26.517853 L562.961509,26.517853 Z M563.14287,20.7142746 C563.14287,20.4603681 562.932491,20.2499884 562.678584,20.2499884 C562.555258,20.2499884 562.439187,20.3007697 562.352133,20.3878234 L561.409051,21.3236504 C560.378916,20.351551 558.993312,19.7857021 557.571435,19.7857021 C554.894535,19.7857021 552.754465,21.5703025 552.130581,24.1456403 L552.130581,24.1964217 C552.130581,24.3197477 552.232143,24.4285648 552.362724,24.4285648 L553.806364,24.4285648 C553.915181,24.4285648 553.987726,24.3632745 554.023998,24.2617119 C554.147324,23.971533 554.234378,23.695863 554.408485,23.4129386 C555.083151,22.3102587 556.280139,21.6428472 557.571435,21.6428472 C558.507262,21.6428472 559.414071,21.9983164 560.103246,22.63671 L559.102129,23.6378272 C559.015075,23.7248809 558.964294,23.8409525 558.964294,23.9642785 C558.964294,24.2181851 559.174674,24.4285648 559.42858,24.4285648 L562.678584,24.4285648 C562.932491,24.4285648 563.14287,24.2181851 563.14287,23.9642785 L563.14287,20.7142746 Z" id=""></path>
                </g>
            </g>
        </g>
    </g>
</svg>
