<?xml version="1.0" encoding="UTF-8" standalone="no"?>
<svg width="48px" height="53px" viewBox="0 0 48 53" version="1.1" xmlns="http://www.w3.org/2000/svg" xmlns:xlink="http://www.w3.org/1999/xlink">
    <title>Small Moovyn logo</title>
    <defs></defs>
    <g id="Account---Overview" stroke="none" stroke-width="1" fill="none" fill-rule="evenodd">
        <g id="Overview-1.0-Pre-Valuation" transform="translate(-296.000000, -276.000000)" fill="currentColor">
            <g id="[Selling]-1.0-Pre-instruction" transform="translate(30.000000, 110.000000)">
                <path d="M306.65993,212.36478 L301.117405,212.36478 L301.117405,201.252679 C301.117405,198.770065 300.807121,197.089024 300.190425,196.209558 C299.571516,195.329539 298.644535,194.890359 297.408377,194.890359 C296.467569,194.890359 295.624659,195.158839 294.878539,195.695247 C294.133525,196.233312 293.578775,196.973567 293.215947,197.919877 C292.85312,198.86674 292.671153,200.385918 292.671153,202.479623 L292.671153,212.36478 L287.128628,212.36478 L287.128628,201.755941 C287.128628,199.795925 286.983718,198.375631 286.693899,197.497822 C286.404632,196.618908 285.971009,195.96428 285.390816,195.533385 C284.811177,195.104148 284.110964,194.890359 283.289071,194.890359 C282.373705,194.890359 281.541303,195.161601 280.794077,195.705743 C280.046851,196.24878 279.487123,197.010027 279.117659,197.990588 C278.746535,198.970596 278.561802,200.514082 278.561802,202.621597 L278.561802,212.36478 L273.058547,212.36478 L273.058547,190.461538 L278.561802,190.461538 L278.561802,192.977298 C279.502057,191.943704 280.547952,191.172514 281.698934,190.66207 C282.848257,190.152178 284.102114,189.897509 285.460506,189.897509 C286.832171,189.897509 288.069436,190.232833 289.171746,190.903481 C290.27461,191.575235 291.161768,192.555243 291.834326,193.844059 C292.708763,192.555243 293.781206,191.575235 295.051656,190.903481 C296.322659,190.232833 297.711471,189.897509 299.216985,189.897509 C300.776701,189.897509 302.148367,190.25935 303.331428,190.983583 C304.51449,191.708922 305.365144,192.65468 305.883943,193.823066 C306.401636,194.991453 306.65993,196.89015 306.65993,199.520815 L306.65993,212.36478 Z M309.895512,185.242193 L309.895512,173.891443 C309.895512,173.728476 309.762217,173.594236 309.598502,173.594236 L302.56761,173.594236 C302.403342,173.594236 302.270047,173.728476 302.270047,173.891443 L302.270047,177.625307 L291.081016,166.44581 C290.7829,166.148051 290.391865,166 289.999723,166 C289.608688,166 289.218759,166.148051 288.921196,166.44581 L267.07908,188.263977 C266.484508,188.856181 266,190.026225 266,190.865916 L266,217.471982 C266,218.312226 266.686939,219 267.525978,219 L312.473469,219 C313.313061,219 314,218.312226 314,217.471982 L314,190.865916 C314,190.026225 313.515492,188.856181 312.920366,188.263977 L309.895512,185.242193 Z" id="Fill-1"></path>
            </g>
        </g>
    </g>
</svg>
