<?xml version="1.0" encoding="UTF-8" standalone="no"?>
<svg width="18px" height="18px" viewBox="0 0 18 18" version="1.1" xmlns="http://www.w3.org/2000/svg" xmlns:xlink="http://www.w3.org/1999/xlink">
  <title>Left facing arrow</title>
  <defs></defs>
  <g id="Symbols" stroke="none" stroke-width="1" fill="none" fill-rule="evenodd">
    <g id="Task-Bar---Action-Required" transform="translate(-352.000000, -22.000000)" fill="#00B991">
      <g id="Arrow_Back">
        <path
          d="M365.683978,30.2572764 C361.193058,30.256857 354.803335,30.2572765 354.803335,30.2572765 L361.923391,23.4096883 C362.257799,23.0868369 362.257799,22.5641643 361.923391,22.2421386 C361.588984,21.9192871 361.047603,21.9192871 360.714051,22.2421386 L352.246957,30.4158123 C351.917681,30.7337095 351.917681,31.2654648 352.246957,31.583362 L360.714051,39.7578614 C361.048458,40.0807129 361.589839,40.0807129 361.923391,39.7578614 C362.257799,39.43501 362.257799,38.9123374 361.923391,38.5903117 L354.803335,31.9086906 L369.960289,31.9086905 C370.061548,31.9086905 369.961989,31.8916729 369.743098,31.8604405 C368.941448,31.7460569 369.960289,32.2184709 369.960289,31.8604407 C369.960289,31.8604407 369.960289,31.0829834 369.960289,31.0829834 C369.950596,30.8660935 369.970833,30.3140954 369.960289,30.2572764 C369.95003,30.2019981 367.910538,30.2574844 365.683978,30.2572764 Z"></path>
      </g>
    </g>
  </g>
</svg>
