<?xml version="1.0" encoding="UTF-8" standalone="no"?>
<svg width="72px" height="80px" viewBox="0 0 72 80" version="1.1" xmlns="http://www.w3.org/2000/svg" xmlns:xlink="http://www.w3.org/1999/xlink">
    <title>Moovyn Sign display board</title>
    <defs>
        <polygon id="path-1" points="0.544148276 20 3.33725172 20 3.33725172 0.572 0.544148276 0.572 0.544148276 20"></polygon>
        <path d="M30.1304562,1.25 L-24.1304562,1.25 C-29.0264444,1.25 -33,-2.71886761 -33,-7.61567596 L-33,-51.134324 C-33,-56.0311324 -29.0264444,-60 -24.1304562,-60 L30.1304562,-60 C35.0294009,-60 39,-56.0311324 39,-51.134324 L39,-7.61567596 C39,-2.71886761 35.0294009,1.25 30.1304562,1.25" id="path-3"></path>
        <path d="M14.2022096,-15.7881858 L10.4754758,-15.7881858 L10.4754758,-23.3868726 C10.4754758,-25.0865021 10.2671309,-26.23419 9.85337539,-26.8386973 C9.43668547,-27.4373641 8.81165059,-27.7381576 7.98120519,-27.7381576 C7.347367,-27.7381576 6.78102085,-27.5541771 6.27923228,-27.1920567 C5.78037815,-26.8211754 5.40770478,-26.3130387 5.16121215,-25.6705671 C4.91765396,-25.0164142 4.79734208,-23.9796987 4.79734208,-22.5516596 L4.79734208,-15.7881858 L1.0706083,-15.7881858 L1.0706083,-23.0451946 C1.0706083,-24.3827036 0.970837474,-25.3580923 0.777164695,-25.956759 C0.583491916,-26.5554258 0.290048312,-27.0051559 -0.100231683,-27.3001088 C-0.487577241,-27.5950616 -0.960021444,-27.7381576 -1.51169542,-27.7381576 C-2.12792699,-27.7381576 -2.68840427,-27.5541771 -3.19019284,-27.1803754 C-3.6919814,-26.8094941 -4.06758922,-26.2925965 -4.31701628,-25.6180013 C-4.56644334,-24.9492468 -4.68968966,-23.8950093 -4.68968966,-22.4523685 L-4.68968966,-15.7881858 L-8.39001351,-15.7881858 L-8.39001351,-30.7694554 L-4.68968966,-30.7694554 L-4.68968966,-29.0464634 C-4.05878591,-29.7561025 -3.35452126,-30.2817611 -2.57983014,-30.6322001 C-1.80807346,-30.9797188 -0.965890316,-31.1578587 -0.0503462697,-31.1578587 C0.871066649,-31.1578587 1.70151205,-30.927153 2.44392437,-30.4657416 C3.18633669,-30.0101708 3.78202721,-29.3355756 4.23393036,-28.4536373 C4.82081757,-29.3355756 5.54268883,-30.0101708 6.39660972,-30.4657416 C7.25053061,-30.927153 8.18661571,-31.1578587 9.19899615,-31.1578587 C10.2465898,-31.1578587 11.1680027,-30.909631 11.9632349,-30.4131757 C12.7584671,-29.9167204 13.3306821,-29.2654878 13.67988,-28.4711593 C14.0290779,-27.6680698 14.2022096,-26.3714453 14.2022096,-24.5725248 L14.2022096,-15.7881858 Z M16.3766267,-34.3380931 L16.3766267,-42.1032385 C16.3766267,-42.2142109 16.2885936,-42.304741 16.1770851,-42.304741 L11.4497086,-42.304741 C11.3411345,-42.304741 11.2501669,-42.2142109 11.2501669,-42.1032385 L11.2501669,-39.5508741 L3.72627292,-47.1933658 C3.52673127,-47.3948683 3.26556646,-47.5 3.00146722,-47.5 C2.73736797,-47.5 2.47620317,-47.3948683 2.27372708,-47.1933658 L-12.4101909,-32.2705027 C-12.8122086,-31.8674978 -13.137931,-31.0644083 -13.137931,-30.4949448 L-13.137931,-12.2954765 C-13.137931,-11.7172521 -12.6742901,-11.25 -12.1108784,-11.25 L18.1108784,-11.25 C18.6742901,-11.25 19.137931,-11.7172521 19.137931,-12.2954765 L19.137931,-30.4949448 C19.137931,-31.0644083 18.8122086,-31.8674978 18.4101909,-32.2705027 L16.3766267,-34.3380931 Z" id="path-5"></path>
    </defs>
    <g id="Landing-Page-(3)" stroke="none" stroke-width="1" fill="none" fill-rule="evenodd">
        <g id="Home" transform="translate(-684.000000, -4421.000000)">
            <g id="Moovyn-Sign" transform="translate(717.000000, 4481.000000)">
                <mask id="mask-2" fill="white">
                    <use xlink:href="#path-1"></use>
                </mask>
                <g id="Clip-6"></g>
                <polygon id="Stroke-5" fill="#00B991" mask="url(#mask-2)" points="-1.48275862 0.572 -1.48275862 20.0010909 2.51724138 20.0010909 2.51724138 0.572"></polygon>
                <mask id="mask-4" fill="white">
                    <use xlink:href="#path-3"></use>
                </mask>
                <g id="Fill-1"></g>
                <path d="M30.1304562,-0.75 C33.9250266,-0.75 37,-3.82363243 37,-7.61567596 L37,-51.134324 C37,-54.9263676 33.9250266,-58 30.1304562,-58 L-24.1304562,-58 C-27.9231943,-58 -31,-54.925244 -31,-51.134324 L-31,-7.61567596 C-31,-3.82475603 -27.9231943,-0.75 -24.1304562,-0.75 L30.1304562,-0.75 Z M30.1304562,1.25 L-24.1304562,1.25 C-29.0264444,1.25 -33,-2.71886761 -33,-7.61567596 L-33,-51.134324 C-33,-56.0311324 -29.0264444,-60 -24.1304562,-60 L30.1304562,-60 C35.0294009,-60 39,-56.0311324 39,-51.134324 L39,-7.61567596 C39,-2.71886761 35.0294009,1.25 30.1304562,1.25 Z" id="Stroke-3" fill="#00B991" mask="url(#mask-4)"></path>
                <mask id="mask-6" fill="white">
                    <use xlink:href="#path-5"></use>
                </mask>
                <use id="Fill-8" fill="#00B991" xlink:href="#path-5"></use>
            </g>
        </g>
    </g>
</svg>
