<?xml version="1.0" encoding="UTF-8" standalone="no"?>
<svg width="24px" height="16px" viewBox="0 0 24 16" version="1.1" xmlns="http://www.w3.org/2000/svg" xmlns:xlink="http://www.w3.org/1999/xlink">
    <title>Property activity</title>
    <desc></desc>
    <defs></defs>
    <g id="Account----On-the-market-(2)" stroke="none" stroke-width="1" fill="none" fill-rule="evenodd">
        <g id="Property---4.0-On-the-market---Activity" transform="translate(-261.000000, -203.000000)" fill="#00B991">
            <g id="Nav" transform="translate(244.000000, 202.000000)">
                <g id="Activity">
                    <path d="M39.6666667,1 C39.0913333,1 38.6013333,1.39781818 38.414,1.952 L34.3306667,14.0909091 L31.5,5.80145455 C31.1226667,4.69890909 30.146,3.90909091 29,3.90909091 C27.7393333,3.90909091 26.682,4.86327273 26.406,6.14763636 L25,12.6334545 L23.466,8.61090909 C23.0626667,7.55709091 22.1093333,6.81527273 21,6.81527273 C19.9166667,6.81527273 18.9846667,7.52 18.5653333,8.53381818 L17.1173333,12.0392727 C17.042,12.2218182 17,12.4232727 17,12.6363636 C17,13.44 17.5966667,14.0909091 18.3333333,14.0909091 C18.8746667,14.0909091 19.3386667,13.7389091 19.5493333,13.2327273 L21,9.72727273 L22.5366667,13.7498182 C22.938,14.8007273 23.8906667,15.5425455 25,15.5425455 C26.2606667,15.5425455 27.318,14.5854545 27.594,13.304 L29,6.81818182 L31.8333333,15.1076364 C32.2133333,16.2130909 33.1873333,17 34.3333333,17 C35.4866667,17 36.466,16.2014545 36.8386667,15.088 L40.9193333,2.95418182 C40.9713333,2.80072727 41,2.63054545 41,2.45381818 C41,1.65090909 40.404,1 39.6666667,1 L39.6666667,1 Z" id="Shape"></path>
                </g>
            </g>
        </g>
    </g>
</svg>
