<?xml version="1.0" encoding="UTF-8" standalone="no"?>
<svg width="24px" height="24px" viewBox="0 0 24 24" version="1.1" xmlns="http://www.w3.org/2000/svg" xmlns:xlink="http://www.w3.org/1999/xlink">
    <title>Search</title>
    <defs></defs>
    <g id="Symbols" stroke="none" stroke-width="1" fill="none" fill-rule="evenodd">
        <g id="Universal-Header---Logged-Out" transform="translate(-355.000000, -18.000000)" fill="currentColor">
            <g id="Links">
                <g transform="translate(164.000000, 18.000000)">
                    <g id="Find-your-perfect-home" transform="translate(191.000000, 0.000000)">
                        <g id="Search-Icon">
                            <g id="Layer_1">
                                <g id="Group">
                                    <path d="M9.42857143,0 C4.23,0 0,4.23 0,9.42857143 C0,14.6271429 4.23,18.8571429 9.42857143,18.8571429 C14.6271429,18.8571429 18.8571429,14.6271429 18.8571429,9.42857143 C18.8571429,4.23 14.6271429,0 9.42857143,0 L9.42857143,0 Z M9.42857143,17.1428571 C5.17542857,17.1428571 1.71428571,13.6825714 1.71428571,9.42857143 C1.71428571,5.17542857 5.17542857,1.71428571 9.42857143,1.71428571 C13.6825714,1.71428571 17.1428571,5.17542857 17.1428571,9.42857143 C17.1428571,13.6825714 13.6825714,17.1428571 9.42857143,17.1428571 L9.42857143,17.1428571 Z" id="Shape"></path>
                                    <path d="M23.7488571,22.5368571 L18.6051429,17.394 C18.27,17.0588571 17.7282857,17.0588571 17.3931429,17.394 C17.058,17.7291429 17.058,18.2708571 17.3931429,18.606 L22.5368571,23.7488571 C22.704,23.916 22.9234286,24 23.1428571,24 C23.3622857,24 23.5817143,23.916 23.7488571,23.7488571 C24.084,23.4137143 24.084,22.872 23.7488571,22.5368571 L23.7488571,22.5368571 Z" id="Shape"></path>
                                </g>
                            </g>
                        </g>
                    </g>
                </g>
            </g>
        </g>
    </g>
</svg>
