<?xml version="1.0" encoding="UTF-8" standalone="no"?>
<svg width="27px" height="32px" viewBox="0 0 27 32" version="1.1" xmlns="http://www.w3.org/2000/svg" xmlns:xlink="http://www.w3.org/1999/xlink">
    <title>Clipboard</title>
    <defs></defs>
    <g id="Seller-Instruction-(New)" stroke="none" stroke-width="1" fill="none" fill-rule="evenodd">
        <g id="4.1:-Housekeeping" transform="translate(-304.000000, -75.000000)" fill="currentColor">
            <g id="1468868133_clipboard" transform="translate(304.000000, 75.000000)">
                <g id="Layer_1">
                    <g id="Group">
                        <path d="M24.7557447,1.57685106 L20.1130213,1.57685106 C19.8815319,0.686978723 19.0774468,0.0251914894 18.1160851,0.0251914894 L8.88987234,0.0251914894 C7.92851064,0.0251914894 7.12510638,0.686978723 6.89429787,1.57685106 L2.25089362,1.57685106 C1.10978723,1.57685106 0.181106383,2.50553191 0.181106383,3.6466383 L0.181106383,29.5155745 C0.181106383,30.656 1.10978723,31.5846809 2.25089362,31.5846809 L24.7557447,31.5846809 C25.8968511,31.5846809 26.8248511,30.656 26.8248511,29.5155745 L26.8248511,3.64595745 C26.8248511,2.50553191 25.8968511,1.57685106 24.7557447,1.57685106 L24.7557447,1.57685106 Z M8.20017021,2.09429787 C8.20017021,1.71370213 8.50995745,1.40459574 8.88987234,1.40459574 L18.116766,1.40459574 C18.4966809,1.40459574 18.8071489,1.71370213 18.8071489,2.09429787 L18.8071489,5.62995745 C18.8071489,6.01055319 18.4966809,6.31965957 18.116766,6.31965957 L8.88987234,6.31965957 C8.50995745,6.31965957 8.20017021,6.01055319 8.20017021,5.62995745 L8.20017021,2.09429787 L8.20017021,2.09429787 Z M25.4454468,29.5155745 C25.4454468,29.8954894 25.1356596,30.2045957 24.7557447,30.2045957 L2.25021277,30.2045957 C1.86893617,30.2045957 1.56051064,29.8954894 1.56051064,29.5155745 L1.56051064,3.64595745 C1.56051064,3.2653617 1.86961702,2.95625532 2.25021277,2.95625532 L6.82008511,2.95625532 L6.82008511,4.59506383 L4.01770213,4.59506383 C3.63642553,4.59506383 3.328,4.90348936 3.328,5.28476596 L3.328,27.876766 C3.328,28.2580426 3.63710638,28.5657872 4.01770213,28.5657872 L22.9882553,28.5657872 C23.3695319,28.5657872 23.6779574,28.2580426 23.6779574,27.876766 L23.6779574,8.56170213 C23.6779574,8.18042553 23.3695319,7.872 22.9882553,7.872 C22.6062979,7.872 22.2971915,8.18042553 22.2971915,8.56170213 L22.2971915,27.186383 L4.70808511,27.186383 L4.70808511,5.97446809 L6.85548936,5.97446809 C7.02025532,6.95148936 7.86655319,7.69906383 8.88987234,7.69906383 L18.116766,7.69906383 C19.1400851,7.69906383 19.9857021,6.95148936 20.1511489,5.97446809 L22.9889362,5.97446809 C23.3702128,5.97446809 23.6786383,5.66604255 23.6786383,5.28476596 C23.6786383,4.90280851 23.3702128,4.59506383 22.9889362,4.59506383 L20.1865532,4.59506383 L20.1865532,2.95625532 L24.7564255,2.95625532 C25.1363404,2.95625532 25.4461277,3.26604255 25.4461277,3.64595745 L25.4461277,29.5155745 L25.4454468,29.5155745 Z" id="Shape"></path>
                        <path d="M18.8391489,12.4411915 L8.16817021,12.4411915 C7.78621277,12.4411915 7.47846809,12.749617 7.47846809,13.1315745 C7.47846809,13.5128511 7.78689362,13.8212766 8.16817021,13.8212766 L18.8391489,13.8212766 C19.2204255,13.8212766 19.5281702,13.5121702 19.5281702,13.1315745 C19.5281702,12.7502979 19.2197447,12.4411915 18.8391489,12.4411915 L18.8391489,12.4411915 Z" id="Shape"></path>
                        <path d="M18.8391489,15.8910638 L8.16817021,15.8910638 C7.78621277,15.8910638 7.47846809,16.1994894 7.47846809,16.580766 C7.47846809,16.9627234 7.78689362,17.2711489 8.16817021,17.2711489 L18.8391489,17.2711489 C19.2204255,17.2711489 19.5281702,16.9627234 19.5281702,16.580766 C19.5281702,16.1994894 19.2197447,15.8910638 18.8391489,15.8910638 L18.8391489,15.8910638 Z" id="Shape"></path>
                        <path d="M18.8391489,19.3395745 L8.16817021,19.3395745 C7.78621277,19.3395745 7.47846809,19.6473191 7.47846809,20.0306383 C7.47846809,20.4119149 7.78689362,20.7196596 8.16817021,20.7196596 L18.8391489,20.7196596 C19.2204255,20.7196596 19.5281702,20.4119149 19.5281702,20.0306383 C19.5281702,19.6473191 19.2197447,19.3395745 18.8391489,19.3395745 L18.8391489,19.3395745 Z" id="Shape"></path>
                    </g>
                </g>
            </g>
        </g>
    </g>
</svg>
