<?xml version="1.0" encoding="UTF-8" standalone="no"?>
<svg width="21px" height="18px" viewBox="0 0 21 18" version="1.1" xmlns="http://www.w3.org/2000/svg" xmlns:xlink="http://www.w3.org/1999/xlink">
    <title>Download</title>
    <desc>Indicates a downloadable file.</desc>
    <defs></defs>
    <g id="Book-a-Valuation" stroke="none" stroke-width="1" fill="none" fill-rule="evenodd">
        <g id="[Book-a-Valuation]-Final" transform="translate(-458.000000, -1015.000000)" fill="currentColor">
            <g id="Download-PDF" transform="translate(350.000000, 954.000000)">
                <path d="M118.111111,77.4516129 L115.583333,74.9354839 L115,75.516129 L118.5,79 L122,75.516129 L121.416667,74.9354839 L118.888889,77.4516129 L118.888889,68.7419355 L118.111111,68.7419355 L118.111111,77.4516129 L118.111111,77.4516129 L118.111111,77.4516129 Z M117.333333,73.3870968 L111.891079,73.3870968 C110.176174,73.3870968 108.777778,72.0006237 108.777778,70.2903226 C108.777778,68.8229236 109.80803,67.589731 111.189674,67.2726357 L111.189674,67.2726357 C111.138082,66.9960374 111.111111,66.7108313 111.111111,66.4193548 C111.111111,63.853903 113.200449,61.7741935 115.777778,61.7741935 C117.81201,61.7741935 119.542243,63.069773 120.181108,64.8771931 C120.783381,64.3892741 121.551818,64.0967742 122.388889,64.0967742 C124.223155,64.0967742 125.727861,65.5012898 125.876785,67.28883 L125.876785,67.28883 C127.222382,67.6294946 128.222222,68.8441416 128.222222,70.2903226 C128.222222,71.9971436 126.82835,73.3870968 125.10892,73.3870968 L119.666667,73.3870968 L119.666667,74.1612903 L125.111547,74.1612903 C127.25908,74.1612903 129,72.4238489 129,70.2903226 C129,68.6672884 127.999226,67.2775542 126.57556,66.7023304 L126.57556,66.7023304 C126.168906,64.7720641 124.448954,63.3225806 122.388889,63.3225806 C121.717746,63.3225806 121.082701,63.4764251 120.517406,63.7506181 C119.58203,62.1082184 117.809922,61 115.777778,61 C112.770894,61 110.333333,63.4263277 110.333333,66.4193548 C110.333333,66.5263104 110.336446,66.6325422 110.342586,66.7379655 L110.342586,66.7379655 C108.964179,67.3341485 108,68.7025531 108,70.2903226 C108,72.428199 109.736384,74.1612903 111.888453,74.1612903 L117.333333,74.1612903 L117.333333,73.3870968 L117.333333,73.3870968 L117.333333,73.3870968 L117.333333,73.3870968 Z" id="cloud-download"></path>
            </g>
        </g>
    </g>
</svg>
