<?xml version="1.0" encoding="UTF-8" standalone="no"?>
<svg width="16px" height="18px" viewBox="0 0 16 18" version="1.1" xmlns="http://www.w3.org/2000/svg" xmlns:xlink="http://www.w3.org/1999/xlink">
    <title>Document</title>
    <defs></defs>
    <g id="Listing-(Mobile)" stroke="none" stroke-width="1" fill="none" fill-rule="evenodd">
        <g id="Listing---Mobile" transform="translate(-30.000000, -2310.000000)" fill="currentColor">
            <g id="Options" transform="translate(14.000000, 2245.000000)">
                <path d="M31.3784286,70.5382143 C31.3456429,70.4597857 31.2987143,70.3897143 31.2395714,70.3305714 L26.098,65.189 C26.0388571,65.1298571 25.9687857,65.0829286 25.8903571,65.0501429 C25.8125714,65.0173571 25.729,65 25.6428571,65 L16.6428571,65 C16.288,65 16,65.288 16,65.6428571 C16,65.9977143 16.288,66.2857143 16.6428571,66.2857143 L25,66.2857143 L25,70.7857143 C25,71.1405714 25.2873571,71.4285714 25.6428571,71.4285714 L30.1428571,71.4285714 L30.1428571,81.7142857 L17.2857143,81.7142857 L17.2857143,68.2142857 C17.2857143,67.8594286 16.9977143,67.5714286 16.6428571,67.5714286 C16.288,67.5714286 16,67.8594286 16,68.2142857 L16,82.3571429 C16,82.7126429 16.288,83 16.6428571,83 L30.7857143,83 C31.1412143,83 31.4285714,82.7126429 31.4285714,82.3571429 L31.4285714,70.7857143 C31.4285714,70.7002143 31.4112143,70.616 31.3784286,70.5382143 L31.3784286,70.5382143 Z M26.2857143,67.1947143 L29.2338571,70.1428571 L26.2857143,70.1428571 L26.2857143,67.1947143 L26.2857143,67.1947143 Z" id="File-Icon"></path>
            </g>
        </g>
    </g>
</svg>
