<?xml version="1.0" encoding="UTF-8" standalone="no"?>
<svg width="18px" height="18px" viewBox="0 0 18 18" version="1.1" xmlns="http://www.w3.org/2000/svg" xmlns:xlink="http://www.w3.org/1999/xlink">
    <title>Alert</title>
    <defs></defs>
    <g id="Symbols" stroke="none" stroke-width="1" fill="none" fill-rule="evenodd">
        <g id="Universal-Header---Logged-In-(Dashboard2)" transform="translate(-1003.000000, -21.000000)" fill="currentColor">
            <g id="Notifications">
                <g transform="translate(989.000000, 6.000000)">
                    <path d="M31.9009414,30.097626 L29.9230018,27.0363147 L29.9230018,22.7143501 C29.9230018,19.3862509 27.1855944,16.6418708 23.6921806,16.318511 L23.6921806,15.6428625 C23.6921806,15.2880024 23.3820242,15 22.9998671,15 C22.6177101,15 22.3075537,15.2880024 22.3075537,15.6428625 L22.3075537,16.9285875 C22.3075537,17.2834476 22.6177101,17.57145 22.9998671,17.57145 C26.0536619,17.57145 28.5383749,19.8786836 28.5383749,22.7143501 L28.5383749,27.2143876 C28.5383749,27.3313886 28.5722982,27.4451753 28.6373757,27.5454618 L30.0843109,29.7858376 L15.9147311,29.7858376 L17.3623586,27.5454618 C17.427436,27.4451753 17.4613594,27.3313886 17.4613594,27.2143876 L17.4613594,22.7143501 C17.4613594,20.7349764 18.7075236,18.908604 20.6356166,18.0613113 C20.9810811,17.9095957 21.1285438,17.5264496 20.9651579,17.2050184 C20.8017719,16.88423 20.3891531,16.7473003 20.0429963,16.8990158 C17.6337455,17.9578104 16.0767325,20.2399723 16.0767325,22.7143501 L16.0767325,27.0363147 L14.0987929,30.0982688 C13.9700226,30.2969133 13.9672533,30.5437725 14.0897928,30.7462742 C14.2123323,30.9474902 14.4428727,31.0715627 14.6921055,31.0715627 L20.3289218,31.0715627 C20.6383859,32.177929 21.7135487,33.0001502 22.9998671,33.0001502 C24.2868779,33.0001502 25.3613484,32.177929 25.6708125,31.0715627 L31.3076288,31.0715627 C31.5568616,31.0715627 31.7867097,30.9474902 31.9099415,30.7456314 C32.0331733,30.5437725 32.0297117,30.2962705 31.9009414,30.097626 L31.9009414,30.097626 Z M22.9998671,31.7144252 C22.4896321,31.7144252 22.0479361,31.4540658 21.8077034,31.0715627 L24.1913386,31.0715627 C23.9517982,31.4540658 23.5101022,31.7144252 22.9998671,31.7144252 L22.9998671,31.7144252 Z" id="Shape"></path>
                </g>
            </g>
        </g>
    </g>
</svg>
