<?xml version="1.0" encoding="UTF-8" standalone="no"?>
<svg width="140px" height="140px" viewBox="0 0 140 140" version="1.1" xmlns="http://www.w3.org/2000/svg" xmlns:xlink="http://www.w3.org/1999/xlink">
    <title>Moving home</title>
    <defs></defs>
    <g id="Marketing-Site" stroke="none" stroke-width="1" fill="none" fill-rule="evenodd">
        <g id="Home" transform="translate(-650.000000, -940.000000)">
            <g id="Moving-home-is-hard." transform="translate(423.000000, 940.000000)">
                <g id="Illustraiton-1" transform="translate(227.000000, 0.000000)">
                    <g id="Слой_1">
                        <circle id="Oval" fill="#F6EEB1" cx="70" cy="70" r="70"></circle>
                        <g id="Group" transform="translate(6.774194, 32.741935)">
                            <rect id="Rectangle-path" fill="#FFF7E7" x="8.46774194" y="41.4354839" width="89.5322581" height="64.2419355"></rect>
                            <rect id="Rectangle-path" fill="#FFFFFF" x="8.46774194" y="41.4354839" width="7.11290323" height="64.2419355"></rect>
                            <path d="M19.7580645,105.790323 L19.7580645,64.016129 C19.7580645,61.1935484 22.016129,58.9354839 24.8387097,58.9354839 L39.2903226,58.9354839 C42.1129032,58.9354839 44.3709677,61.1935484 44.3709677,64.016129 L44.3709677,105.677419" id="Shape" fill="#288CA3"></path>
                            <path d="M62.0967742,88.1774194 L81.1774194,88.1774194 C84,88.1774194 86.2580645,85.9193548 86.2580645,83.0967742 L86.2580645,64.016129 C86.2580645,61.1935484 84,58.9354839 81.1774194,58.9354839 L62.0967742,58.9354839 C59.2741935,58.9354839 57.016129,61.1935484 57.016129,64.016129 L57.016129,83.0967742 C57.016129,85.9193548 59.2741935,88.1774194 62.0967742,88.1774194 L62.0967742,88.1774194 Z" id="Shape" fill="#95D6DD"></path>
                            <path d="M70.2258065,12.1935484 L70.2258065,7.11290323 C70.2258065,4.29032258 72.483871,2.03225806 75.3064516,2.03225806 L78.016129,2.03225806 C80.8387097,2.03225806 83.0967742,4.29032258 83.0967742,7.11290323 L83.0967742,12.1935484" id="Shape" fill="#A5A4AA"></path>
                            <path d="M102.290323,41.4354839 L116.741935,41.4354839 C120.241935,41.4354839 122.612903,38.0483871 121.483871,34.7741935 L114.822581,15.6935484 C114.145161,13.6612903 112.225806,12.3064516 110.080645,12.3064516 L14.3387097,12.3064516 C12.1935484,12.3064516 10.2741935,13.6612903 9.59677419,15.6935484 L2.93548387,34.7741935 C1.80645161,38.0483871 4.29032258,41.4354839 7.67741935,41.4354839 L102.290323,41.4354839 L102.290323,41.4354839 Z" id="Shape" fill="#917E8E"></path>
                            <path d="M14.3387097,12.1935484 C12.1935484,12.1935484 10.2741935,13.5483871 9.59677419,15.5806452 L2.93548387,34.6612903 C1.80645161,37.9354839 4.29032258,41.3225806 7.67741935,41.3225806 L14.7903226,41.3225806 C11.2903226,41.3225806 8.91935484,37.9354839 10.0483871,34.6612903 L16.7096774,15.5806452 C17.3870968,13.5483871 19.3064516,12.1935484 21.4516129,12.1935484 L110.193548,12.1935484 L110.193548,12.1935484 L14.3387097,12.1935484 L14.3387097,12.1935484 Z" id="Shape" fill="#FFFFFF"></path>
                            <path d="M62.0967742,89.7580645 L81.1774194,89.7580645 C84.7903226,89.7580645 87.7258065,86.8225806 87.7258065,83.2096774 L87.7258065,64.016129 C87.7258065,60.4032258 84.7903226,57.4677419 81.1774194,57.4677419 L62.0967742,57.4677419 C58.483871,57.4677419 55.5483871,60.4032258 55.5483871,64.016129 L55.5483871,83.0967742 C55.4354839,86.8225806 58.483871,89.7580645 62.0967742,89.7580645 L62.0967742,89.7580645 Z M58.483871,64.016129 C58.483871,62.0967742 60.0645161,60.516129 61.983871,60.516129 L81.0645161,60.516129 C82.983871,60.516129 84.5645161,62.0967742 84.5645161,64.016129 L84.5645161,83.0967742 C84.5645161,85.016129 82.983871,86.5967742 81.0645161,86.5967742 L62.0967742,86.5967742 C60.1774194,86.5967742 58.5967742,85.016129 58.5967742,83.0967742 L58.5967742,64.016129 L58.483871,64.016129 Z" id="Shape" fill="#62355C"></path>
                            <path d="M118.774194,86.7096774 L99.5806452,86.7096774 L99.5806452,42.9032258 L116.741935,42.9032258 C118.887097,42.9032258 120.806452,41.8870968 122.048387,40.1935484 C123.290323,38.3870968 123.629032,36.2419355 122.951613,34.2096774 L116.290323,15.1290323 C115.387097,12.5322581 112.903226,10.7258065 110.080645,10.7258065 L84.5645161,10.7258065 L84.5645161,7.22580645 C84.5645161,3.61290323 81.6290323,0.677419355 78.016129,0.677419355 L75.3064516,0.677419355 C71.6935484,0.677419355 68.7580645,3.61290323 68.7580645,7.22580645 L68.7580645,10.7258065 L14.3387097,10.7258065 C11.516129,10.7258065 9.03225806,12.5322581 8.12903226,15.1290323 L1.46774194,34.2096774 C0.790322581,36.2419355 1.12903226,38.3870968 2.37096774,40.1935484 C3.5,41.7741935 5.08064516,42.6774194 7,42.9032258 L7,104.209677 L2.70967742,104.209677 C1.91935484,104.209677 1.24193548,104.887097 1.24193548,105.677419 C1.24193548,106.467742 1.91935484,107.145161 2.70967742,107.145161 L19.8709677,107.145161 L19.8709677,107.145161 L19.8709677,107.145161 L44.483871,107.145161 L44.483871,107.145161 L44.483871,107.145161 L118.887097,107.145161 C122.5,107.145161 125.435484,104.209677 125.435484,100.596774 L125.435484,93.1451613 C125.322581,89.6451613 122.387097,86.7096774 118.774194,86.7096774 L118.774194,86.7096774 Z M114.258065,89.7580645 L114.258065,104.209677 L109.177419,104.209677 L109.177419,89.7580645 L114.258065,89.7580645 L114.258065,89.7580645 Z M106.129032,89.7580645 L106.129032,104.209677 L99.5806452,104.209677 L99.5806452,89.7580645 L106.129032,89.7580645 L106.129032,89.7580645 Z M71.8064516,7.11290323 C71.8064516,5.19354839 73.3870968,3.61290323 75.3064516,3.61290323 L78.016129,3.61290323 C79.9354839,3.61290323 81.516129,5.19354839 81.516129,7.11290323 L81.516129,10.6129032 L71.6935484,10.6129032 L71.6935484,7.11290323 L71.8064516,7.11290323 Z M4.85483871,38.5 C4.17741935,37.5967742 4.06451613,36.3548387 4.40322581,35.3387097 L11.0645161,16.2580645 C11.516129,14.7903226 12.8709677,13.8870968 14.4516129,13.8870968 L110.193548,13.8870968 C111.66129,13.8870968 113.016129,14.7903226 113.580645,16.2580645 L120.241935,35.3387097 C120.580645,36.4677419 120.467742,37.5967742 119.790323,38.5 C119.112903,39.4032258 118.096774,39.9677419 116.967742,39.9677419 L7.67741935,39.9677419 C6.5483871,39.9677419 5.53225806,39.4032258 4.85483871,38.5 L4.85483871,38.5 Z M10.0483871,42.9032258 L96.5322581,42.9032258 L96.5322581,104.209677 L45.8387097,104.209677 L45.8387097,64.016129 C45.8387097,60.4032258 42.9032258,57.4677419 39.2903226,57.4677419 L24.8387097,57.4677419 C21.2258065,57.4677419 18.2903226,60.4032258 18.2903226,64.016129 L18.2903226,104.209677 L10.0483871,104.209677 L10.0483871,42.9032258 L10.0483871,42.9032258 Z M42.7903226,104.209677 L21.2258065,104.209677 L21.2258065,64.016129 C21.2258065,62.0967742 22.8064516,60.516129 24.7258065,60.516129 L39.1774194,60.516129 C41.0967742,60.516129 42.6774194,62.0967742 42.6774194,64.016129 L42.6774194,104.209677 L42.7903226,104.209677 Z M122.274194,100.709677 C122.274194,102.629032 120.693548,104.209677 118.774194,104.209677 L117.306452,104.209677 L117.306452,89.7580645 L118.774194,89.7580645 C120.693548,89.7580645 122.274194,91.3387097 122.274194,93.2580645 L122.274194,100.709677 L122.274194,100.709677 Z" id="Shape" fill="#62355C"></path>
                            <path d="M86.2580645,35.9032258 L19.7580645,35.9032258 C18.8548387,35.9032258 18.1774194,35.2258065 18.1774194,34.3225806 C18.1774194,33.4193548 18.8548387,32.7419355 19.7580645,32.7419355 L86.2580645,32.7419355 C87.1612903,32.7419355 87.8387097,33.4193548 87.8387097,34.3225806 C87.8387097,35.2258065 87.0483871,35.9032258 86.2580645,35.9032258 L86.2580645,35.9032258 Z" id="Shape" fill="#62355C"></path>
                        </g>
                    </g>
                </g>
            </g>
        </g>
    </g>
</svg>
