<?xml version="1.0" encoding="UTF-8" standalone="no"?>
<svg width="24px" height="16px" viewBox="0 0 24 16" version="1.1" xmlns="http://www.w3.org/2000/svg" xmlns:xlink="http://www.w3.org/1999/xlink">
    <title>Property activity</title>
    <defs></defs>
    <g id="Account---On-the-market" stroke="none" stroke-width="1" fill="none" fill-rule="evenodd">
        <g id="Property---4.0-On-the-market---Activity" transform="translate(-48.000000, -231.000000)" fill="currentColor">
            <g id="Activity" transform="translate(48.000000, 230.000000)">
                <path d="M22.6666667,1 C22.0913333,1 21.6013333,1.39781818 21.414,1.952 L17.3306667,14.0909091 L14.5,5.80145455 C14.1226667,4.69890909 13.146,3.90909091 12,3.90909091 C10.7393333,3.90909091 9.682,4.86327273 9.406,6.14763636 L8,12.6334545 L6.466,8.61090909 C6.06266667,7.55709091 5.10933333,6.81527273 4,6.81527273 C2.91666667,6.81527273 1.98466667,7.52 1.56533333,8.53381818 L0.117333333,12.0392727 C0.042,12.2218182 0,12.4232727 0,12.6363636 C0,13.44 0.596666667,14.0909091 1.33333333,14.0909091 C1.87466667,14.0909091 2.33866667,13.7389091 2.54933333,13.2327273 L4,9.72727273 L5.53666667,13.7498182 C5.938,14.8007273 6.89066667,15.5425455 8,15.5425455 C9.26066667,15.5425455 10.318,14.5854545 10.594,13.304 L12,6.81818182 L14.8333333,15.1076364 C15.2133333,16.2130909 16.1873333,17 17.3333333,17 C18.4866667,17 19.466,16.2014545 19.8386667,15.088 L23.9193333,2.95418182 C23.9713333,2.80072727 24,2.63054545 24,2.45381818 C24,1.65090909 23.404,1 22.6666667,1 L22.6666667,1 Z" id="Shape"></path>
            </g>
        </g>
    </g>
</svg>
