<?xml version="1.0" encoding="UTF-8" standalone="no"?>
<svg width="38px" height="48px" viewBox="0 0 38 48" version="1.1" xmlns="http://www.w3.org/2000/svg" xmlns:xlink="http://www.w3.org/1999/xlink">
    <title>Downloadable PDF</title>
    <defs></defs>
    <g id="Book-a-Valuation" stroke="none" stroke-width="1" fill="none" fill-rule="evenodd">
        <g id="[Book-a-Valuation]-Final" transform="translate(-380.000000, -876.000000)">
            <g id="Download-PDF" transform="translate(350.000000, 846.000000)">
                <g id="1471213656_file-expand_Pdf" transform="translate(30.000000, 30.000000)">
                    <g id="Pdf">
                        <g id="Group">
                            <path d="M34.2,48 L3.8,48 C1.70468,48 0,46.2634839 0,44.1290323 L0,3.87096774 C0,1.73651613 1.70468,0 3.8,0 L19.26106,0 C20.27604,0 21.2306,0.402967742 21.94766,1.13380645 L36.88698,16.352129 C37.6048,17.0833548 38,18.0549677 38,19.0889032 L38,44.1290323 C38,46.2634839 36.29532,48 34.2,48 L34.2,48 Z M3.8,1.5483871 C2.54258,1.5483871 1.52,2.59006452 1.52,3.87096774 L1.52,44.1290323 C1.52,45.4099355 2.54258,46.4516129 3.8,46.4516129 L34.2,46.4516129 C35.45742,46.4516129 36.48,45.4099355 36.48,44.1290323 L36.48,19.0889032 C36.48,18.4776774 36.23642,17.8792258 35.81234,17.4468387 L20.87302,2.22851613 C20.44248,1.78993548 19.86982,1.5483871 19.26106,1.5483871 L3.8,1.5483871 L3.8,1.5483871 Z" id="Shape" fill="#FD4233"></path>
                            <path d="M30.8598,30.3174194 C30.8332,30.12 30.6774,29.8722581 30.5102,29.7058065 C30.0314,29.2258065 28.9788,28.9741935 27.3752,28.9509677 C26.2884,28.9393548 24.9812,29.036129 23.6056,29.2335484 C22.99,28.8735484 22.3554,28.4787097 21.8576,28.0025806 C20.5162,26.7290323 19.399,24.96 18.6998,23.0129032 C18.7454,22.8309677 18.7834,22.6722581 18.8214,22.5096774 C18.8214,22.5096774 19.5738,18.1432258 19.3762,16.6645161 C19.3496,16.4632258 19.3306,16.4051613 19.2774,16.2464516 L19.2128,16.076129 C19.0076,15.5922581 18.6048,15.0812903 17.974,15.1083871 L17.6016,15.0967742 L17.594,15.0967742 C16.8872,15.0967742 16.3172,15.4645161 16.1652,16.0103226 C15.7092,17.7290323 16.1804,20.3032258 17.0354,23.6322581 L16.815,24.1741935 C16.2032,25.6993548 15.4356,27.2322581 14.7592,28.5832258 L14.6718,28.7574194 C13.9574,30.1780645 13.3114,31.3858065 12.7224,32.4077419 L12.1182,32.7329032 C12.0726,32.756129 11.0352,33.3174194 10.792,33.4645161 C8.7286,34.7225806 7.3606,36.1470968 7.1326,37.2774194 C7.0604,37.6412903 7.1136,38.1019355 7.4822,38.3148387 L8.0674,38.6167742 C8.322,38.7445161 8.5918,38.8103226 8.8654,38.8103226 C10.336,38.8103226 12.0422,36.9445161 14.3944,32.763871 C17.1076,31.8658065 20.2008,31.1148387 22.9102,30.7045161 C24.9736,31.8851613 27.512,32.7096774 29.1156,32.7096774 C29.4006,32.7096774 29.6476,32.6825806 29.8452,32.6283871 C30.153,32.5432258 30.4114,32.3651613 30.571,32.1251613 C30.8826,31.6490323 30.9434,30.9909677 30.8598,30.3174194 L30.8598,30.3174194 Z M8.5462,37.676129 C8.8122,36.9290323 9.8762,35.4503226 11.4456,34.1419355 C11.5444,34.0606452 11.7876,33.8283871 12.008,33.6116129 C10.3664,36.2787097 9.2682,37.3393548 8.5462,37.676129 L8.5462,37.676129 Z M17.841,15.8709677 C18.3122,15.8709677 18.582,17.0825806 18.6048,18.2206452 C18.6276,19.3587097 18.3654,20.156129 18.0424,20.7483871 C17.7726,19.8735484 17.6434,18.4954839 17.6434,17.5935484 C17.6434,17.5935484 17.6244,15.8709677 17.841,15.8709677 L17.841,15.8709677 Z M15.067,31.4090323 C15.3976,30.8090323 15.7396,30.1741935 16.0892,29.5045161 C16.9442,27.8593548 17.4838,26.5741935 17.8828,25.5174194 C18.6808,26.996129 19.6764,28.2541935 20.843,29.2606452 C20.9912,29.3845161 21.147,29.5122581 21.3066,29.64 C18.9316,30.116129 16.8758,30.7006452 15.067,31.4090323 L15.067,31.4090323 Z M30.0504,31.2735484 C29.906,31.3625806 29.4918,31.4167742 29.2258,31.4167742 C28.367,31.4167742 27.2992,31.0180645 25.8058,30.363871 C26.3796,30.3212903 26.9078,30.2980645 27.379,30.2980645 C28.2416,30.2980645 28.4962,30.2941935 29.3436,30.5148387 C30.1872,30.7354839 30.1986,31.1806452 30.0504,31.2735484 L30.0504,31.2735484 Z" id="Shape" fill="#FF402F"></path>
                        </g>
                    </g>
                </g>
            </g>
        </g>
    </g>
</svg>
