<?xml version="1.0" encoding="UTF-8" standalone="no"?>
<svg width="78px" height="52px" viewBox="0 0 78 52" version="1.1" xmlns="http://www.w3.org/2000/svg" xmlns:xlink="http://www.w3.org/1999/xlink">
    <title>Check mark</title>
    <defs></defs>
    <g id="Marketing-Site" stroke="none" stroke-width="1" fill="none" fill-rule="evenodd">
        <g id="Home" transform="translate(-681.000000, -4728.000000)" fill="currentColor">
            <g id="Why-you'll-love-us" transform="translate(124.000000, 4247.000000)">
                <g id="Simple,-Low-Cost" transform="translate(427.000000, 480.000000)">
                    <g id="Group" transform="translate(129.000000, 0.000000)">
                        <path d="M18.1428571,41.4444444 C17.4114286,41.4444444 16.68,41.1613333 16.1228571,40.598 L1.83714286,26.1535556 C0.72,25.024 0.72,23.1982222 1.83714286,22.0686667 C2.95428571,20.9391111 4.76,20.9391111 5.87714286,22.0686667 L20.1628571,36.5131111 C21.28,37.6426667 21.28,39.4684444 20.1628571,40.598 C19.6057143,41.1613333 18.8742857,41.4444444 18.1428571,41.4444444 L18.1428571,41.4444444 Z" id="Shape"></path>
                        <path d="M29.5714286,53 C28.84,53 28.1085714,52.7168889 27.5514286,52.1535556 C26.4342857,51.024 26.4342857,49.1982222 27.5514286,48.0686667 L73.2657143,1.84644444 C74.3828571,0.716888889 76.1885714,0.716888889 77.3057143,1.84644444 C78.4228571,2.976 78.4228571,4.80177778 77.3057143,5.93133333 L31.5914286,52.1535556 C31.0342857,52.7168889 30.3028571,53 29.5714286,53 L29.5714286,53 Z" id="Shape"></path>
                    </g>
                </g>
            </g>
        </g>
    </g>
</svg>
