<?xml version="1.0" encoding="UTF-8" standalone="no"?>
<svg width="18px" height="18px" viewBox="0 0 18 18" version="1.1" xmlns="http://www.w3.org/2000/svg" xmlns:xlink="http://www.w3.org/1999/xlink">
    <title>Clock</title>
    <defs></defs>
    <g id="Account---On-the-market" stroke="none" stroke-width="1" fill="none" fill-rule="evenodd">
        <g id="Property---4.0-On-the-market---Viewings" transform="translate(-660.000000, -225.000000)" fill="currentColor">
            <g id="Viewing" transform="translate(563.000000, 168.000000)">
                <g id="Date/Time" transform="translate(97.000000, 54.000000)">
                    <g id="Clock" transform="translate(0.000000, 3.000000)">
                        <path d="M9.31034483,18 C6.98896552,18 4.80724138,17.064 3.16613793,15.3636429 C0.483517241,12.5858571 -0.153931034,8.37321429 1.58089655,4.8825 C1.73793103,4.56685714 2.11158621,4.44278571 2.41696552,4.60478571 C2.72234483,4.76678571 2.84213793,5.15442857 2.68510345,5.47071429 C1.19793103,8.46257143 1.74413793,12.0728571 4.0437931,14.4546429 C5.45027586,15.912 7.32041379,16.7142857 9.31034483,16.7142857 C11.2996552,16.7142857 13.1704138,15.912 14.5768966,14.4546429 C15.9833793,12.9972857 16.7586207,11.0603571 16.7586207,9 C16.7586207,6.939 15.984,5.00207143 14.5768966,3.54535714 C13.1697931,2.08864286 11.3002759,1.28571429 9.31034483,1.28571429 C7.32041379,1.28571429 5.45027586,2.08864286 4.0437931,3.54535714 C3.80110345,3.79671429 3.40882759,3.79671429 3.16613793,3.54535714 C2.92344828,3.294 2.92344828,2.88771429 3.16613793,2.63635714 C4.80724138,0.936642857 6.98896552,0 9.31034483,0 C11.6317241,0 13.814069,0.936642857 15.4545517,2.63635714 C17.0962759,4.33607143 18,6.59571429 18,9 C18,11.4036429 17.0962759,13.6639286 15.4545517,15.3636429 C13.814069,17.064 11.6317241,18 9.31034483,18 L9.31034483,18 Z" id="Shape"></path>
                        <path d="M12.4131724,12.2142857 C12.2772414,12.2142857 12.1406897,12.1686429 12.0258621,12.0735 L8.92241379,9.50207143 C8.77531034,9.37992857 8.68965517,9.19542857 8.68965517,9 L8.68965517,3.85714286 C8.68965517,3.50228571 8.96772414,3.21428571 9.31034483,3.21428571 C9.65296552,3.21428571 9.93103448,3.50228571 9.93103448,3.85714286 L9.93103448,8.69142857 L12.8017241,11.0693571 C13.0692414,11.2917857 13.1126897,11.6961429 12.8985517,11.9732143 C12.7756552,12.1313571 12.5956552,12.2142857 12.4131724,12.2142857 L12.4131724,12.2142857 Z" id="Shape"></path>
                    </g>
                </g>
            </g>
        </g>
    </g>
</svg>
