<?xml version="1.0" encoding="UTF-8" standalone="no"?>
<svg width="18px" height="18px" viewBox="0 0 18 18" version="1.1" xmlns="http://www.w3.org/2000/svg" xmlns:xlink="http://www.w3.org/1999/xlink">
    <title>Check with circle outline</title>
    <defs></defs>
    <g id="Book-a-Viewing" stroke="none" stroke-width="1" fill="none" fill-rule="evenodd">
        <g id="3.2:-[Alone]-ID-Check---Verified" transform="translate(-430.000000, -502.000000)" fill="currentColor">
            <g id="Taiyab-Raja" transform="translate(284.000000, 482.000000)">
                <g id="Check" transform="translate(146.000000, 20.000000)">
                    <g id="circle_check">
                        <path d="M9,0 C4.02954545,0 0,4.02934091 0,9 C0,13.9706591 4.02954545,18 9,18 C13.9704545,18 18,13.9706591 18,9 C18,4.02934091 13.9704545,0 9,0 L9,0 Z M9,16.3636364 C4.93322727,16.3636364 1.63636364,13.0667727 1.63636364,9 C1.63636364,4.93322727 4.93322727,1.63636364 9,1.63636364 C13.0667727,1.63636364 16.3636364,4.93322727 16.3636364,9 C16.3636364,13.0667727 13.0667727,16.3636364 9,16.3636364 L9,16.3636364 Z" id="Shape"></path>
                        <path d="M12.3308182,6.78477273 C12.0113182,6.46547727 11.4932045,6.46547727 11.1737045,6.78477273 L8.28102273,9.67765909 L7.12390909,8.52054545 C6.80440909,8.20104545 6.2865,8.20104545 5.96679545,8.52054545 C5.64729545,8.84004545 5.64729545,9.35815909 5.96679545,9.67786364 L7.70215909,11.4130227 C8.02165909,11.7325227 8.53997727,11.7325227 8.85947727,11.4130227 L12.3306136,7.94188636 C12.6503182,7.62238636 12.6507273,7.10447727 12.3308182,6.78477273 L12.3308182,6.78477273 Z" id="Shape"></path>
                    </g>
                </g>
            </g>
        </g>
    </g>
</svg>
