<?xml version="1.0" encoding="UTF-8" standalone="no"?>
<svg width="68px" height="80px" viewBox="0 0 68 80" version="1.1" xmlns="http://www.w3.org/2000/svg" xmlns:xlink="http://www.w3.org/1999/xlink">
    <title>Page</title>
    <defs></defs>
    <g id="Marketing-Site" stroke="none" stroke-width="1" fill="none" fill-rule="evenodd">
        <g id="Home" transform="translate(-1113.000000, -4714.000000)" fill="currentColor">
            <g id="Why-you'll-love-us" transform="translate(124.000000, 4247.000000)">
                <g id="No-paperwork" transform="translate(853.000000, 467.000000)">
                    <path d="M203.779,24.6142857 C203.6345,24.2657143 203.427667,23.9542857 203.167,23.6914286 L180.506,0.84 C180.245333,0.577142857 179.9365,0.368571429 179.590833,0.222857143 C179.248,0.0771428571 178.879667,0 178.5,0 L138.833333,0 C137.269333,0 136,1.28 136,2.85714286 C136,4.43428571 137.269333,5.71428571 138.833333,5.71428571 L175.666667,5.71428571 L175.666667,25.7142857 C175.666667,27.2914286 176.933167,28.5714286 178.5,28.5714286 L198.333333,28.5714286 L198.333333,74.2857143 L141.666667,74.2857143 L141.666667,14.2857143 C141.666667,12.7085714 140.397333,11.4285714 138.833333,11.4285714 C137.269333,11.4285714 136,12.7085714 136,14.2857143 L136,77.1428571 C136,78.7228571 137.269333,80 138.833333,80 L201.166667,80 C202.7335,80 204,78.7228571 204,77.1428571 L204,25.7142857 C204,25.3342857 203.9235,24.96 203.779,24.6142857 L203.779,24.6142857 Z M181.333333,9.75428571 L194.327,22.8571429 L181.333333,22.8571429 L181.333333,9.75428571 L181.333333,9.75428571 Z" id="Shape"></path>
                </g>
            </g>
        </g>
    </g>
</svg>
