<?xml version="1.0" encoding="UTF-8" standalone="no"?>
<svg width="16px" height="15px" viewBox="0 0 16 15" version="1.1" xmlns="http://www.w3.org/2000/svg" xmlns:xlink="http://www.w3.org/1999/xlink">
    <title>Message bubble</title>
    <defs></defs>
    <g id="Account---On-the-market" stroke="none" stroke-width="1" fill="none" fill-rule="evenodd">
        <g id="Property---4.0-On-the-market---Activity" transform="translate(-705.000000, -312.000000)" fill="currentColor">
            <g id="Timeline" transform="translate(563.000000, 120.000000)">
                <g id="JW---Offer" transform="translate(1.000000, 0.000000)">
                    <g id="Feedback-(History)" transform="translate(131.000000, 173.000000)">
                        <path d="M18.0000095,20.7142735 C21.7142997,20.7142735 24.8571606,22.8035617 24.8571606,25.2857075 C24.8571606,27.7678533 21.7142997,29.8571415 18.0000095,29.8571415 C17.6160805,29.8571415 17.2232229,29.8303557 16.8392939,29.7857128 L16.3303647,29.7321413 L15.9464357,30.0714275 C15.2142919,30.7142854 14.3928624,31.2232146 13.4910756,31.598215 C13.7232187,31.1875002 13.9464333,30.6964282 14.1160763,30.0624989 L14.3571481,29.205355 L13.5803614,28.7589259 C12.0357167,27.8839249 11.1428585,26.6160662 11.1428585,25.2857075 C11.1428585,22.8035617 14.2857194,20.7142735 18.0000095,20.7142735 L18.0000095,20.7142735 Z M26.0000191,25.2857075 C26.0000191,22.1249894 22.4196577,19.5714149 18.0000095,19.5714149 C13.5803614,19.5714149 10,22.1249894 10,25.2857075 C10,27.0982096 11.1785728,28.714283 13.0178607,29.7589271 C12.5982174,31.2500003 11.9553595,31.7857152 11.3928588,32.4196445 C11.2589301,32.580359 11.1071442,32.7142878 11.1517871,32.9375023 C11.1517871,32.9375023 11.1517871,32.9375023 11.1517871,32.9464309 C11.19643,33.1428597 11.3571445,33.285717 11.5357161,33.285717 L11.580359,33.285717 C11.9285737,33.2410741 12.2767884,33.178574 12.5982174,33.0892882 C14.1428621,32.6964306 15.5357209,31.9642869 16.7053651,30.9285713 C17.1250085,30.9732143 17.562509,31 18.0000095,31 C22.4196577,31 26.0000191,28.4464255 26.0000191,25.2857075 L26.0000191,25.2857075 Z" id=""></path>
                    </g>
                </g>
            </g>
        </g>
    </g>
</svg>
