<?xml version="1.0" encoding="UTF-8" standalone="no"?>
<svg width="24px" height="23px" viewBox="0 0 24 23" version="1.1" xmlns="http://www.w3.org/2000/svg" xmlns:xlink="http://www.w3.org/1999/xlink">
    <title>Login</title>
    <defs></defs>
    <g id="Symbols" stroke="none" stroke-width="1" fill="none" fill-rule="evenodd">
        <g id="Universal-Header---Logged-Out" transform="translate(-1165.000000, -19.000000)" fill="currentColor">
            <g id="Login">
                <g transform="translate(1165.000000, 19.000000)">
                    <path d="M17.0974286,11.3568889 C18.1877143,10.1498148 18.8571429,8.56025926 18.8571429,6.81481481 C18.8571429,3.0572963 15.7808571,0 12,0 C8.21914286,0 5.14285714,3.0572963 5.14285714,6.81481481 C5.14285714,10.5723333 8.21914286,13.6296296 12,13.6296296 C13.3328571,13.6296296 14.574,13.2437407 15.6282857,12.586963 C19.3568571,13.9831481 21.924,17.3743704 22.2505714,21.2962963 L1.75028571,21.2962963 C1.97228571,18.6564074 3.21857143,16.1945556 5.24571429,14.438037 C5.60314286,14.1288148 5.64,13.5912963 5.32885714,13.2360741 C5.01857143,12.8817037 4.47685714,12.8442222 4.11942857,13.1534444 C1.50085714,15.4210741 0,18.699 0,22.1481481 C0,22.6192222 0.384,23 0.857142857,23 L23.1428571,23 C23.6168571,23 24,22.6192222 24,22.1481481 C24,17.4748889 21.2742857,13.3016667 17.0974286,11.3568889 L17.0974286,11.3568889 Z M6.85714286,6.81481481 C6.85714286,3.99603704 9.16371429,1.7037037 12,1.7037037 C14.8362857,1.7037037 17.1428571,3.99603704 17.1428571,6.81481481 C17.1428571,9.63359259 14.8362857,11.9259259 12,11.9259259 C9.16371429,11.9259259 6.85714286,9.63359259 6.85714286,6.81481481 L6.85714286,6.81481481 Z" id="Shape"></path>
                </g>
            </g>
        </g>
    </g>
</svg>
