<?xml version="1.0" encoding="UTF-8" standalone="no"?>
<svg width="44px" height="44px" viewBox="0 0 44 44" version="1.1" xmlns="http://www.w3.org/2000/svg" xmlns:xlink="http://www.w3.org/1999/xlink">
    <title>Pets</title>
    <defs></defs>
    <g id="Seller-Instruction-(New)" stroke="none" stroke-width="1" fill="none" fill-rule="evenodd">
        <g id="4.1:-Housekeeping" transform="translate(-30.000000, -506.000000)">
            <g id="1468867938_3034_-_Pet" transform="translate(23.000000, 499.000000)">
                <g id="Layer_x0020_1">
                    <path d="M50.0419872,40.4840959 C50.6388341,43.0374478 50.5648135,45.0057082 50.0282452,46.4943583 C49.6547881,47.5306136 49.0635866,48.3315997 48.318625,48.9330307 C47.586681,49.5239362 46.7164588,49.9131603 45.7673303,50.1374101 C43.5036196,50.6721858 40.753225,50.2547817 38.4293418,49.4171836 C37.5425863,49.0976989 36.7224111,48.7221509 36.018315,48.3192212 C35.5998477,48.0797651 35.2145415,47.8266009 34.8719835,47.5653699 C34.1163068,48.3239679 32.7943214,49.5133114 31.720219,49.7562866 L31.7208165,49.7589753 C31.6809514,49.7679706 31.6411195,49.7741114 31.6014872,49.7776631 C29.8260793,50.0639875 20.053693,49.8732926 20.0248587,49.8727285 L20.0388994,48.9769097 L20.0215393,49.8760504 C19.774615,49.8713038 19.5529173,49.7674421 19.3935235,49.6031693 C18.8659177,49.1282737 15.1035636,45.5148891 21.697501,44.5905648 C21.2031878,43.4832017 20.6102545,41.7824173 20.7308442,40.1937578 L20.5297268,40.1587721 C19.4243956,41.9614292 15.7470799,47.8694226 14.0835693,49.4366672 L14.085063,49.4382605 C13.8972885,49.6151142 13.6534845,49.6955078 13.4148252,49.6813015 L9.64570344,49.7745745 L9.64576983,49.7778274 C9.42579795,49.7832711 9.22232401,49.709217 9.06283078,49.5818546 C8.59600117,49.2407282 7.39991874,47.9408128 10.9378856,45.1362907 L11.4964614,45.8388912 L10.9378198,45.1341323 C10.9577357,45.1183655 10.9781164,45.1036278 10.9988953,45.0897862 C11.9660158,44.2941783 12.7149484,42.9069043 13.2700422,41.3364643 C14.0477265,39.1361891 14.4232113,36.6248156 14.4913512,34.7993945 C14.5505348,33.2192335 14.4655269,31.6627975 14.3774322,30.0495445 C14.2415392,27.561053 14.0984428,24.9404464 14.44664,21.7840026 C13.6104694,21.827187 12.7435286,21.7255826 11.9163556,21.5132124 C10.5795998,21.1699942 9.32326804,20.5305956 8.45323984,19.7415564 L9.05397098,19.0775921 L8.44982103,19.7437468 C8.43587991,19.7311001 8.42246986,19.7180552 8.40949131,19.7047448 C7.78117705,19.127382 7.28726428,18.5018913 7.14140664,17.8527995 C6.94257906,16.9683626 7.26807178,16.1920121 8.44517163,15.6431237 L8.44503886,15.6428249 C8.46893801,15.631672 8.4931358,15.6217472 8.51743324,15.6128514 C9.00938999,15.3829882 9.78438814,15.0196551 10.8146658,14.5328472 C11.4198781,14.2468541 11.9814764,13.9789516 12.3456737,13.7997414 C12.5943905,13.2524852 13.172716,12.2287366 14.2365958,11.5702863 C14.1121548,10.6134264 14.0452036,8.95300152 14.9693357,8.46087951 L15.3908896,9.25130991 L14.9682068,8.45752732 C15.2893516,8.28651555 15.6675217,8.32999884 15.9386069,8.5378217 C16.12346,8.66116752 16.7704289,9.09795721 17.4200232,9.59559313 C17.5591688,8.73492343 17.7808665,7.80996676 18.1174124,7.45801985 L18.7673026,8.07630956 L18.1173458,7.45473342 C18.4201345,7.13813633 18.8986807,7.09096867 19.2537117,7.31976957 C19.8495967,7.66205783 21.0571361,8.51681398 21.8648924,9.91633915 C22.3596044,10.7735184 22.7048798,11.8272429 22.6754705,13.0809779 C23.2379962,14.2044021 25.8193014,19.5456922 26.5171838,24.2968405 C30.5151081,25.2059046 33.3888747,26.9338119 35.2856732,29.7576243 C37.2428468,32.6712951 38.1009197,36.7089467 38.027603,42.1852014 C38.0252795,42.3597644 38.0803471,42.4827122 38.1715291,42.5675542 C38.3193057,42.7050735 38.5606866,42.8032593 38.8446546,42.8737945 C40.3404036,43.2458242 42.0121177,43.1025954 43.6260368,42.6268373 C45.4775857,42.0810414 47.2373961,41.1035692 48.573351,39.9604584 L48.5717909,39.9586659 C48.9491643,39.6357624 49.5168979,39.6799092 49.8398081,40.0572834 C49.9479182,40.1836501 50.0148356,40.3313929 50.0419213,40.4840814 L50.0419872,40.4840959 Z M48.342029,45.8901114 C48.6737286,44.9697665 48.7702215,43.7697291 48.5490887,42.2356017 C47.2430051,43.1334103 45.7163814,43.8811205 44.1319712,44.3481853 C42.2331491,44.9079229 40.239174,45.0696731 38.4161305,44.616254 C37.8569907,44.4773739 37.342829,44.247842 36.9490892,43.8814223 C36.4987567,43.4623244 36.2261075,42.9047157 36.2360325,42.1641045 C36.3043442,37.0611779 35.5409332,33.3526166 33.7962304,30.7552545 C32.0934141,28.2202908 29.3951741,26.7031268 25.557474,25.9299885 C25.171802,25.8642659 24.8601505,25.5501584 24.8151075,25.1419484 L25.7090041,25.043298 L24.816701,25.1416499 C24.2785394,20.2657637 21.3157803,14.3618426 20.9994462,13.7422427 C20.9078333,13.5909478 20.8597028,13.4112065 20.8714861,13.2213083 L20.8734113,13.2214411 C20.9329931,12.2516311 20.6822181,11.4496838 20.3122135,10.8085931 C19.9933923,10.2561914 19.5865101,9.81667682 19.2084421,9.48789851 C19.0999004,10.2067305 19.0289992,11.176441 19.0125687,11.414071 C19.0118053,11.7741513 18.7933936,12.1136514 18.4373635,12.2512702 C17.9741188,12.430348 17.4533134,12.1999867 17.2742373,11.7367418 L18.113063,11.4124438 L17.2769918,11.7356457 C17.2300566,11.6142247 16.498445,11.0906683 15.8583786,10.649959 C15.930939,11.0781515 16.0447915,11.6078812 16.0873785,11.8026307 C16.2288815,12.2513697 15.9991178,12.7388091 15.5541626,12.9110223 L15.2294995,12.0723628 L15.5527015,12.9084339 C14.4518135,13.3346013 13.9940819,14.4741272 13.9150152,14.6930655 C13.850554,14.9248872 13.6938487,15.1304192 13.4635546,15.2501801 L13.0486065,14.4523143 L13.4631238,15.2497484 C13.2003996,15.3863715 12.4389839,15.7501692 11.58054,16.1558279 C11.0189443,16.4211742 10.0294831,16.884021 9.2757026,17.2361019 C9.25286568,17.2493128 9.22933168,17.2616275 9.20500102,17.2729796 L8.82503848,16.4578866 L9.20443698,17.2728801 C8.97211779,17.38119 8.88594796,17.4371201 8.89092735,17.4592929 C8.94400335,17.695396 9.23411184,18.0245731 9.62014897,18.3788453 C9.63302795,18.3893012 9.64570778,18.4001221 9.65815517,18.4114078 L9.65709299,18.4125696 L9.65822156,18.4135985 L9.65666148,18.4153246 C10.3169413,19.0134328 11.2973661,19.5051931 12.359058,19.7777699 C13.316019,20.0234658 14.320076,20.0855708 15.1900452,19.8796729 C15.3219882,19.8335676 15.4666444,19.8176017 15.6145205,19.8389449 C16.1060784,19.9099119 16.4470068,20.3660196 16.376039,20.8575792 L16.3744789,20.8573469 C15.864897,24.3869838 16.0214023,27.2531118 16.1691122,29.9581894 C16.2589664,31.6034805 16.3456337,33.1907742 16.2830313,34.8626569 C16.2092095,36.8395085 15.8034555,39.5568112 14.9633315,41.9336753 C14.3096903,43.7829732 13.3828333,45.4518881 12.124849,46.4823766 C12.1029083,46.503753 12.079673,46.5242001 12.0551432,46.5436513 L12.0540811,46.5422904 C10.927335,47.4354535 10.42921,47.8105353 10.2089734,47.9679688 L13.0840384,47.8968025 C14.9260602,45.923669 18.9503064,39.3022463 19.2882492,38.7442775 C19.4663971,38.4117482 19.8431735,38.2150116 20.235152,38.2831903 L20.2349197,38.2844517 L21.8738368,38.5695148 C21.9264481,38.575722 21.9791924,38.5867089 22.0316371,38.6027081 C22.5066651,38.7476965 22.7742026,39.2503742 22.629215,39.7253988 L22.6257961,39.7243366 C22.0502925,41.6136315 23.5364537,44.3410852 23.809629,44.8184022 C23.9055578,44.9497474 23.9670642,45.1087103 23.9797109,45.2828753 C24.0156923,45.778218 23.6432974,46.2090292 23.1479555,46.2450131 L23.0827641,45.3480644 L23.1459972,46.2438833 C19.5625868,46.5043176 20.0468426,47.617719 20.4247488,48.0879286 C22.2217318,48.1196613 29.9946965,48.242509 31.2704872,48.018588 C31.2882788,48.0134098 31.3063026,48.0086964 31.3246253,48.0045473 L31.3253555,48.0078334 L31.326119,48.0077006 L31.3259862,48.0070368 C32.2507153,47.7982184 33.788527,46.1244193 34.086203,45.7924877 C34.1112307,45.758863 34.1388474,45.7265992 34.1691861,45.695962 C34.5187107,45.343118 35.0881735,45.3403965 35.4410141,45.6899209 L34.8081193,46.3288574 L35.4404501,45.6930083 C35.7990365,46.0482088 36.3033709,46.4120064 36.9106108,46.7595059 C37.5450326,47.1225734 38.2675844,47.4550369 39.0335815,47.7310021 C41.0711791,48.4654021 43.45064,48.8389891 45.3598406,48.3879627 C46.0567991,48.2232911 46.6839836,47.9470241 47.1944937,47.5348978 C47.6919602,47.1332927 48.0885842,46.5934078 48.342014,45.8901379 L48.342029,45.8901114 Z" id="Shape" fill="currentColor"></path>
                    <rect id="Rectangle-path" x="0" y="0" width="57.5561009" height="57.5561009"></rect>
                </g>
            </g>
        </g>
    </g>
</svg>
