<?xml version="1.0" encoding="UTF-8" standalone="no"?>
<svg width="18px" height="14px" viewBox="0 0 18 14" version="1.1" xmlns="http://www.w3.org/2000/svg" xmlns:xlink="http://www.w3.org/1999/xlink">
    <title>Image in gallery</title>
    <defs></defs>
    <g id="Listing-(Mobile)" stroke="none" stroke-width="1" fill="none" fill-rule="evenodd">
        <g id="Listing---Gallery" transform="translate(-16.000000, -64.000000)" fill="currentColor">
            <g id="Subheader" transform="translate(0.000000, 50.000000)">
                <g id="1466087409_album_gallery_image_images_photo_photos_pictures_portfolio" transform="translate(16.000000, 14.000000)">
                    <g id="Layer_1">
                        <g id="Group">
                            <path d="M17.3571429,14 L0.642857143,14 C0.288,14 0,13.7155455 0,13.3636364 L0,3.18181818 C0,2.83054545 0.288,2.54545455 0.642857143,2.54545455 C0.997714286,2.54545455 1.28571429,2.83054545 1.28571429,3.18181818 L1.28571429,12.7272727 L16.7142857,12.7272727 L16.7142857,1.27272727 L0.642857143,1.27272727 C0.288,1.27272727 0,0.987636364 0,0.636363636 C0,0.285090909 0.288,0 0.642857143,0 L17.3571429,0 C17.7126429,0 18,0.285090909 18,0.636363636 L18,13.3636364 C18,13.7155455 17.7126429,14 17.3571429,14 L17.3571429,14 Z" id="Shape"></path>
                            <ellipse id="Oval" cx="14.1428571" cy="3.81818182" rx="1.28571429" ry="1.27272727"></ellipse>
                            <path d="M2.57142857,11.4545455 C2.40685714,11.4545455 2.24228571,11.3921818 2.11692857,11.2680909 C1.86557143,11.0192727 1.86557143,10.6170909 2.11692857,10.3682727 L7.25978571,5.27736364 C7.51114286,5.02854545 7.91742857,5.02854545 8.16878571,5.27736364 L10.0973571,7.18645455 C10.3487143,7.43527273 10.3487143,7.83745455 10.0973571,8.08627273 C9.846,8.33509091 9.43971429,8.33509091 9.18835714,8.08627273 L7.71428571,6.62709091 L3.02592857,11.2680909 C2.90057143,11.3921818 2.736,11.4545455 2.57142857,11.4545455 L2.57142857,11.4545455 Z" id="Shape"></path>
                            <path d="M14.7857143,11.4545455 C14.6211429,11.4545455 14.4565714,11.3921818 14.3312143,11.2680909 L12.2142857,9.17254545 L10.0973571,11.2680909 C9.846,11.5169091 9.43971429,11.5169091 9.18835714,11.2680909 C8.937,11.0192727 8.937,10.6170909 9.18835714,10.3682727 L11.7597857,7.82281818 C12.0111429,7.574 12.4174286,7.574 12.6687857,7.82281818 L15.2402143,10.3682727 C15.4915714,10.6170909 15.4915714,11.0192727 15.2402143,11.2680909 C15.1148571,11.3921818 14.9502857,11.4545455 14.7857143,11.4545455 L14.7857143,11.4545455 Z" id="Shape"></path>
                        </g>
                    </g>
                </g>
            </g>
        </g>
    </g>
</svg>
