<?xml version="1.0" encoding="UTF-8" standalone="no"?>
<svg width="16px" height="16px" viewBox="0 0 16 16" version="1.1" xmlns="http://www.w3.org/2000/svg" xmlns:xlink="http://www.w3.org/1999/xlink">
    <title>Person</title>
    <defs></defs>
    <g id="Book-a-Valuation" stroke="none" stroke-width="1" fill="none" fill-rule="evenodd">
        <g id="1.0:-Start" transform="translate(-48.000000, -355.000000)" fill="currentColor">
            <g id="Info-Bit" transform="translate(30.000000, 339.000000)">
                <path d="M29.3982857,23.6182857 C30.1251429,22.8085714 30.5714286,21.7422857 30.5714286,20.5714286 C30.5714286,18.0508571 28.5205714,16 26,16 C23.4794286,16 21.4285714,18.0508571 21.4285714,20.5714286 C21.4285714,23.092 23.4794286,25.1428571 26,25.1428571 C26.8885714,25.1428571 27.716,24.884 28.4188571,24.4434286 C30.9045714,25.38 32.616,27.6548571 32.8337143,30.2857143 L19.1668571,30.2857143 C19.3148571,28.5148571 20.1457143,26.8634286 21.4971429,25.6851429 C21.7354286,25.4777143 21.76,25.1171429 21.5525714,24.8788571 C21.3457143,24.6411429 20.9845714,24.616 20.7462857,24.8234286 C19.0005714,26.3445714 18,28.5434286 18,30.8571429 C18,31.1731429 18.256,31.4285714 18.5714286,31.4285714 L33.4285714,31.4285714 C33.7445714,31.4285714 34,31.1731429 34,30.8571429 C34,27.7222857 32.1828571,24.9228571 29.3982857,23.6182857 L29.3982857,23.6182857 Z M22.5714286,20.5714286 C22.5714286,18.6805714 24.1091429,17.1428571 26,17.1428571 C27.8908571,17.1428571 29.4285714,18.6805714 29.4285714,20.5714286 C29.4285714,22.4622857 27.8908571,24 26,24 C24.1091429,24 22.5714286,22.4622857 22.5714286,20.5714286 L22.5714286,20.5714286 Z" id="Shape"></path>
            </g>
        </g>
    </g>
</svg>
