<?xml version="1.0" encoding="UTF-8" standalone="no"?>
<svg width="18px" height="18px" viewBox="0 0 18 18" version="1.1" xmlns="http://www.w3.org/2000/svg" xmlns:xlink="http://www.w3.org/1999/xlink">
    <!-- Generator: Sketch 39.1 (31720) - http://www.bohemiancoding.com/sketch -->
    <title>Floorplan</title>
    <defs></defs>
    <g id="Listing-(Desktop)" stroke="none" stroke-width="1" fill="none" fill-rule="evenodd">
        <g id="Listing" transform="translate(-35.000000, -611.000000)" stroke="#FFFFFF" fill="currentColor">
            <g id="Options" transform="translate(20.000000, 546.000000)">
                <g id="1466650319_Floorplan" transform="translate(15.000000, 65.000000)">
                    <g id="_x32_._White_icons">
                        <g id="Group">
                            <path d="M16.3125,0.5625 L7.3125,0.5625 C6.6915,0.5625 6.1875,1.0665 6.1875,1.6875 L6.1875,4.5 L1.6875,4.5 C1.0665,4.5 0.5625,5.004 0.5625,5.625 L0.5625,16.3125 C0.5625,16.9335 1.0665,17.4375 1.6875,17.4375 L16.3125,17.4375 C16.9335,17.4375 17.4375,16.9335 17.4375,16.3125 L17.4375,1.6875 C17.4375,1.0665 16.9335,0.5625 16.3125,0.5625 L16.3125,0.5625 Z M15.1875,15.1875 L8.4375,15.1875 L8.4375,11.25 L12.375,11.25 L12.375,9.5625 L6.75,9.5625 L6.75,15.1875 L2.8125,15.1875 L2.8125,6.75 L8.4375,6.75 L8.4375,2.8125 L15.1875,2.8125 L15.1875,15.1875 L15.1875,15.1875 Z" id="Shape"></path>
                        </g>
                    </g>
                </g>
            </g>
        </g>
    </g>
</svg>
