<?xml version="1.0" encoding="UTF-8" standalone="no"?>
<svg width="80px" height="72px" viewBox="0 0 80 72" version="1.1" xmlns="http://www.w3.org/2000/svg" xmlns:xlink="http://www.w3.org/1999/xlink">
    <title>Wallet</title>
    <defs></defs>
    <g id="Landing-Page-(3)" stroke="none" stroke-width="1" fill="none" fill-rule="evenodd">
        <g id="Home" transform="translate(-680.000000, -7672.000000)" fill="#00B991">
            <path d="M760,7735.21822 L760,7735.21822 C760,7740.06928 756.107826,7744 751.304348,7744 L751.304348,7744 L688.695652,7744 L688.695652,7744 C683.892174,7744 680,7740.06928 680,7735.21822 L680,7684.28393 C680,7680.40414 683.114783,7677.25851 686.956522,7677.25851 L686.956522,7677.25851 L722.036522,7677.25851 L736.121739,7672.10536 C737.013913,7671.77693 738.001739,7672.24236 738.326957,7673.13986 L739.810435,7677.25851 L746.086957,7677.25851 C749.928696,7677.25851 753.043478,7680.40414 753.043478,7684.28393 L753.043478,7687.79664 L753.043478,7687.79664 C756.885217,7687.79664 760,7690.94227 760,7694.82206 L760,7735.21822 L760,7735.21822 Z M686.956522,7680.77122 L686.956522,7680.77122 C685.036522,7680.77122 683.478261,7682.34491 683.478261,7684.28393 C683.478261,7686.22295 685.036522,7687.79664 686.956522,7687.79664 L692.947826,7687.79664 L692.947826,7687.79664 L693.276522,7687.79664 C693.29913,7687.78786 693.313043,7687.76854 693.335652,7687.75976 L712.434783,7680.77122 L686.956522,7680.77122 L686.956522,7680.77122 Z M737.526957,7681.08912 L735.68,7675.95354 L735.678261,7675.95354 L735.678261,7675.95354 L732.111304,7677.25851 L732.116522,7677.25851 L722.526957,7680.77122 L722.509565,7680.77122 L703.311304,7687.79664 L739.94087,7687.79664 L737.526957,7681.08912 L737.526957,7681.08912 Z M749.565217,7684.28393 C749.565217,7682.34491 748.006957,7680.77122 746.086957,7680.77122 L741.073043,7680.77122 L743.601739,7687.79664 L749.565217,7687.79664 L749.565217,7687.79664 L749.565217,7684.28393 L749.565217,7684.28393 Z M753.043478,7691.30935 L686.956522,7691.30935 L686.956522,7691.30935 C685.683478,7691.30935 684.504348,7690.93876 683.478261,7690.33457 L683.478261,7735.21822 C683.478261,7738.12851 685.815652,7740.48729 688.695652,7740.48729 L751.304348,7740.48729 C754.186087,7740.48729 756.521739,7738.12851 756.521739,7735.21822 L756.521739,7722.92374 L749.565217,7722.92374 C745.723478,7722.92374 742.608696,7719.77811 742.608696,7715.89832 C742.608696,7712.01853 745.723478,7708.8729 749.565217,7708.8729 L756.521739,7708.8729 L756.521739,7694.82206 C756.521739,7692.88304 754.963478,7691.30935 753.043478,7691.30935 L753.043478,7691.30935 Z M756.521739,7719.41103 L756.521739,7712.38561 L749.565217,7712.38561 C747.645217,7712.38561 746.086957,7713.9593 746.086957,7715.89832 C746.086957,7717.83734 747.645217,7719.41103 749.565217,7719.41103 L756.521739,7719.41103 L756.521739,7719.41103 Z M749.565217,7714.14196 L753.043478,7714.14196 L753.043478,7717.65467 L749.565217,7717.65467 L749.565217,7714.14196 L749.565217,7714.14196 Z" id="Wallet"></path>
        </g>
    </g>
</svg>
