<?xml version="1.0" encoding="UTF-8" standalone="no"?>
<svg width="14px" height="14px" viewBox="0 0 14 14" version="1.1" xmlns="http://www.w3.org/2000/svg" xmlns:xlink="http://www.w3.org/1999/xlink">
    <title>Map pin</title>
    <desc>Indicates a location or links to a map.</desc>
    <defs></defs>
    <g id="Listing-(Mobile)" stroke="none" stroke-width="1" fill="none" fill-rule="evenodd">
        <g id="Listing---Mobile" transform="translate(-20.000000, -373.000000)" fill="currentColor">
            <g id="Map" transform="translate(20.000000, 373.000000)">
                <g id="Map-Icon">
                    <path d="M7,12.5 C6.885,12.5 6.7695,12.4605 6.676,12.381 C6.555,12.278 3.705,9.831 2.516,7.162 C2.4035,6.91 2.517,6.614 2.7695,6.502 C3.021,6.39 3.317,6.503 3.4295,6.7555 C4.299,8.708 6.218,10.605 6.9915,11.3205 C8.3565,9.9955 11,7.0345 11,5.115 C11,2.846 9.2055,1 7,1 C4.7945,1 3,2.846 3,5.115 C3,5.391 2.776,5.615 2.5,5.615 C2.224,5.615 2,5.391 2,5.115 C2,2.2945 4.243,0 7,0 C9.757,0 12,2.2945 12,5.115 C12,8.071 7.528,12.1945 7.3375,12.369 C7.242,12.456 7.121,12.5 7,12.5 L7,12.5 Z" id="Shape"></path>
                    <path d="M7,7 C5.897,7 5,6.103 5,5 C5,3.897 5.897,3 7,3 C8.103,3 9,3.897 9,5 C9,6.103 8.103,7 7,7 L7,7 Z M7,4 C6.4485,4 6,4.4485 6,5 C6,5.5515 6.4485,6 7,6 C7.5515,6 8,5.5515 8,5 C8,4.4485 7.5515,4 7,4 L7,4 Z" id="Shape"></path>
                    <path d="M13.5,14 L0.5,14 C0.322,14 0.157,13.9055 0.0675,13.751 C-0.022,13.5965 -0.0225,13.407 0.066,13.252 L2.066,9.752 C2.203,9.5125 2.5085,9.4285 2.748,9.566 C2.9875,9.703 3.071,10.0085 2.934,10.248 L1.3615,13 L12.638,13 L11.0655,10.248 C10.9285,10.0085 11.012,9.703 11.2515,9.566 C11.491,9.428 11.7965,9.5125 11.9335,9.752 L13.9335,13.252 C14.022,13.407 14.0215,13.5965 13.932,13.751 C13.843,13.9055 13.678,14 13.5,14 L13.5,14 Z" id="Shape"></path>
                </g>
            </g>
        </g>
    </g>
</svg>
