<?xml version="1.0" encoding="UTF-8" standalone="no"?>
<svg width="16px" height="14px" viewBox="0 0 16 14" version="1.1" xmlns="http://www.w3.org/2000/svg" xmlns:xlink="http://www.w3.org/1999/xlink">
    <title>Open in new tab</title>
    <defs></defs>
    <g id="Account---On-the-market" stroke="none" stroke-width="1" fill="none" fill-rule="evenodd" opacity="0.9">
        <g id="Property---4.0-On-the-market---Stats" transform="translate(-274.000000, -142.000000)" fill="currentColor">
            <path d="M286.571444,150.571422 C286.571444,150.410708 286.446443,150.285707 286.285729,150.285707 L285.7143,150.285707 C285.553585,150.285707 285.428585,150.410708 285.428585,150.571422 L285.428585,153.428568 C285.428585,154.214284 284.785727,154.857141 284.000012,154.857141 L276.571432,154.857141 C275.785716,154.857141 275.142859,154.214284 275.142859,153.428568 L275.142859,145.999988 C275.142859,145.214273 275.785716,144.571415 276.571432,144.571415 L282.857153,144.571415 C283.017868,144.571415 283.142868,144.446415 283.142868,144.2857 L283.142868,143.714271 C283.142868,143.553557 283.017868,143.428556 282.857153,143.428556 L276.571432,143.428556 C275.151787,143.428556 274,144.580344 274,145.999988 L274,153.428568 C274,154.848213 275.151787,156 276.571432,156 L284.000012,156 C285.419656,156 286.571444,154.848213 286.571444,153.428568 L286.571444,150.571422 Z M290.000019,142.857127 C290.000019,142.544627 289.74109,142.285698 289.42859,142.285698 L284.857156,142.285698 C284.544655,142.285698 284.285727,142.544627 284.285727,142.857127 C284.285727,143.008913 284.348227,143.15177 284.45537,143.258913 L286.0268,144.830344 L280.205365,150.651779 C280.151793,150.705351 280.116079,150.785708 280.116079,150.857137 C280.116079,150.928565 280.151793,151.008923 280.205365,151.062494 L281.223223,152.080352 C281.276794,152.133924 281.357152,152.169638 281.42858,152.169638 C281.500009,152.169638 281.580366,152.133924 281.633938,152.080352 L287.455373,146.258917 L289.026804,147.830347 C289.133947,147.93749 289.276804,147.99999 289.42859,147.99999 C289.74109,147.99999 290.000019,147.741062 290.000019,147.428561 L290.000019,142.857127 Z" id="Open-in-new-tab"></path>
        </g>
    </g>
</svg>
