<?xml version="1.0" encoding="UTF-8" standalone="no"?>
<svg width="16px" height="14px" viewBox="0 0 16 14" version="1.1" xmlns="http://www.w3.org/2000/svg" xmlns:xlink="http://www.w3.org/1999/xlink">
    <title>Envelope</title>
    <desc>Indicates an email address.</desc>
    <defs></defs>
    <g id="Marketing-Site-(2)" stroke="none" stroke-width="1" fill="none" fill-rule="evenodd">
        <g id="Holding-Page" transform="translate(-626.000000, -554.000000)" fill="currentColor">
            <path d="M640.857161,565.714285 C640.857161,565.866071 640.723232,566 640.571446,566 L627.428573,566 C627.276787,566 627.142859,565.866071 627.142859,565.714285 L627.142859,558.857134 C627.330359,559.07142 627.535716,559.267849 627.758931,559.446421 C629.035718,560.428565 630.321434,561.428566 631.562507,562.464281 C632.23215,563.026782 633.062508,563.714283 633.991081,563.714283 L634.00001,563.714283 L634.008938,563.714283 C634.937511,563.714283 635.767869,563.026782 636.437512,562.464281 C637.678585,561.428566 638.964301,560.428565 640.241088,559.446421 C640.464303,559.267849 640.66966,559.07142 640.857161,558.857134 L640.857161,565.714285 Z M640.857161,556.330346 C640.857161,557.089275 640.125017,558.080348 639.544659,558.535705 C638.348229,559.473207 637.151799,560.419636 635.964298,561.366066 C635.491083,561.749995 634.633939,562.571424 634.008938,562.571424 L634.00001,562.571424 L633.991081,562.571424 C633.36608,562.571424 632.508936,561.749995 632.035721,561.366066 C630.84822,560.419636 629.65179,559.473207 628.45536,558.535705 C627.651788,557.901776 627.142859,557.017846 627.142859,555.999988 C627.142859,555.848202 627.276787,555.714273 627.428573,555.714273 L640.571446,555.714273 C640.910732,555.714273 640.857161,556.107131 640.857161,556.330346 L640.857161,556.330346 Z M642.000019,555.999988 C642.000019,555.214273 641.357161,554.571415 640.571446,554.571415 L627.428573,554.571415 C626.642858,554.571415 626,555.214273 626,555.999988 L626,565.714285 C626,566.500001 626.642858,567.142859 627.428573,567.142859 L640.571446,567.142859 C641.357161,567.142859 642.000019,566.500001 642.000019,565.714285 L642.000019,555.999988 Z" id=""></path>
        </g>
    </g>
</svg>
