<?xml version="1.0" encoding="UTF-8" standalone="no"?>
<svg width="24px" height="24px" viewBox="0 0 24 24" version="1.1" xmlns="http://www.w3.org/2000/svg" xmlns:xlink="http://www.w3.org/1999/xlink">
    <title>Phone</title>
    <defs></defs>
    <g id="Account---On-the-market" stroke="none" stroke-width="1" fill="none" fill-rule="evenodd">
        <g id="Property---4.0-On-the-market---Viewings---Viewing" transform="translate(-604.000000, -381.000000)" fill="currentColor">
            <g id="1.1:-Pre-valuation" transform="translate(564.000000, 120.000000)">
                <g id="Address" transform="translate(40.000000, 261.000000)">
                    <g id="Group">
                        <path d="M10.8222857,14.0571429 C10.6028571,14.0571429 10.3834286,13.9731429 10.2162857,13.806 L6.64114286,10.2317143 C6.48,10.0705714 6.39,9.85285714 6.39,9.62571429 C6.39,9.39857143 6.48,9.18 6.64114286,9.01971429 L8.72742857,6.93428571 C9.37885714,6.28285714 9.37885714,5.22257143 8.72742857,4.57114286 L6.34457143,2.18828571 C5.71285714,1.55742857 4.61228571,1.55657143 3.98057143,2.18828571 C3.94285714,2.226 3.90085714,2.26028571 3.85628571,2.29114286 C3.75771429,2.35971429 1.36542857,4.07057143 1.758,7.60371429 C1.81028571,8.07428571 1.47171429,8.49771429 1.00114286,8.55 C0.534857143,8.604 0.107142857,8.26371429 0.0548571429,7.79314286 C-0.42,3.52628571 2.32542857,1.29 2.82085714,0.924 C4.104,-0.306857143 6.29314286,-0.286285714 7.55571429,0.975428571 L9.93857143,3.35828571 C11.2585714,4.67828571 11.2585714,6.82542857 9.93857143,8.14542857 L8.46,9.62571429 L11.4282857,12.594 C11.7634286,12.9291429 11.7634286,13.4708571 11.4282857,13.806 C11.2611429,13.974 11.0417143,14.0571429 10.8222857,14.0571429 L10.8222857,14.0571429 Z" id="Shape"></path>
                        <path d="M6.65142857,18.228 C6.432,18.228 6.21257143,18.144 6.04542857,17.9768571 C3.93942857,15.8708571 2.36314286,13.8154286 1.35942857,11.8671429 C1.14257143,11.4462857 1.308,10.9294286 1.72885714,10.7125714 C2.15142857,10.4957143 2.66657143,10.662 2.88342857,11.082 C3.80571429,12.8725714 5.27657143,14.7848571 7.25742857,16.7648571 C7.59257143,17.1 7.59257143,17.6417143 7.25742857,17.9768571 C7.08942857,18.1448571 6.87085714,18.228 6.65142857,18.228 L6.65142857,18.228 Z" id="Shape"></path>
                        <path d="M17.136,23.9845714 C13.7614286,23.9845714 10.0225714,21.954 6.00685714,17.9374286 C5.67171429,17.6022857 5.67171429,17.0605714 6.00685714,16.7254286 C6.342,16.3902857 6.88371429,16.3902857 7.21885714,16.7254286 C11.1094286,20.6168571 14.7428571,22.5214286 17.748,22.242 C20.3965714,21.9917143 21.6805714,20.1462857 21.6934286,20.1265714 C21.7234286,20.082 21.7577143,20.04 21.7962857,20.0022857 C22.1117143,19.6877143 22.2857143,19.2668571 22.2857143,18.8211429 C22.2857143,18.3754286 22.1117143,17.9554286 21.7962857,17.64 L19.4134286,15.2562857 C19.098,14.9408571 18.678,14.7677143 18.2305714,14.7677143 L18.2305714,14.7677143 C17.784,14.7677143 17.3648571,14.9408571 17.0502857,15.2562857 L14.9631429,17.3417143 C14.628,17.6768571 14.0862857,17.6768571 13.7511429,17.3417143 L10.1777143,13.7682857 C9.84257143,13.4331429 9.84257143,12.8914286 10.1777143,12.5562857 C10.5128571,12.2211429 11.0545714,12.2211429 11.3897143,12.5562857 L14.3571429,15.5237143 L15.8374286,14.0442857 C16.476,13.4048571 17.3254286,13.0525714 18.2305714,13.0525714 L18.2305714,13.0525714 C19.1357143,13.0525714 19.986,13.4048571 20.6254286,14.0434286 L23.0082857,16.428 C23.6477143,17.0665714 24,17.9168571 24,18.8211429 C24,19.7005714 23.6665714,20.5294286 23.0597143,21.162 C22.7477143,21.5837143 21.0651429,23.6502857 17.9091429,23.9485714 C17.6545714,23.9734286 17.3957143,23.9845714 17.136,23.9845714 L17.136,23.9845714 Z" id="Shape"></path>
                    </g>
                </g>
            </g>
        </g>
    </g>
</svg>
