<?xml version="1.0" encoding="UTF-8" standalone="no"?>
<svg width="9px" height="12px" viewBox="0 0 9 12" version="1.1" xmlns="http://www.w3.org/2000/svg" xmlns:xlink="http://www.w3.org/1999/xlink">
    <title>Pound sterling</title>
    <defs></defs>
    <g id="Account---On-the-market" stroke="none" stroke-width="1" fill="none" fill-rule="evenodd">
        <g id="Property---4.0-On-the-market---Activity-(Accepted-Offer)" transform="translate(-708.000000, -504.000000)" fill="currentColor">
            <g id="Timeline" transform="translate(563.000000, 310.000000)">
                <g id="JW---Offer" transform="translate(1.000000, 0.000000)">
                    <g id="Feedback-(History)" transform="translate(131.000000, 175.000000)">
                        <path d="M17.208,22.744 L17.208,24.84 L19.88,24.84 L19.88,26.408 L17.208,26.408 L17.208,29.32 L21.976,29.32 L21.976,31 L14.008,31 L14.008,29.32 L15.32,29.32 L15.32,26.408 L13.944,26.408 L13.944,24.84 L15.32,24.84 L15.32,22.84 C15.32,21.5493269 15.6453301,20.608003 16.296,20.016 C16.9466699,19.423997 17.7999947,19.128 18.856,19.128 C20.2533403,19.128 21.3039965,19.7253274 22.008,20.92 L20.68,21.976 C20.2426645,21.250663 19.6773368,20.888 18.984,20.888 C18.4719974,20.888 18.0480017,21.0346652 17.712,21.328 C17.3759983,21.6213348 17.208,22.0933301 17.208,22.744 L17.208,22.744 Z" id="£"></path>
                    </g>
                </g>
            </g>
        </g>
    </g>
</svg>
