
<svg width="56px" height="56px" viewBox="0 0 56 56" version="1.1" xmlns="http://www.w3.org/2000/svg" xmlns:xlink="http://www.w3.org/1999/xlink">
    <title>Brush</title>
    <defs></defs>
    <g id="Seller-Instruction-(New)" stroke="none" stroke-width="1" fill="none" fill-rule="evenodd">
        <g id="4.1:-Housekeeping" transform="translate(-24.000000, -403.000000)" fill="currentColor">
            <g id="1468867934_Cleaning-RoundedWhite" transform="translate(24.000000, 403.000000)">
                <g id="Cleaning">
                    <path d="M28,55.6967805 C12.727935,55.6967805 0.303219512,43.272065 0.303219512,28 C0.303219512,12.727935 12.727935,0.303219512 28,0.303219512 C43.272065,0.303219512 55.6967805,12.727935 55.6967805,28 C55.6967805,43.272065 43.272065,55.6967805 28,55.6967805 L28,55.6967805 Z M28,3.03492683 C14.2344715,3.03492683 3.03492683,14.2344715 3.03492683,28 C3.03492683,41.7655285 14.2344715,52.9650732 28,52.9650732 C41.7655285,52.9650732 52.9650732,41.7655285 52.9650732,28 C52.9650732,14.2344715 41.7655285,3.03492683 28,3.03492683 L28,3.03492683 Z" id="Shape"></path>
                    <path d="M40.3923902,44.4758374 L36.5634472,31.603122 C36.4692033,28.177561 34.3803577,25.246439 31.4146341,23.9324878 L31.4146341,11.6771382 C31.4146341,9.75219512 29.8489106,8.18647154 27.9239675,8.18647154 C25.9994797,8.18647154 24.4337561,9.75219512 24.4337561,11.6771382 L24.4337561,23.9324878 C21.4684878,25.246439 19.3805528,28.1771057 19.2863089,31.6013008 L15.456,44.4744715 L40.3923902,44.4744715 L40.3923902,44.4758374 L40.3923902,44.4758374 Z M34.5601951,41.7441301 L32.9981138,35.9137561 C32.8674472,35.428878 32.371187,35.1379512 31.883122,35.270439 C31.3973333,35.3997398 31.1091382,35.899187 31.2393496,36.3849756 L32.6744065,41.7441301 L28.8340813,41.7441301 L28.8340813,36.1486829 C28.8340813,35.6460488 28.4261463,35.2381138 27.9235122,35.2381138 C27.420878,35.2381138 27.0129431,35.6460488 27.0129431,36.1486829 L27.0129431,41.7427642 L23.6279024,41.7427642 L25.0634146,36.384065 C25.193626,35.8987317 24.9054309,35.3988293 24.4196423,35.2690732 C23.9333984,35.1374959 23.4344065,35.4275122 23.3046504,35.9128455 L21.7425691,41.7427642 L19.1173984,41.7427642 L21.6574309,33.2061789 L21.6628943,33.2061789 L34.1832195,33.2061789 L34.1895935,33.2061789 L36.7282602,41.7427642 L34.5597398,41.7427642 L34.5597398,41.7441301 L34.5601951,41.7441301 Z M27.1654634,11.6771382 C27.1654634,11.2587317 27.5060163,10.9181789 27.9239675,10.9181789 C28.342374,10.9181789 28.6829268,11.2587317 28.6829268,11.6771382 L28.6829268,23.2290732 C28.4325203,23.2072195 28.1802927,23.1908293 27.9244228,23.1908293 C27.6685528,23.1908293 27.4158699,23.2072195 27.1654634,23.2290732 L27.1654634,11.6771382 L27.1654634,11.6771382 Z M27.9244228,25.9225366 C30.7171382,25.9225366 33.0577561,27.8693333 33.6778537,30.4753821 L22.1709919,30.4753821 C22.7901789,27.868878 25.1317073,25.9225366 27.9244228,25.9225366 L27.9244228,25.9225366 Z" id="Shape"></path>
                </g>
            </g>
        </g>
    </g>
</svg>
