<?xml version="1.0" encoding="UTF-8" standalone="no"?>
<svg width="48px" height="48px" viewBox="0 0 48 48" version="1.1" xmlns="http://www.w3.org/2000/svg" xmlns:xlink="http://www.w3.org/1999/xlink">
    <title>Bathroom</title>
    <defs></defs>
    <g id="Listing-(Mobile)" stroke="none" stroke-width="1" fill="none" fill-rule="evenodd">
        <g id="Listing---Mobile" transform="translate(-142.000000, -408.000000)" fill="currentColor">
            <g id="Bedrooms/Bathrooms" transform="translate(20.000000, 408.000000)">
                <g id="1466477660_Shower-1" transform="translate(122.000000, 0.000000)">
                    <g id="Layer_1">
                        <g id="Group">
                            <path d="M45,29.91 L3,29.91 C1.346,29.91 0,28.564 0,26.91 C0,25.256 1.346,23.91 3,23.91 L45,23.91 C46.654,23.91 48,25.256 48,26.91 C48,28.564 46.654,29.91 45,29.91 L45,29.91 Z M3,25.91 C2.45,25.91 2,26.358 2,26.91 C2,27.462 2.45,27.91 3,27.91 L45,27.91 C45.55,27.91 46,27.462 46,26.91 C46,26.358 45.55,25.91 45,25.91 L3,25.91 L3,25.91 Z" id="Shape"></path>
                            <path d="M36.474,43.91 L11.526,43.91 C8.416,43.91 5.65,41.822 4.796,38.832 L2.04,29.184 C1.888,28.652 2.194,28.1 2.726,27.948 C3.266,27.798 3.812,28.104 3.962,28.636 L6.718,38.284 C7.33,40.418 9.306,41.91 11.526,41.91 L36.476,41.91 C38.696,41.91 40.674,40.418 41.284,38.284 L44.04,28.636 C44.19,28.104 44.734,27.798 45.276,27.948 C45.808,28.1 46.114,28.654 45.962,29.184 L43.206,38.832 C42.352,41.822 39.584,43.91 36.474,43.91 L36.474,43.91 Z" id="Shape"></path>
                            <path d="M11.526,39.91 C10.194,39.91 9.006,39.016 8.642,37.734 L7.344,33.186 C7.192,32.654 7.5,32.102 8.03,31.95 C8.566,31.798 9.116,32.108 9.266,32.638 L10.564,37.186 C10.688,37.612 11.082,37.912 11.526,37.912 C12.078,37.912 12.526,38.36 12.526,38.912 C12.526,39.464 12.078,39.91 11.526,39.91 L11.526,39.91 Z" id="Shape"></path>
                            <path d="M11,47.91 C10.85,47.91 10.698,47.876 10.552,47.804 C10.058,47.556 9.858,46.956 10.104,46.462 L12.104,42.462 C12.354,41.966 12.952,41.772 13.446,42.014 C13.94,42.262 14.14,42.862 13.894,43.356 L11.894,47.356 C11.718,47.708 11.366,47.91 11,47.91 L11,47.91 Z" id="Shape"></path>
                            <path d="M37,47.91 C36.634,47.91 36.282,47.708 36.106,47.358 L34.106,43.358 C33.86,42.864 34.06,42.264 34.554,42.016 C35.048,41.77 35.648,41.968 35.896,42.464 L37.896,46.464 C38.142,46.958 37.942,47.558 37.448,47.806 C37.302,47.876 37.15,47.91 37,47.91 L37,47.91 Z" id="Shape"></path>
                            <path d="M43,25.91 C42.448,25.91 42,25.462 42,24.91 L42,3.91 C42,2.906 41.184,2.09 40.18,2.09 C39.682,2.09 39.224,2.28 38.882,2.624 L35.708,5.796 C35.318,6.186 34.684,6.186 34.294,5.796 C33.904,5.406 33.904,4.772 34.294,4.382 L37.468,1.208 C38.19,0.486 39.15,0.088 40.17,0.088 C42.29,0.088 44.002,1.802 44.002,3.908 L44.002,24.908 C44,25.462 43.552,25.91 43,25.91 L43,25.91 Z" id="Shape"></path>
                            <path d="M35,12.09 C34.734,12.09 34.472,11.984 34.284,11.786 L28.284,5.606 C28.024,5.34 27.934,4.95 28.052,4.596 C28.17,4.242 28.472,3.982 28.84,3.924 L33.84,3.104 C34.162,3.048 34.48,3.154 34.71,3.384 L36.71,5.384 C36.946,5.62 37.05,5.96 36.984,6.288 L35.984,11.288 C35.912,11.652 35.642,11.946 35.286,12.05 C35.19,12.076 35.094,12.09 35,12.09 L35,12.09 Z M31.05,5.586 L34.392,9.028 L34.914,6.418 L33.656,5.16 L31.05,5.586 L31.05,5.586 Z" id="Shape"></path>
                            <path d="M21,15.91 C20.744,15.91 20.488,15.812 20.292,15.618 C19.902,15.228 19.902,14.594 20.292,14.204 L22.292,12.204 C22.682,11.814 23.316,11.814 23.706,12.204 C24.096,12.594 24.096,13.228 23.706,13.618 L21.706,15.618 C21.512,15.812 21.256,15.91 21,15.91 L21,15.91 Z" id="Shape"></path>
                            <path d="M25,19.91 C24.744,19.91 24.488,19.812 24.292,19.618 C23.902,19.228 23.902,18.594 24.292,18.204 L26.292,16.204 C26.682,15.814 27.316,15.814 27.706,16.204 C28.096,16.594 28.096,17.228 27.706,17.618 L25.706,19.618 C25.512,19.812 25.256,19.91 25,19.91 L25,19.91 Z" id="Shape"></path>
                            <path d="M27,13.91 C26.744,13.91 26.488,13.812 26.292,13.618 C25.902,13.228 25.902,12.594 26.292,12.204 L28.292,10.204 C28.682,9.814 29.316,9.814 29.706,10.204 C30.096,10.594 30.096,11.228 29.706,11.618 L27.706,13.618 C27.512,13.812 27.256,13.91 27,13.91 L27,13.91 Z" id="Shape"></path>
                        </g>
                    </g>
                </g>
            </g>
        </g>
    </g>
</svg>
