<?xml version="1.0" encoding="UTF-8" standalone="no"?>
<svg width="48px" height="42px" viewBox="0 0 48 42" version="1.1" xmlns="http://www.w3.org/2000/svg" xmlns:xlink="http://www.w3.org/1999/xlink">
    <title>Bedroom</title>
    <defs></defs>
    <g id="Listing-(Mobile)" stroke="none" stroke-width="1" fill="none" fill-rule="evenodd">
        <g id="Listing---Mobile" transform="translate(-36.000000, -414.000000)" fill="currentColor">
            <g id="Bedrooms/Bathrooms" transform="translate(20.000000, 408.000000)">
                <g id="1466477496_2-Bed_Room" transform="translate(16.000000, 6.000000)">
                    <g id="Layer_1">
                        <g id="Group">
                            <g id="Shape">
                                <path d="M46.9565217,41.7391304 C46.3805217,41.7391304 45.9130435,41.2716522 45.9130435,40.6956522 L45.9130435,33.3913043 L2.08695652,33.3913043 L2.08695652,40.6956522 C2.08695652,41.2716522 1.61947826,41.7391304 1.04347826,41.7391304 C0.467478261,41.7391304 0,41.2716522 0,40.6956522 L0,32.3478261 C0,31.7718261 0.467478261,31.3043478 1.04347826,31.3043478 L46.9565217,31.3043478 C47.5325217,31.3043478 48,31.7718261 48,32.3478261 L48,40.6956522 C48,41.2716522 47.5325217,41.7391304 46.9565217,41.7391304 L46.9565217,41.7391304 Z"></path>
                                <path d="M46.9565217,39.6521739 L1.04347826,39.6521739 C0.467478261,39.6521739 0,39.1846957 0,38.6086957 C0,38.0326957 0.467478261,37.5652174 1.04347826,37.5652174 L46.9565217,37.5652174 C47.5325217,37.5652174 48,38.0326957 48,38.6086957 C48,39.1846957 47.5325217,39.6521739 46.9565217,39.6521739 L46.9565217,39.6521739 Z"></path>
                                <path d="M46.9565217,33.3913043 C46.5516522,33.3913043 46.173913,33.1533913 46.0027826,32.7714783 L37.6549565,13.9888696 C37.4212174,13.4629565 37.6570435,12.8452174 38.1850435,12.6114783 C38.7130435,12.3735652 39.3266087,12.6135652 39.5624348,13.1415652 L45.9130435,27.4309565 L45.9130435,24 C45.9130435,23.424 46.3805217,22.9565217 46.9565217,22.9565217 C47.5325217,22.9565217 48,23.424 48,24 L48,32.3478261 C48,32.8403478 47.6556522,33.266087 47.1735652,33.3683478 C47.1005217,33.3850435 47.0274783,33.3913043 46.9565217,33.3913043 L46.9565217,33.3913043 Z"></path>
                                <path d="M1.04347826,33.3913043 C0.972521739,33.3913043 0.899478261,33.3850435 0.826434783,33.3683478 C0.344347826,33.266087 0,32.8403478 0,32.3478261 L0,24 C0,23.424 0.467478261,22.9565217 1.04347826,22.9565217 C1.61947826,22.9565217 2.08695652,23.424 2.08695652,24 L2.08695652,27.4309565 L8.43756522,13.1415652 C8.6066087,12.7638261 8.97808696,12.5217391 9.39130435,12.5217391 L12.5217391,12.5217391 C13.0977391,12.5217391 13.5652174,12.9892174 13.5652174,13.5652174 C13.5652174,14.1412174 13.0977391,14.6086957 12.5217391,14.6086957 L10.0695652,14.6086957 L1.99721739,32.7714783 C1.82608696,33.1533913 1.44834783,33.3913043 1.04347826,33.3913043 L1.04347826,33.3913043 Z"></path>
                                <path d="M38.6086957,14.6086957 L35.4782609,14.6086957 C34.9022609,14.6086957 34.4347826,14.1412174 34.4347826,13.5652174 C34.4347826,12.9892174 34.9022609,12.5217391 35.4782609,12.5217391 L37.5652174,12.5217391 L37.5652174,5.2173913 C37.5652174,3.49147826 36.1606957,2.08695652 34.4347826,2.08695652 L13.5652174,2.08695652 C11.8393043,2.08695652 10.4347826,3.49147826 10.4347826,5.2173913 L10.4347826,13.5652174 C10.4347826,14.1412174 9.96730435,14.6086957 9.39130435,14.6086957 C8.81530435,14.6086957 8.34782609,14.1412174 8.34782609,13.5652174 L8.34782609,5.2173913 C8.34782609,2.34156522 10.6893913,0 13.5652174,0 L34.4347826,0 C37.3106087,0 39.6521739,2.34156522 39.6521739,5.2173913 L39.6521739,13.5652174 C39.6521739,14.1412174 39.1846957,14.6086957 38.6086957,14.6086957 L38.6086957,14.6086957 Z"></path>
                                <path d="M19.826087,18.7826087 L14.8862609,18.7826087 C13.9888696,18.7826087 13.1332174,18.3965217 12.5384348,17.7245217 C11.9457391,17.0504348 11.6681739,16.1551304 11.7808696,15.264 L12.3026087,11.090087 C12.4966957,9.52695652 13.8323478,8.34782609 15.408,8.34782609 L19.826087,8.34782609 C21.552,8.34782609 22.9565217,9.75234783 22.9565217,11.4782609 L22.9565217,15.6521739 C22.9565217,17.378087 21.552,18.7826087 19.826087,18.7826087 L19.826087,18.7826087 Z M15.408,10.4347826 C14.882087,10.4347826 14.4375652,10.8271304 14.3728696,11.3488696 L14.3728696,11.3488696 L13.8511304,15.5227826 C13.8135652,15.8253913 13.9033043,16.1154783 14.1036522,16.3429565 C14.304,16.5704348 14.5815652,16.6956522 14.8862609,16.6956522 L19.826087,16.6956522 C20.402087,16.6956522 20.8695652,16.2281739 20.8695652,15.6521739 L20.8695652,11.4782609 C20.8695652,10.9022609 20.402087,10.4347826 19.826087,10.4347826 L15.408,10.4347826 L15.408,10.4347826 Z"></path>
                                <path d="M33.1137391,18.7826087 L28.173913,18.7826087 C26.448,18.7826087 25.0434783,17.378087 25.0434783,15.6521739 L25.0434783,11.4782609 C25.0434783,9.75234783 26.448,8.34782609 28.173913,8.34782609 L32.592,8.34782609 C34.1676522,8.34782609 35.5033043,9.52695652 35.6973913,11.090087 L36.2191304,15.264 C36.3297391,16.1551304 36.0542609,17.0504348 35.4594783,17.7245217 C34.8667826,18.3965217 34.0111304,18.7826087 33.1137391,18.7826087 L33.1137391,18.7826087 Z M28.173913,10.4347826 C27.597913,10.4347826 27.1304348,10.9022609 27.1304348,11.4782609 L27.1304348,15.6521739 C27.1304348,16.2281739 27.597913,16.6956522 28.173913,16.6956522 L33.1137391,16.6956522 C33.4184348,16.6956522 33.696,16.5704348 33.8963478,16.3429565 C34.0966957,16.1154783 34.1864348,15.8233043 34.1488696,15.5227826 L33.6271304,11.3488696 L33.6271304,11.3488696 C33.5624348,10.8271304 33.117913,10.4347826 32.592,10.4347826 L28.173913,10.4347826 L28.173913,10.4347826 Z"></path>
                            </g>
                            <path d="M26.0869565,14.6086957 L21.9130435,14.6086957 C21.3370435,14.6086957 20.8695652,14.1412174 20.8695652,13.5652174 C20.8695652,12.9892174 21.3370435,12.5217391 21.9130435,12.5217391 L26.0869565,12.5217391 C26.6629565,12.5217391 27.1304348,12.9892174 27.1304348,13.5652174 C27.1304348,14.1412174 26.6629565,14.6086957 26.0869565,14.6086957 L26.0869565,14.6086957 Z" id="Shape"></path>
                        </g>
                    </g>
                </g>
            </g>
        </g>
    </g>
</svg>
