<?xml version="1.0" encoding="UTF-8" standalone="no"?>
<svg width="80px" height="78px" viewBox="0 0 80 78" version="1.1" xmlns="http://www.w3.org/2000/svg" xmlns:xlink="http://www.w3.org/1999/xlink">
    <title>Heart</title>
    <defs></defs>
    <g id="Marketing-Site" stroke="none" stroke-width="1" fill="none" fill-rule="evenodd">
        <g id="Home" transform="translate(-1106.000000, -4371.000000)" fill="currentColor">
            <g id="Why-you'll-love-us" transform="translate(124.000000, 4247.000000)">
                <g id="Empathy" transform="translate(853.000000, 124.000000)">
                    <path d="M169,77.1428571 C168.385714,77.1428571 167.771429,76.9457143 167.257143,76.5514286 C165.697143,75.3485714 129,46.8457143 129,22.8571429 C129,10.2542857 139.254286,0 151.857143,0 C164.46,0 174.714286,10.2542857 174.714286,22.8571429 C174.714286,24.4342857 173.437143,25.7142857 171.857143,25.7142857 C170.28,25.7142857 169,24.4342857 169,22.8571429 C169,13.4028571 161.311429,5.71428571 151.857143,5.71428571 C142.402857,5.71428571 134.714286,13.4028571 134.714286,22.8571429 C134.714286,41.3342857 161.791429,64.7228571 169,70.6257143 C176.205714,64.7228571 203.285714,41.3142857 203.285714,22.8571429 C203.285714,13.4028571 195.597143,5.71428571 186.142857,5.71428571 C183.585714,5.71428571 181.125714,6.26285714 178.831429,7.34285714 C177.402857,8.01714286 175.697143,7.40285714 175.028571,5.97714286 C174.357143,4.54857143 174.968571,2.84857143 176.394286,2.17428571 C179.457143,0.731428571 182.737143,0 186.142857,0 C198.745714,0 209,10.2542857 209,22.8571429 C209,46.8457143 172.302857,75.3485714 170.742857,76.5514286 C170.228571,76.9457143 169.614286,77.1428571 169,77.1428571 L169,77.1428571 Z" id="Shape"></path>
                </g>
            </g>
        </g>
    </g>
</svg>
