<?xml version="1.0" encoding="UTF-8" standalone="no"?>
<svg width="28px" height="28px" viewBox="0 0 28 28" version="1.1" xmlns="http://www.w3.org/2000/svg" xmlns:xlink="http://www.w3.org/1999/xlink">
    <title>Clock</title>
    <defs></defs>
    <g id="Page-1" stroke="none" stroke-width="1" fill="none" fill-rule="evenodd">
        <g id="Timeline---4" transform="translate(-25.000000, -916.000000)" fill="currentColor">
            <g id="Approval" transform="translate(0.000000, 900.000000)">
                <g id="Clock" transform="translate(24.000000, 16.000000)">
                    <path d="M15,28 C11.26,28 7.745,26.544 5.101,23.899 C0.779,19.578 -0.248,13.025 2.547,7.595 C2.8,7.104 3.402,6.911 3.894,7.163 C4.386,7.415 4.579,8.018 4.326,8.51 C1.93,13.164 2.81,18.78 6.515,22.485 C8.781,24.752 11.794,26 15,26 C18.205,26 21.219,24.752 23.485,22.485 C25.751,20.218 27,17.205 27,14 C27,10.794 25.752,7.781 23.485,5.515 C21.218,3.249 18.206,2 15,2 C11.794,2 8.781,3.249 6.515,5.515 C6.124,5.906 5.492,5.906 5.101,5.515 C4.71,5.124 4.71,4.492 5.101,4.101 C7.745,1.457 11.26,0 15,0 C18.74,0 22.256,1.457 24.899,4.101 C27.544,6.745 29,10.26 29,14 C29,17.739 27.544,21.255 24.899,23.899 C22.256,26.544 18.74,28 15,28 L15,28 Z" id="Shape"></path>
                    <path d="M19.999,19 C19.78,19 19.56,18.929 19.375,18.781 L14.375,14.781 C14.138,14.591 14,14.304 14,14 L14,6 C14,5.448 14.448,5 15,5 C15.552,5 16,5.448 16,6 L16,13.52 L20.625,17.219 C21.056,17.565 21.126,18.194 20.781,18.625 C20.583,18.871 20.293,19 19.999,19 L19.999,19 Z" id="Shape"></path>
                </g>
            </g>
        </g>
    </g>
</svg>
