<?xml version="1.0" encoding="UTF-8" standalone="no"?>
<svg width="80px" height="80px" viewBox="0 0 80 80" version="1.1" xmlns="http://www.w3.org/2000/svg" xmlns:xlink="http://www.w3.org/1999/xlink">
    <title>Person</title>
    <defs></defs>
    <g id="Marketing-Site" stroke="none" stroke-width="1" fill="none" fill-rule="evenodd">
        <g id="Home" transform="translate(-254.000000, -4371.000000)" fill="currentColor">
            <g id="Why-you'll-love-us" transform="translate(124.000000, 4247.000000)">
                <g id="Local-Agents" transform="translate(0.000000, 124.000000)">
                    <path d="M186.991429,39.5022222 C190.625714,35.3037037 192.857143,29.7748148 192.857143,23.7037037 C192.857143,10.6340741 182.602857,0 170,0 C157.397143,0 147.142857,10.6340741 147.142857,23.7037037 C147.142857,36.7733333 157.397143,47.4074074 170,47.4074074 C174.442857,47.4074074 178.58,46.0651852 182.094286,43.7807407 C194.522857,48.637037 203.08,60.4325926 204.168571,74.0740741 L135.834286,74.0740741 C136.574286,64.8918519 140.728571,56.3288889 147.485714,50.2192593 C148.677143,49.1437037 148.8,47.2740741 147.762857,46.0385185 C146.728571,44.8059259 144.922857,44.6755556 143.731429,45.7511111 C135.002857,53.6385185 130,65.04 130,77.037037 C130,78.6755556 131.28,80 132.857143,80 L207.142857,80 C208.722857,80 210,78.6755556 210,77.037037 C210,60.7822222 200.914286,46.2666667 186.991429,39.5022222 L186.991429,39.5022222 Z M152.857143,23.7037037 C152.857143,13.8992593 160.545714,5.92592593 170,5.92592593 C179.454286,5.92592593 187.142857,13.8992593 187.142857,23.7037037 C187.142857,33.5081481 179.454286,41.4814815 170,41.4814815 C160.545714,41.4814815 152.857143,33.5081481 152.857143,23.7037037 L152.857143,23.7037037 Z" id="Shape"></path>
                </g>
            </g>
        </g>
    </g>
</svg>
