<?xml version="1.0" encoding="UTF-8" standalone="no"?>
<svg width="24px" height="24px" viewBox="0 0 24 24" version="1.1" xmlns="http://www.w3.org/2000/svg" xmlns:xlink="http://www.w3.org/1999/xlink">
    <title>Dashboard</title>
    <desc>Indicates a dashboard screen.</desc>
    <defs></defs>
    <g id="Symbols" stroke="none" stroke-width="1" fill="none" fill-rule="evenodd">
        <g id="Universal-Header---Logged-In-(Dashboard2)" transform="translate(-815.000000, -19.000000)" fill="currentColor">
            <g id="Universal-Header---Logged-In">
                <g id="Dashboard" transform="translate(805.000000, 19.000000)">
                    <g id="1471364868_circle_dashboard_fuel_gauge_meter_icon" transform="translate(10.000000, 0.000000)">
                        <g id="Layer_1">
                            <path d="M12.4137931,24 C9.31862069,24 6.40965517,22.752 4.22151724,20.4848571 C0.644689655,16.7811429 -0.205241379,11.1642857 2.10786207,6.51 C2.31724138,6.08914286 2.81544828,5.92371429 3.22262069,6.13971429 C3.6297931,6.35571429 3.78951724,6.87257143 3.58013793,7.29428571 C1.59724138,11.2834286 2.32551724,16.0971429 5.39172414,19.2728571 C7.26703448,21.216 9.76055172,22.2857143 12.4137931,22.2857143 C15.0662069,22.2857143 17.5605517,21.216 19.4358621,19.2728571 C21.3111724,17.3297143 22.3448276,14.7471429 22.3448276,12 C22.3448276,9.252 21.312,6.66942857 19.4358621,4.72714286 C17.5597241,2.78485714 15.0670345,1.71428571 12.4137931,1.71428571 C9.76055172,1.71428571 7.26703448,2.78485714 5.39172414,4.72714286 C5.06813793,5.06228571 4.54510345,5.06228571 4.22151724,4.72714286 C3.89793103,4.392 3.89793103,3.85028571 4.22151724,3.51514286 C6.40965517,1.24885714 9.31862069,0 12.4137931,0 C15.5089655,0 18.4187586,1.24885714 20.606069,3.51514286 C22.7950345,5.78142857 24,8.79428571 24,12 C24,15.2048571 22.7950345,18.2185714 20.606069,20.4848571 C18.4187586,22.752 15.5089655,24 12.4137931,24 L12.4137931,24 Z" id="Shape"></path>
                            <path d="M12.4137931,15.4285714 C11.529931,15.4285714 10.6982069,15.072 10.0725517,14.424 C8.78151724,13.0868571 8.78151724,10.9122857 10.0725517,9.576 C11.1128276,8.49857143 16.0907586,6.45685714 17.078069,6.05828571 C17.3851034,5.93485714 17.7318621,6.01028571 17.9635862,6.25114286 C18.1953103,6.492 18.2689655,6.85114286 18.1497931,7.16828571 C17.7649655,8.19085714 15.7936552,13.3474286 14.7533793,14.424 C14.1293793,15.072 13.2976552,15.4285714 12.4137931,15.4285714 L12.4137931,15.4285714 Z M15.8797241,8.41114286 C13.8496552,9.29228571 11.6888276,10.3268571 11.2435862,10.788 C10.598069,11.4565714 10.598069,12.5434286 11.2435862,13.212 C11.8692414,13.86 12.9591724,13.86 13.5848276,13.212 C14.0292414,12.75 15.0289655,10.5137143 15.8797241,8.41114286 L15.8797241,8.41114286 Z" id="Shape"></path>
                        </g>
                    </g>
                </g>
            </g>
        </g>
    </g>
</svg>
