<?xml version="1.0" encoding="UTF-8" standalone="no"?>
<svg width="18px" height="23px" viewBox="0 0 18 23" version="1.1" xmlns="http://www.w3.org/2000/svg" xmlns:xlink="http://www.w3.org/1999/xlink">
    <title>Pinterest logo</title>
    <defs></defs>
    <g id="Marketing-Site-(2)" stroke="none" stroke-width="1" fill="none" fill-rule="evenodd">
        <g id="Holding-Page" transform="translate(-860.000000, -480.000000)" fill="#C92228">
            <g id="Group" transform="translate(562.000000, 480.000000)">
                <path d="M298,8.42409215 C298,10.1785585 298.696429,12.7365973 300.61161,13.3124908 C300.678575,13.3258837 300.772325,13.3526695 300.839289,13.3526695 C301.281254,13.3526695 301.535719,12.1205251 301.535719,11.7723104 C301.535719,11.3571314 300.477682,10.4732017 300.477682,8.74552111 C300.477682,5.15623111 303.209828,2.61158522 306.745546,2.61158522 C309.785728,2.61158522 312.035731,4.33926585 312.035731,7.51337678 C312.035731,9.88391532 311.084837,14.3303492 308.004476,14.3303492 C306.892868,14.3303492 305.941974,13.5267768 305.941974,12.3749897 C305.941974,10.6874877 307.120547,9.05355719 307.120547,7.31248368 C307.120547,6.25444671 306.517867,5.39730283 305.392866,5.39730283 C303.866078,5.39730283 302.928577,7.11159059 302.928577,8.46427077 C302.928577,9.21427166 303.022327,10.0446298 303.357149,10.7276663 C302.741077,13.3794552 301.482147,17.3303528 301.482147,20.0624989 C301.482147,20.9062499 301.602683,21.736608 301.68304,22.580359 L301.803576,22.7142878 L301.991076,22.6473234 C304.241079,19.5669626 304.160722,18.9642833 305.17858,14.9330285 C305.727688,15.9776726 307.147332,16.5401733 308.272334,16.5401733 C313.013411,16.5401733 315.142878,11.919632 315.142878,7.7544485 C315.142878,3.3214075 311.312516,0.428546906 307.107154,0.428546906 C302.526791,0.428546906 298,3.48212197 298,8.42409215 L298,8.42409215 Z" id=""></path>
            </g>
        </g>
    </g>
</svg>
