<?xml version="1.0" encoding="UTF-8" standalone="no"?>
<svg width="14px" height="16px" viewBox="0 0 14 16" version="1.1" xmlns="http://www.w3.org/2000/svg" xmlns:xlink="http://www.w3.org/1999/xlink">
    <title>Property feedback</title>
    <defs></defs>
    <g id="Account----On-the-market-(2)" stroke="none" stroke-width="1" fill="none" fill-rule="evenodd">
        <g id="Property---4.0-On-the-market---Activity" transform="translate(-796.000000, -203.000000)" fill="#00B991">
            <g id="Nav" transform="translate(244.000000, 202.000000)">
                <g id="Feedback" transform="translate(552.000000, 0.000000)">
                    <path d="M13.9545,5.92285714 C13.92475,5.85314286 13.8821667,5.79085714 13.8285,5.73828571 L9.163,1.168 C9.10933333,1.11542857 9.04575,1.07371429 8.97458333,1.04457143 C8.904,1.01542857 8.82816667,1 8.75,1 L0.583333333,1 C0.261333333,1 0,1.256 0,1.57142857 C0,1.88685714 0.261333333,2.14285714 0.583333333,2.14285714 L8.16666667,2.14285714 L8.16666667,6.14285714 C8.16666667,6.45828571 8.42741667,6.71428571 8.75,6.71428571 L12.8333333,6.71428571 L12.8333333,15.8571429 L1.16666667,15.8571429 L1.16666667,3.85714286 C1.16666667,3.54171429 0.905333333,3.28571429 0.583333333,3.28571429 C0.261333333,3.28571429 0,3.54171429 0,3.85714286 L0,16.4285714 C0,16.7445714 0.261333333,17 0.583333333,17 L13.4166667,17 C13.73925,17 14,16.7445714 14,16.4285714 L14,6.14285714 C14,6.06685714 13.98425,5.992 13.9545,5.92285714 L13.9545,5.92285714 Z M9.33333333,2.95085714 L12.0085,5.57142857 L9.33333333,5.57142857 L9.33333333,2.95085714 L9.33333333,2.95085714 Z" id="Shape"></path>
                </g>
            </g>
        </g>
    </g>
</svg>
