<?xml version="1.0" encoding="UTF-8" standalone="no"?>
<svg width="73px" height="81px" viewBox="0 0 73 81" version="1.1" xmlns="http://www.w3.org/2000/svg" xmlns:xlink="http://www.w3.org/1999/xlink">
    <title>Thumbs up</title>
    <defs></defs>
    <g id="Page-1" stroke="none" stroke-width="1" fill="none" fill-rule="evenodd" stroke-linecap="round" stroke-linejoin="round">
        <g transform="translate(2.000000, 2.000000)" stroke="#41B992" stroke-width="4">
            <path d="M15.9669,76.0847 L16.2149,28.5847" id="Stroke-1"></path>
            <path d="M43.5915,28.5847 C46.0295,23.8347 48.1545,16.4597 47.4885,6.4997 C47.2485,2.9177 44.5785,-0.0003 40.9885,-0.0003 C37.3985,-0.0003 34.4885,2.9107 34.4885,6.4997 L34.4885,10.3107 C34.4885,20.4037 26.3065,28.5847 16.2145,28.5847 L0.1995,28.5847 L0.2005,76.0847" id="Stroke-3"></path>
            <path d="M38,29.2305 L58.789,29.2305 C62.704,29.2305 65.88,32.0845 65.88,35.9995 C65.88,38.0745 64.985,39.6515 63.564,40.9485 C66.605,41.9775 68.8,44.8345 68.8,48.2235 C68.8,51.3155 66.981,53.9725 64.351,55.1985 C65.613,56.4605 66.408,58.2155 66.408,60.1415 C66.408,63.0285 64.683,65.5335 62.184,66.5955 C63.153,67.5355 63.817,69.1945 63.817,70.6505 C63.817,73.5055 61.616,76.2305 58.762,76.2305 L58.543,76.2305 L0,76.2305" id="Stroke-5"></path>
        </g>
    </g>
</svg>
