<?xml version="1.0" encoding="UTF-8" standalone="no"?>
<svg width="18px" height="14px" viewBox="0 0 18 14" version="1.1" xmlns="http://www.w3.org/2000/svg" xmlns:xlink="http://www.w3.org/1999/xlink">
    <title>Camera</title>
    <defs></defs>
    <g id="Listing-(Mobile)" stroke="none" stroke-width="1" fill="none" fill-rule="evenodd">
        <g id="Listing---Mobile" transform="translate(-250.000000, -244.000000)" fill="currentColor">
            <g id="Group-2" transform="translate(0.000000, 52.000000)">
                <g id="Photo-Shots" transform="translate(240.000000, 184.000000)">
                    <path d="M26.4347826,21.3043478 L11.5652174,21.3043478 C10.7008261,21.3043478 10,20.6035217 10,19.7391304 L10,11.1304348 C10,10.2660435 10.7008261,9.56521739 11.5652174,9.56521739 L11.9565217,9.56521739 L11.9565217,9.56521739 C11.9565217,9.13321739 12.3071304,8.7826087 12.7391304,8.7826087 L13.5217391,8.7826087 C13.9537391,8.7826087 14.3043478,9.13321739 14.3043478,9.56521739 L15.0869565,9.56521739 C15.0869565,9.56521739 15.5271739,9.51630435 15.8695652,9.17391304 L16.6521739,8.39130435 C16.6521739,8.39130435 16.9577826,8 17.4347826,8 L20.5652174,8 C21.0786087,8 21.3478261,8.39130435 21.3478261,8.39130435 L22.1304348,9.17391304 C22.4728261,9.51630435 22.9130435,9.56521739 22.9130435,9.56521739 L26.4347826,9.56521739 C27.2991739,9.56521739 28,10.2660435 28,11.1304348 L28,19.7391304 C28,20.6035217 27.2991739,21.3043478 26.4347826,21.3043478 L26.4347826,21.3043478 Z M27.2173913,11.1304348 C27.2173913,10.6984348 26.8667826,10.3478261 26.4347826,10.3478261 L22.8265652,10.3427391 C22.7072174,10.3298261 22.0873913,10.2374783 21.5771304,9.72721739 L20.7436522,8.89373913 L20.7029565,8.83465217 C20.7025652,8.83426087 20.641913,8.7826087 20.5652174,8.7826087 L17.4347826,8.7826087 C17.374913,8.7826087 17.2880435,8.85226087 17.2688696,8.873 L17.2395217,8.91056522 L16.4228696,9.72682609 C15.9122174,10.2374783 15.2923913,10.3294348 15.1734348,10.3423478 L13.5491304,10.3446957 C13.5397391,10.3454783 13.5307391,10.3478261 13.5217391,10.3478261 L12.7391304,10.3478261 C12.7336522,10.3478261 12.7289565,10.3462609 12.7234783,10.3462609 L11.5652174,10.3478261 C11.1332174,10.3478261 10.7826087,10.6984348 10.7826087,11.1304348 L10.7826087,19.7391304 C10.7826087,20.1711304 11.1332174,20.5217391 11.5652174,20.5217391 L26.4347826,20.5217391 C26.8667826,20.5217391 27.2173913,20.1711304 27.2173913,19.7391304 L27.2173913,11.1304348 L27.2173913,11.1304348 Z M19,19.7391304 C16.6228261,19.7391304 14.6956522,17.8119565 14.6956522,15.4347826 C14.6956522,13.0576087 16.6228261,11.1304348 19,11.1304348 C21.3771739,11.1304348 23.3043478,13.0576087 23.3043478,15.4347826 C23.3043478,17.8119565 21.3771739,19.7391304 19,19.7391304 L19,19.7391304 Z M19,11.9130435 C17.0548261,11.9130435 15.4782609,13.4896087 15.4782609,15.4347826 C15.4782609,17.3799565 17.0548261,18.9565217 19,18.9565217 C20.9451739,18.9565217 22.5217391,17.3799565 22.5217391,15.4347826 C22.5217391,13.4896087 20.9451739,11.9130435 19,11.9130435 L19,11.9130435 Z M19,17.3913043 C17.9192174,17.3913043 17.0434783,16.5155652 17.0434783,15.4347826 C17.0434783,14.354 17.9192174,13.4782609 19,13.4782609 C20.0807826,13.4782609 20.9565217,14.354 20.9565217,15.4347826 C20.9565217,16.5155652 20.0807826,17.3913043 19,17.3913043 L19,17.3913043 Z M19,14.2608696 C18.352,14.2608696 17.826087,14.7867826 17.826087,15.4347826 C17.826087,16.0831739 18.352,16.6086957 19,16.6086957 C19.6483913,16.6086957 20.173913,16.0831739 20.173913,15.4347826 C20.173913,14.7867826 19.6483913,14.2608696 19,14.2608696 L19,14.2608696 Z M13.5217391,12.6956522 L11.9565217,12.6956522 C11.7401304,12.6956522 11.5652174,12.5207391 11.5652174,12.3043478 L11.5652174,11.5217391 C11.5652174,11.3057391 11.7401304,11.1304348 11.9565217,11.1304348 L13.5217391,11.1304348 C13.7381304,11.1304348 13.9130435,11.3057391 13.9130435,11.5217391 L13.9130435,12.3043478 C13.9130435,12.5207391 13.7381304,12.6956522 13.5217391,12.6956522 L13.5217391,12.6956522 Z" id="Camera"></path>
                </g>
            </g>
        </g>
    </g>
</svg>
