<?xml version="1.0" encoding="UTF-8" standalone="no"?>
<svg width="52px" height="130px" viewBox="0 0 52 130" version="1.1" xmlns="http://www.w3.org/2000/svg" xmlns:xlink="http://www.w3.org/1999/xlink">
    <title>Arrow</title>
    <desc>An arrow indicating to read more about Moovyn.</desc>
    <defs></defs>
    <g id="Marketing-Site" stroke="none" stroke-width="1" fill="none" fill-rule="evenodd" opacity="0.2">
        <g id="Home" transform="translate(-1013.000000, -1364.000000)" fill="#2F3230">
            <path d="M1032.88236,1482.5771 C1033.77836,1483.0231 1034.68136,1483.1851 1035.55936,1482.9261 C1035.75636,1483.0881 1035.95236,1483.2511 1036.15136,1483.4101 C1038.00036,1485.1951 1040.01836,1486.7761 1042.21636,1488.1131 C1038.85036,1486.7601 1035.69636,1484.8991 1032.88236,1482.5771 L1032.88236,1482.5771 Z M1022.39636,1468.2301 C1023.20336,1469.9891 1024.10836,1471.7101 1025.12636,1473.3771 C1025.46836,1473.9381 1025.95636,1474.7581 1026.55236,1475.6871 C1024.91436,1473.3361 1023.53736,1470.8391 1022.39636,1468.2301 L1022.39636,1468.2301 Z M1025.53036,1395.4801 C1026.48836,1393.6831 1027.60536,1392.0321 1028.83436,1390.4871 C1025.20236,1396.0291 1022.60136,1402.3991 1020.88936,1408.9221 C1021.82736,1404.2021 1023.31036,1399.6431 1025.53036,1395.4801 L1025.53036,1395.4801 Z M1018.09436,1453.1711 C1017.27736,1448.3701 1016.84236,1443.5031 1016.56936,1438.7901 C1016.27736,1433.7601 1016.35136,1428.4811 1016.86236,1423.1911 C1016.83036,1426.8651 1016.99936,1430.5071 1017.32036,1434.0231 C1017.38636,1434.7441 1017.45936,1435.4751 1017.53936,1436.2141 C1017.44736,1440.7101 1017.61836,1445.2031 1018.18236,1449.5721 C1017.92436,1449.7731 1017.76036,1450.0951 1017.79936,1450.5521 C1017.87436,1451.4291 1017.97936,1452.3011 1018.09436,1453.1711 L1018.09436,1453.1711 Z M1034.34836,1387.1891 C1031.04736,1391.4991 1028.31336,1396.4021 1026.12136,1401.4891 C1028.13036,1396.1821 1030.80736,1391.2901 1034.34836,1387.1891 L1034.34836,1387.1891 Z M1063.87436,1487.0051 C1036.73736,1489.1891 1022.77236,1461.1671 1021.85836,1437.8991 C1021.38336,1425.8111 1023.75036,1413.5971 1028.76536,1402.5821 C1032.95336,1393.3831 1039.14536,1383.4961 1048.14336,1378.2871 C1043.82036,1383.6611 1040.36336,1389.6211 1037.77336,1396.0941 C1037.77336,1396.0951 1037.77236,1396.0951 1037.77236,1396.0951 L1037.77236,1396.0961 C1037.72836,1396.2061 1037.67836,1396.3121 1037.63436,1396.4221 C1037.42536,1396.9521 1037.57936,1397.3911 1037.89636,1397.6861 C1038.02336,1398.7801 1039.62636,1399.3311 1040.46936,1398.2151 C1040.52236,1398.1451 1040.57536,1398.0761 1040.62836,1398.0061 C1041.03036,1397.9741 1041.42636,1397.7861 1041.68736,1397.4071 C1041.77136,1397.2841 1041.85636,1397.1621 1041.94036,1397.0391 C1041.52036,1397.9691 1041.09736,1398.8961 1040.67736,1399.8261 C1039.95636,1401.4251 1042.13436,1402.7951 1043.07736,1401.2291 C1047.48536,1393.9081 1051.89336,1386.5871 1056.30136,1379.2661 C1056.51136,1378.9181 1056.54036,1378.5641 1056.45136,1378.2491 C1057.41336,1377.0751 1058.43436,1375.9391 1059.51636,1374.8461 C1060.18736,1374.1681 1059.94036,1372.8001 1058.92236,1372.5981 C1058.86636,1372.5871 1058.81036,1372.5791 1058.75436,1372.5671 C1058.92036,1371.9141 1058.66636,1371.1461 1057.87336,1370.9791 C1056.65136,1370.7201 1055.42936,1370.4581 1054.20636,1370.1991 C1054.09036,1370.1101 1053.95036,1370.0411 1053.78536,1370.0021 C1051.72236,1369.5071 1049.64236,1369.1051 1047.55036,1368.7851 C1040.92536,1367.3791 1034.29936,1365.9761 1027.67636,1364.5621 C1026.09536,1364.2241 1025.48736,1366.4501 1027.01136,1366.9761 C1029.55136,1367.8531 1032.11636,1368.6141 1034.70036,1369.2861 C1033.48836,1369.1441 1032.27736,1368.9881 1031.06736,1368.8181 C1029.74736,1368.6171 1028.42636,1368.4231 1027.10736,1368.2051 C1026.03936,1368.0291 1025.36636,1369.0211 1025.47336,1369.8211 C1024.62236,1369.8261 1023.77236,1369.8251 1022.92136,1369.8371 C1021.47836,1369.8581 1021.07436,1372.1071 1022.57036,1372.4271 C1029.29636,1373.8661 1036.09036,1374.2321 1042.91036,1374.2081 C1026.09236,1382.2371 1016.69036,1400.7561 1014.41236,1419.0251 C1012.89536,1431.1841 1013.59036,1443.9571 1015.96936,1455.9711 C1018.06936,1466.5731 1022.38336,1477.2291 1030.81636,1484.3691 C1039.67136,1491.8671 1051.54236,1494.8251 1062.89636,1492.7241 C1064.18836,1492.4851 1064.14336,1490.4291 1062.89636,1490.1581 C1061.48736,1489.8511 1060.08536,1489.5011 1058.69536,1489.1071 C1060.48936,1489.1641 1062.30136,1489.0821 1064.12036,1488.8241 C1065.14536,1488.6781 1064.91236,1486.9211 1063.87436,1487.0051 L1063.87436,1487.0051 Z" id="Arrow" transform="translate(1039.195351, 1428.955285) rotate(-180.000000) translate(-1039.195351, -1428.955285) "></path>
        </g>
    </g>
</svg>
