<?xml version="1.0" encoding="UTF-8" standalone="no"?>
<svg width="15px" height="15px" viewBox="0 0 15 15" version="1.1" xmlns="http://www.w3.org/2000/svg" xmlns:xlink="http://www.w3.org/1999/xlink">
    <title>Full star</title>
    <defs></defs>
    <g id="Account---On-the-market" stroke="none" stroke-width="1" fill="none" fill-rule="evenodd">
        <g id="Property---4.0-On-the-market---Offers---Offer-(Feedback)" transform="translate(-430.000000, -363.000000)" fill="currentColor">
            <g id="Modal" transform="translate(350.000000, 119.000000)">
                <g id="Living-areas" transform="translate(40.000000, 221.000000)">
                    <path d="M54.8571606,29.0624905 C54.8571606,28.7946331 54.5714459,28.6874901 54.35716,28.6517758 L49.8750118,27.9999893 L47.8660808,23.9374844 C47.7857236,23.7678414 47.6339377,23.5714126 47.4285803,23.5714126 C47.2232229,23.5714126 47.071437,23.7678414 46.9910798,23.9374844 L44.9821488,27.9999893 L40.5000006,28.6517758 C40.276786,28.6874901 40,28.7946331 40,29.0624905 C40,29.223205 40.1160716,29.3749909 40.2232146,29.4910625 L43.4732184,32.6517805 L42.7053604,37.1160716 C42.6964318,37.1785716 42.6875032,37.2321431 42.6875032,37.2946432 C42.6875032,37.5267863 42.8035748,37.7410723 43.0625037,37.7410723 C43.1875038,37.7410723 43.3035754,37.6964294 43.4196469,37.6339293 L47.4285803,35.526784 L51.4375136,37.6339293 C51.5446566,37.6964294 51.6696568,37.7410723 51.7946569,37.7410723 C52.0535858,37.7410723 52.1607288,37.5267863 52.1607288,37.2946432 C52.1607288,37.2321431 52.1607288,37.1785716 52.1518002,37.1160716 L51.3839421,32.6517805 L54.6250174,29.4910625 C54.741089,29.3749909 54.8571606,29.223205 54.8571606,29.0624905 L54.8571606,29.0624905 Z" id="fa-star"></path>
                </g>
            </g>
        </g>
    </g>
</svg>
