<?xml version="1.0" encoding="UTF-8" standalone="no"?>
<svg width="24px" height="17px" viewBox="0 0 24 17" version="1.1" xmlns="http://www.w3.org/2000/svg" xmlns:xlink="http://www.w3.org/1999/xlink">
    <title>End of quote</title>
    <defs></defs>
    <g id="Marketing-Site-(2)" stroke="none" stroke-width="1" fill="none" fill-rule="evenodd">
        <g id="Home" transform="translate(-1302.000000, -4194.000000)" fill="#5CD4B1">
            <g id="Testimonials" transform="translate(0.000000, 4000.000000)">
                <g id="Quote" transform="translate(531.000000, 80.000000)">
                    <path d="M779.24,121.48 C780.733341,122.440005 781.48,123.733325 781.48,125.36 C781.48,126.986675 781.000005,128.266662 780.04,129.2 C779.079995,130.133338 777.880007,130.6 776.44,130.6 C774.999993,130.6 773.786672,130.146671 772.8,129.24 C771.813328,128.333329 771.32,127.146674 771.32,125.68 C771.32,124.213326 771.799995,122.786674 772.76,121.4 L777.48,114.6 L782.36,114.6 L779.24,121.48 Z M791.48,121.48 C792.973341,122.440005 793.72,123.733325 793.72,125.36 C793.72,126.986675 793.240005,128.266662 792.28,129.2 C791.319995,130.133338 790.120007,130.6 788.68,130.6 C787.239993,130.6 786.026672,130.146671 785.04,129.24 C784.053328,128.333329 783.56,127.146674 783.56,125.68 C783.56,124.213326 784.039995,122.786674 785,121.4 L789.72,114.6 L794.6,114.6 L791.48,121.48 Z" id="“" transform="translate(782.960000, 122.600000) scale(-1, 1) translate(-782.960000, -122.600000) "></path>
                </g>
            </g>
        </g>
    </g>
</svg>
