<?xml version="1.0" encoding="UTF-8" standalone="no"?>
<svg width="15px" height="15px" viewBox="0 0 15 15" version="1.1" xmlns="http://www.w3.org/2000/svg" xmlns:xlink="http://www.w3.org/1999/xlink">
    <title>Empty star</title>
    <defs></defs>
    <g id="Account---On-the-market" stroke="none" stroke-width="1" fill="none" fill-rule="evenodd">
        <g id="Property---4.0-On-the-market---Offers---Offer-(Feedback)" transform="translate(-471.000000, -372.000000)" fill="currentColor">
            <g id="Modal" transform="translate(351.000000, 128.000000)">
                <g id="Living-areas" transform="translate(40.000000, 221.000000)">
                    <path d="M90.1517978,32.2499943 L90.7946557,36.0089274 L87.4285803,34.2321396 L84.0535763,36.0089274 L84.7053628,32.2499943 L81.9732166,29.5982055 L85.7410783,29.0446334 L87.4285803,25.633915 L89.1160823,29.0446334 L92.8839439,29.5982055 L90.1517978,32.2499943 Z M94.8571606,29.0624905 C94.8571606,28.7946331 94.5714459,28.6874901 94.35716,28.6517758 L89.8750118,27.9999893 L87.8660808,23.9374844 C87.7857236,23.7678414 87.6339377,23.5714126 87.4285803,23.5714126 C87.2232229,23.5714126 87.071437,23.7678414 86.9910798,23.9374844 L84.9821488,27.9999893 L80.5000006,28.6517758 C80.276786,28.6874901 80,28.7946331 80,29.0624905 C80,29.223205 80.1160716,29.3749909 80.2232146,29.4910625 L83.4732184,32.6517805 L82.7053604,37.1160716 C82.6964318,37.1785716 82.6875032,37.2321431 82.6875032,37.2946432 C82.6875032,37.5267863 82.8035748,37.7410723 83.0625037,37.7410723 C83.1875038,37.7410723 83.3035754,37.6964294 83.4196469,37.6339293 L87.4285803,35.526784 L91.4375136,37.6339293 C91.5446566,37.6964294 91.6696568,37.7410723 91.7946569,37.7410723 C92.0535858,37.7410723 92.1607288,37.5357149 92.1607288,37.2946432 C92.1607288,37.2321431 92.1607288,37.1785716 92.1518002,37.1160716 L91.3839421,32.6517805 L94.6250174,29.4910625 C94.741089,29.3749909 94.8571606,29.223205 94.8571606,29.0624905 L94.8571606,29.0624905 Z" id="fa-star-o"></path>
                </g>
            </g>
        </g>
    </g>
</svg>
