<?xml version="1.0" encoding="UTF-8" standalone="no"?>
<svg width="20px" height="48px" viewBox="0 0 20 48" version="1.1" xmlns="http://www.w3.org/2000/svg" xmlns:xlink="http://www.w3.org/1999/xlink">
    <title>Arrow to promo message</title>
    <defs></defs>
    <g id="Landing-Page-(3)" stroke="none" stroke-width="1" fill="none" fill-rule="evenodd" opacity="0.2">
        <g id="Home" transform="translate(-1092.000000, -150.000000)" fill="#2F3230">
            <g id="Hero" transform="translate(-287.000000, 9.000000)">
                <path d="M1386.20308,184.974617 C1386.53796,185.140756 1386.87544,185.201103 1387.20359,185.104623 C1387.27721,185.164969 1387.35047,185.225688 1387.42484,185.284917 C1388.11589,185.949846 1388.87009,186.538783 1389.69157,187.036828 C1388.43356,186.532823 1387.25479,185.839583 1386.20308,184.974617 L1386.20308,184.974617 Z M1382.28405,179.630228 C1382.58566,180.285471 1382.92389,180.92656 1383.30436,181.547532 C1383.43218,181.75651 1383.61456,182.061968 1383.83731,182.408029 C1383.22512,181.53226 1382.71049,180.602104 1382.28405,179.630228 L1382.28405,179.630228 Z M1383.45535,152.530184 C1383.81339,151.860785 1384.23086,151.245773 1384.69019,150.670246 C1383.33276,152.734692 1382.36066,155.107575 1381.72082,157.537453 C1382.07139,155.779209 1382.62565,154.08094 1383.45535,152.530184 L1383.45535,152.530184 Z M1380.67622,174.020612 C1380.37087,172.232195 1380.2083,170.419193 1380.10627,168.663557 C1379.99713,166.789836 1380.02479,164.82336 1380.21577,162.852786 C1380.20381,164.221385 1380.26697,165.578064 1380.38694,166.887806 C1380.41161,167.156385 1380.43889,167.428689 1380.46879,167.703974 C1380.43441,169.378775 1380.49832,171.052459 1380.70911,172.679951 C1380.61268,172.754826 1380.55139,172.874774 1380.56597,173.04501 C1380.594,173.371701 1380.63324,173.696529 1380.67622,174.020612 L1380.67622,174.020612 Z M1386.75099,149.441711 C1385.51727,151.047225 1384.49547,152.873638 1383.67623,154.768592 C1384.42707,152.791686 1385.42757,150.969371 1386.75099,149.441711 L1386.75099,149.441711 Z M1397.78603,186.624088 C1387.64385,187.437648 1382.42457,176.999195 1382.08298,168.331652 C1381.90545,163.828761 1382.79009,159.278933 1384.6644,155.175745 C1386.22962,151.749033 1388.54382,148.066034 1391.90673,146.125634 C1390.29105,148.127498 1388.99903,150.347653 1388.03105,152.758905 C1388.03105,152.759278 1388.03067,152.759278 1388.03067,152.759278 L1388.03067,152.75965 C1388.01423,152.800626 1387.99554,152.840112 1387.9791,152.881088 C1387.90098,153.078518 1387.95854,153.242049 1388.07702,153.35194 C1388.12448,153.759465 1388.72359,153.964717 1389.03865,153.548997 C1389.05846,153.522921 1389.07827,153.497218 1389.09807,153.471143 C1389.24832,153.459222 1389.39632,153.389191 1389.49386,153.24801 C1389.52526,153.202191 1389.55703,153.156745 1389.58842,153.110926 C1389.43145,153.45736 1389.27336,153.802676 1389.11639,154.149109 C1388.84692,154.744751 1389.66093,155.255089 1390.01336,154.67174 C1391.66081,151.9446 1393.30825,149.21746 1394.9557,146.49032 C1395.03418,146.360687 1395.04502,146.228819 1395.01176,146.111479 C1395.3713,145.674153 1395.75289,145.250982 1396.15727,144.84383 C1396.40805,144.591269 1396.31574,144.081676 1395.93527,144.006429 C1395.91434,144.002332 1395.89341,143.999351 1395.87248,143.994881 C1395.93452,143.751633 1395.83959,143.465546 1395.54322,143.403337 C1395.08651,143.306857 1394.6298,143.20926 1394.17271,143.11278 C1394.12936,143.079626 1394.07704,143.053923 1394.01537,143.039395 C1393.24434,142.855003 1392.46697,142.705255 1391.6851,142.586052 C1389.20907,142.062304 1386.73267,141.539673 1384.25739,141.012945 C1383.66651,140.887037 1383.43928,141.716243 1384.00886,141.912183 C1384.95816,142.238873 1385.9168,142.522353 1386.88254,142.772679 C1386.42957,142.719782 1385.97697,142.661671 1385.52475,142.598344 C1385.03141,142.52347 1384.5377,142.451203 1384.04474,142.369996 C1383.64558,142.304435 1383.39406,142.673964 1383.43405,142.971971 C1383.11599,142.973834 1382.79831,142.973461 1382.48026,142.977931 C1381.94095,142.985754 1381.78996,143.823527 1382.34908,143.94273 C1384.86285,144.478771 1387.40204,144.615109 1389.95095,144.606169 C1383.66539,147.597045 1380.15149,154.495543 1379.30011,161.300913 C1378.73315,165.830252 1378.99289,170.588312 1379.88202,175.063638 C1380.66688,179.01298 1382.27919,182.982438 1385.43094,185.642153 C1388.7404,188.435227 1393.17707,189.537109 1397.42051,188.754468 C1397.90339,188.665438 1397.88657,187.899559 1397.42051,187.798609 C1396.89391,187.684249 1396.36993,187.553871 1395.85043,187.407102 C1396.52092,187.428335 1397.19814,187.397789 1397.87797,187.301682 C1398.26105,187.247296 1398.17397,186.592797 1397.78603,186.624088 L1397.78603,186.624088 Z" id="Arrow" transform="translate(1388.562500, 165.000000) scale(1, -1) rotate(-180.000000) translate(-1388.562500, -165.000000) "></path>
            </g>
        </g>
    </g>
</svg>
