<?xml version="1.0" encoding="UTF-8" standalone="no"?>
<svg width="16px" height="11px" viewBox="0 0 16 11" version="1.1" xmlns="http://www.w3.org/2000/svg" xmlns:xlink="http://www.w3.org/1999/xlink">
    <title>A checkmark</title>
    <defs></defs>
    <g id="Book-a-Valuation" stroke="none" stroke-width="1" fill="none" fill-rule="evenodd">
        <g id="1.0:-Start" transform="translate(-47.000000, -406.000000)" fill="currentColor">
            <g id="Info-Bit" transform="translate(30.000000, 339.000000)">
                <path d="M20.4287143,75.0001429 C20.2824286,75.0001429 20.1361429,74.9441429 20.0247143,74.8327143 L17.1675714,71.9755714 C16.9441429,71.7521429 16.9441429,71.391 17.1675714,71.1675714 C17.391,70.9441429 17.7521429,70.9441429 17.9755714,71.1675714 L20.8327143,74.0247143 C21.0561429,74.2481429 21.0561429,74.6092857 20.8327143,74.8327143 C20.7212857,74.9441429 20.575,75.0001429 20.4287143,75.0001429 Z M22.7144286,77.2858571 C22.5681429,77.2858571 22.4218571,77.2298571 22.3104286,77.1184286 C22.087,76.895 22.087,76.5338571 22.3104286,76.3104286 L31.4532857,67.1675714 C31.6767143,66.9441429 32.0378571,66.9441429 32.2612857,67.1675714 C32.4847143,67.391 32.4847143,67.7521429 32.2612857,67.9755714 L23.1184286,77.1184286 C23.007,77.2298571 22.8607143,77.2858571 22.7144286,77.2858571 Z" id="Shape"></path>
            </g>
        </g>
    </g>
</svg>
