<?xml version="1.0" encoding="UTF-8" standalone="no"?>
<svg width="24px" height="24px" viewBox="0 0 24 24" version="1.1" xmlns="http://www.w3.org/2000/svg" xmlns:xlink="http://www.w3.org/1999/xlink">
    <title>Pages</title>
    <defs></defs>
    <g id="Marketing-Site" stroke="none" stroke-width="1" fill="none" fill-rule="evenodd">
        <g id="[Mobile]Home" transform="translate(-24.000000, -213.000000)" fill="currentColor">
            <g id="Nav" transform="translate(0.000000, 47.000000)">
                <g id="How-it-works" transform="translate(24.000000, 166.000000)">
                    <g id="1475175438_cascade_display_layout_stack_sw_view">
                        <g id="Layer_1">
                            <g id="Group">
                                <path d="M19.7142857,24 L0.857142857,24 C0.384,24 0,23.6168571 0,23.1428571 L0,7.71428571 C0,7.24114286 0.384,6.85714286 0.857142857,6.85714286 C1.33028571,6.85714286 1.71428571,7.24114286 1.71428571,7.71428571 L1.71428571,22.2857143 L18.8571429,22.2857143 L18.8571429,5.14285714 L0.857142857,5.14285714 C0.384,5.14285714 0,4.75885714 0,4.28571429 C0,3.81257143 0.384,3.42857143 0.857142857,3.42857143 L19.7142857,3.42857143 C20.1882857,3.42857143 20.5714286,3.81257143 20.5714286,4.28571429 L20.5714286,23.1428571 C20.5714286,23.6168571 20.1882857,24 19.7142857,24 L19.7142857,24 Z" id="Shape"></path>
                                <path d="M23.1428571,17.1428571 C22.6688571,17.1428571 22.2857143,16.7597143 22.2857143,16.2857143 L22.2857143,1.71428571 L7.71428571,1.71428571 C7.24114286,1.71428571 6.85714286,1.33028571 6.85714286,0.857142857 C6.85714286,0.384 7.24114286,0 7.71428571,0 L23.1428571,0 C23.6168571,0 24,0.384 24,0.857142857 L24,16.2857143 C24,16.7597143 23.6168571,17.1428571 23.1428571,17.1428571 L23.1428571,17.1428571 Z" id="Shape"></path>
                            </g>
                        </g>
                    </g>
                </g>
            </g>
        </g>
    </g>
</svg>
