<?xml version="1.0" encoding="UTF-8" standalone="no"?>
<svg width="21px" height="21px" viewBox="0 0 21 21" version="1.1" xmlns="http://www.w3.org/2000/svg" xmlns:xlink="http://www.w3.org/1999/xlink">
    <title>Instagram logo</title>
    <defs></defs>
    <g id="Marketing-Site-(2)" stroke="none" stroke-width="1" fill="none" fill-rule="evenodd">
        <g id="Holding-Page" transform="translate(-759.000000, -482.000000)" fill="#565656">
            <g id="Group" transform="translate(562.000000, 480.000000)">
                <path d="M215.241093,19.526784 C215.241093,19.9821416 214.879486,20.3437492 214.424128,20.3437492 L200.107147,20.3437492 C199.651789,20.3437492 199.290181,19.9821416 199.290181,19.526784 L199.290181,10.8482022 L201.178576,10.8482022 C201.004469,11.39731 200.910719,11.9999893 200.910719,12.6026686 C200.910719,16.0312441 203.776794,18.8035688 207.299119,18.8035688 C210.834838,18.8035688 213.700913,16.0312441 213.700913,12.6026686 C213.700913,11.9999893 213.607163,11.39731 213.433055,10.8482022 L215.241093,10.8482022 L215.241093,19.526784 Z M211.437517,12.3883826 C211.437517,14.5982067 209.589301,16.3928517 207.299119,16.3928517 C205.022331,16.3928517 203.174115,14.5982067 203.174115,12.3883826 C203.174115,10.1785585 205.022331,8.38391353 207.299119,8.38391353 C209.589301,8.38391353 211.437517,10.1785585 211.437517,12.3883826 L211.437517,12.3883826 Z M215.241093,7.56694827 C215.241093,8.07587745 214.825914,8.49105652 214.316985,8.49105652 L211.986625,8.49105652 C211.477696,8.49105652 211.062517,8.07587745 211.062517,7.56694827 L211.062517,5.35712421 C211.062517,4.84819503 211.477696,4.43301596 211.986625,4.43301596 L214.316985,4.43301596 C214.825914,4.43301596 215.241093,4.84819503 215.241093,5.35712421 L215.241093,7.56694827 Z M217.571453,4.78123067 C217.571453,3.33480037 216.379487,2.14283466 214.933057,2.14283466 L199.638396,2.14283466 C198.191966,2.14283466 197,3.33480037 197,4.78123067 L197,20.0758918 C197,21.5223221 198.191966,22.7142878 199.638396,22.7142878 L214.933057,22.7142878 C216.379487,22.7142878 217.571453,21.5223221 217.571453,20.0758918 L217.571453,4.78123067 Z" id=""></path>
            </g>
        </g>
    </g>
</svg>
