<?xml version="1.0" encoding="UTF-8" standalone="no"?>
<svg width="24px" height="18px" viewBox="0 0 24 18" version="1.1" xmlns="http://www.w3.org/2000/svg" xmlns:xlink="http://www.w3.org/1999/xlink">
    <title>Envelope</title>
    <defs></defs>
    <g id="Marketing-Site" stroke="none" stroke-width="1" fill="none" fill-rule="evenodd">
        <g id="[Mobile]Home" transform="translate(-23.000000, -260.000000)" fill="currentColor">
            <g id="Nav" transform="translate(0.000000, 47.000000)">
                <g id="Find-your-perfect-hom" transform="translate(23.000000, 213.000000)">
                    <g id="1475176369_email_envelope_letter_mail">
                        <g id="Layer_1">
                            <path d="M23.1428571,18 L0.857142857,18 C0.384,18 0,17.6342727 0,17.1818182 L0,4.09090909 C0,3.63927273 0.384,3.27272727 0.857142857,3.27272727 C1.33028571,3.27272727 1.71428571,3.63927273 1.71428571,4.09090909 L1.71428571,16.3636364 L22.2857143,16.3636364 L22.2857143,1.63636364 L0.857142857,1.63636364 C0.384,1.63636364 0,1.26981818 0,0.818181818 C0,0.366545455 0.384,0 0.857142857,0 L23.1428571,0 C23.6168571,0 24,0.366545455 24,0.818181818 L24,17.1818182 C24,17.6342727 23.6168571,18 23.1428571,18 L23.1428571,18 Z" id="Shape"></path>
                            <path d="M12,11.4545455 C11.7805714,11.4545455 11.5611429,11.3743636 11.394,11.2148182 L4.53685714,4.66936364 C4.20171429,4.34945455 4.20171429,3.83236364 4.53685714,3.51245455 C4.872,3.19254545 5.41371429,3.19254545 5.74885714,3.51245455 L12,9.47945455 L18.2511429,3.51245455 C18.5862857,3.19254545 19.128,3.19254545 19.4631429,3.51245455 C19.7982857,3.83236364 19.7982857,4.34945455 19.4631429,4.66936364 L12.606,11.2148182 C12.4388571,11.3743636 12.2194286,11.4545455 12,11.4545455 L12,11.4545455 Z" id="Shape"></path>
                            <path d="M18.858,14.7272727 C18.6385714,14.7272727 18.4191429,14.6470909 18.252,14.4875455 L15.6788571,12.0313636 C15.3437143,11.7114545 15.3437143,11.1943636 15.6788571,10.8744545 C16.014,10.5545455 16.5557143,10.5545455 16.8908571,10.8744545 L19.464,13.3306364 C19.7991429,13.6505455 19.7991429,14.1676364 19.464,14.4875455 C19.2968571,14.6470909 19.0774286,14.7272727 18.858,14.7272727 L18.858,14.7272727 Z" id="Shape"></path>
                            <path d="M5.14371429,14.7272727 C4.92428571,14.7272727 4.70485714,14.6470909 4.53771429,14.4875455 C4.20257143,14.1676364 4.20257143,13.6505455 4.53771429,13.3306364 L7.10828571,10.8769091 C7.44342857,10.557 7.98514286,10.557 8.32028571,10.8769091 C8.65542857,11.1968182 8.65542857,11.7139091 8.32028571,12.0338182 L5.74971429,14.4875455 C5.58257143,14.6470909 5.36314286,14.7272727 5.14371429,14.7272727 L5.14371429,14.7272727 Z" id="Shape"></path>
                        </g>
                    </g>
                </g>
            </g>
        </g>
    </g>
</svg>
