<?xml version="1.0" encoding="UTF-8" standalone="no"?>
<svg width="22px" height="18px" viewBox="0 0 22 18" version="1.1" xmlns="http://www.w3.org/2000/svg" xmlns:xlink="http://www.w3.org/1999/xlink">
    <title>Twitter logo</title>
    <defs></defs>
    <g id="Marketing-Site-(2)" stroke="none" stroke-width="1" fill="none" fill-rule="evenodd">
        <g id="Holding-Page" transform="translate(-562.000000, -483.000000)" fill="#55ACEE">
            <g id="Group" transform="translate(562.000000, 478.000000)">
                <path d="M21.6964544,7.89283913 C20.9196678,8.22766096 20.0759168,8.46873268 19.20538,8.56248279 C20.1027025,8.02676786 20.7857391,7.18301686 21.107168,6.17855138 C20.2768099,6.67408768 19.3393088,7.03569525 18.361629,7.22319548 C17.5714495,6.37944447 16.4464482,5.85712242 15.200911,5.85712242 C12.8035867,5.85712242 10.875013,7.79908902 10.875013,10.1830204 C10.875013,10.5178423 10.9151916,10.8526641 10.9821559,11.174093 C7.39286596,10.9865928 4.19196928,9.27230506 2.06250246,6.64730193 C1.68750201,7.29015984 1.47321604,8.02676786 1.47321604,8.83034025 C1.47321604,10.330342 2.23660981,11.6562365 3.40178977,12.4330231 C2.69196749,12.4062374 2.02232384,12.2053443 1.4464303,11.8839153 L1.4464303,11.9374868 C1.4464303,14.0401679 2.93303921,15.7812414 4.91518443,16.1830276 C4.55357686,16.2767777 4.16518354,16.3303492 3.77679022,16.3303492 C3.49553988,16.3303492 3.22768242,16.3035634 2.95982496,16.2633848 C3.50893275,17.9776726 5.10268465,19.2232098 7.00447264,19.2633884 C5.51786372,20.4285684 3.65625436,21.1116049 1.63393052,21.1116049 C1.27232295,21.1116049 0.937501118,21.098212 0.589286417,21.0580334 C2.50446727,22.2901777 4.7812557,23 7.23215148,23 C15.1875181,23 19.5402019,16.4107064 19.5402019,10.6919496 C19.5402019,10.5044494 19.5402019,10.3169492 19.526809,10.1294489 C20.37056,9.51337678 21.107168,8.74998301 21.6964544,7.89283913 L21.6964544,7.89283913 Z" id=""></path>
            </g>
        </g>
    </g>
</svg>
