<?xml version="1.0" encoding="UTF-8" standalone="no"?>
<svg width="80px" height="52px" viewbox="0 0 80 52" version="1.1" xmlns="http://www.w3.org/2000/svg" xmlns:xlink="http://www.w3.org/1999/xlink"><symbol id="icon-simple-eye" viewBox="0 0 80 52">
    <title>Eye</title>
    <defs/>
    <g id="Marketing-Site" stroke="none" stroke-width="1" fill="none" fill-rule="evenodd">
        <g id="Home" transform="translate(-681.000000, -4385.000000)" fill="currentColor">
            <g id="Why-you&apos;ll-love-us" transform="translate(124.000000, 4247.000000)">
                <g id="Transparency" transform="translate(427.000000, 124.000000)">
                    <g id="Group" transform="translate(130.000000, 14.000000)">
                        <path d="M40,52 C27.8142857,52 16.2828571,46.7797778 7.52285714,37.3013333 C6.44571429,36.1371111 6.50857143,34.3084444 7.66,33.2193333 C8.81428571,32.1302222 10.62,32.1937778 11.7,33.358 C19.3657143,41.6548889 29.4142857,46.2222222 40,46.2222222 C53.6085714,46.2222222 66.14,38.6966667 73.8285714,26 C66.1428571,13.3033333 53.6085714,5.77777778 40,5.77777778 C25.8914286,5.77777778 12.9371429,13.8695556 5.34285714,27.4242222 C4.56571429,28.8137778 2.81714286,29.3048889 1.44857143,28.5133333 C0.0742857143,27.7275556 -0.405714286,25.9653333 0.371428571,24.5757778 C8.99142857,9.18666667 23.8085714,0 40,0 C56.1942857,0 71.0085714,9.18666667 79.6285714,24.5757778 C80.1228571,25.4597778 80.1228571,26.5402222 79.6285714,27.4213333 C71.0085714,42.8104444 56.1942857,52 40,52 L40,52 Z" id="Shape"/>
                        <path d="M40,40.4444444 C32.1228571,40.4444444 25.7142857,33.9646667 25.7142857,26 C25.7142857,18.0353333 32.1228571,11.5555556 40,11.5555556 C47.8771429,11.5555556 54.2857143,18.0353333 54.2857143,26 C54.2857143,33.9646667 47.8771429,40.4444444 40,40.4444444 L40,40.4444444 Z M40,17.3333333 C35.2742857,17.3333333 31.4285714,21.2217778 31.4285714,26 C31.4285714,30.7782222 35.2742857,34.6666667 40,34.6666667 C44.7257143,34.6666667 48.5714286,30.7782222 48.5714286,26 C48.5714286,21.2217778 44.7257143,17.3333333 40,17.3333333 L40,17.3333333 Z" id="Shape"/>
                    </g>
                </g>
            </g>
        </g>
    </g>
</symbol></svg>
