<?xml version="1.0" encoding="UTF-8"?>
<svg width="1330px" height="275px" viewbox="0 0 1330 275" version="1.1" xmlns="http://www.w3.org/2000/svg" xmlns:xlink="http://www.w3.org/1999/xlink"><symbol id="icon-properties-row" viewBox="0 0 1330 275">
    <title>A row of properties</title>
    <defs>
        <polygon id="path-1" points="0 275 1440 275 1440 0 0 0"/>
    </defs>
    <g id="Home" stroke="none" stroke-width="1" fill="none" fill-rule="evenodd">
        <g transform="translate(-58.000000, -9891.000000)" id="icon-properties-row">
            <g transform="translate(0.000000, 9891.000000)">
                <mask id="mask-2" fill="white">
                    <use xlink:href="#path-1"/>
                </mask>
                <g id="Clip-87"/>
                <g id="hills" mask="url(#mask-2)">
                    <g transform="translate(58.000000, 224.000000)">
                        <path d="M1329.03678,50.8091603 C1329.03678,50.8091603 762.835041,12.8438566 406.825431,1.42683715 C192.364098,-5.4516599 0.959056211,50.8091603 0.959056211,50.8091603 L1329.03678,50.8091603 L1329.03678,50.8091603 Z" id="Fill-1" stroke="none" fill="#E0F0E9" fill-rule="evenodd"/>
                        <path d="M1329.03678,50.8091603 C1329.03678,50.8091603 762.835041,12.8438566 406.825431,1.42683715 C192.364098,-5.4516599 0.959056211,50.8091603 0.959056211,50.8091603 L1329.03678,50.8091603 L1329.03678,50.8091603 Z" id="Stroke-3" stroke="#3FBA91" stroke-width="1" fill="none"/>
                    </g>
                </g>
                <g id="tree" mask="url(#mask-2)">
                    <g transform="translate(261.000000, 215.000000)">
                        <path d="M26.1578059,30.4211917 C26.1578059,37.2688875 20.5892291,42.8209577 13.7211747,42.8209577 C6.85312021,42.8209577 1.2859746,37.2688875 1.2859746,30.4211917 C1.2859746,23.5734958 -2.89153132,0.850104094 13.7211747,0.850104094 C31.0709192,0.850104094 26.1578059,23.5734958 26.1578059,30.4211917" id="Fill-5" stroke="none" fill="#FFFFFF" fill-rule="evenodd"/>
                        <path d="M26.1578059,30.4211917 C26.1578059,37.2688875 20.5892291,42.8209577 13.7211747,42.8209577 C6.85312021,42.8209577 1.2859746,37.2688875 1.2859746,30.4211917 C1.2859746,23.5734958 -2.89153132,0.850104094 13.7211747,0.850104094 C31.0709192,0.850104094 26.1578059,23.5734958 26.1578059,30.4211917 L26.1578059,30.4211917 Z" id="Stroke-7" stroke="#3FBA91" stroke-width="1" stroke-linecap="round" stroke-linejoin="round" fill="none"/>
                        <path d="M23.4723616,30.593909 C23.4723616,36.2421044 18.9286426,40.8223456 13.3227183,40.8223456 C7.71822553,40.8223456 3.17307494,36.2421044 3.17307494,30.593909 C3.17307494,24.9457135 -0.120906626,2.84871617 13.3227183,2.84871617 C26.6432305,2.84871617 23.4723616,24.9457135 23.4723616,30.593909" id="Fill-9" stroke="none" fill="#BDE2D4" fill-rule="evenodd"/>
                        <path d="M13.8091603,37.8244275 L13.8091603,57.8105482" id="Stroke-11" stroke="#3FBA91" stroke-width="1" stroke-linecap="round" stroke-linejoin="round" fill="none"/>
                    </g>
                </g>
                <g id="tree" mask="url(#mask-2)">
                    <g transform="translate(1019.000000, 218.000000)">
                        <path d="M25.6317823,30.4191098 C25.6317823,37.2668056 20.0632055,42.8188758 13.1951511,42.8188758 C6.32709662,42.8188758 0.759951009,37.2668056 0.759951009,30.4191098 C0.759951009,23.5714139 -3.41755491,0.848022207 13.1951511,0.848022207 C30.5448956,0.848022207 25.6317823,23.5714139 25.6317823,30.4191098" id="Fill-13" stroke="none" fill="#FFFFFF" fill-rule="evenodd"/>
                        <path d="M25.6317823,30.4191098 C25.6317823,37.2668056 20.0632055,42.8188758 13.1951511,42.8188758 C6.32709662,42.8188758 0.759951009,37.2668056 0.759951009,30.4191098 C0.759951009,23.5714139 -3.41755491,0.848022207 13.1951511,0.848022207 C30.5448956,0.848022207 25.6317823,23.5714139 25.6317823,30.4191098 L25.6317823,30.4191098 Z" id="Stroke-15" stroke="#3FBA91" stroke-width="1" stroke-linecap="round" stroke-linejoin="round" fill="none"/>
                        <path d="M21.947032,30.5928802 C21.947032,36.24129 17.403313,40.8202637 11.7973887,40.8202637 C6.19289589,40.8202637 1.64774531,36.24129 1.64774531,30.5928802 C1.64774531,24.9444703 -1.64623626,2.84663428 11.7973887,2.84663428 C25.1179008,2.84663428 21.947032,24.9444703 21.947032,30.5928802" id="Fill-17" stroke="none" fill="#BDE2D4" fill-rule="evenodd"/>
                        <path d="M13.2831367,37.8223456 L13.2831367,57.8084663" id="Stroke-19" stroke="#3FBA91" stroke-width="1" stroke-linecap="round" stroke-linejoin="round" fill="none"/>
                    </g>
                </g>
                <g id="tree" mask="url(#mask-2)">
                    <g transform="translate(842.000000, 218.000000)">
                        <path d="M25.7546136,30.4191098 C25.7546136,37.2668056 20.187468,42.8188758 13.3179824,42.8188758 C6.44992799,42.8188758 0.882782376,37.2668056 0.882782376,30.4191098 C0.882782376,23.5714139 -3.29472355,0.848022207 13.3179824,0.848022207 C30.667727,0.848022207 25.7546136,23.5714139 25.7546136,30.4191098" id="Fill-21" stroke="none" fill="#FFFFFF" fill-rule="evenodd"/>
                        <path d="M25.7546136,30.4191098 C25.7546136,37.2668056 20.187468,42.8188758 13.3179824,42.8188758 C6.44992799,42.8188758 0.882782376,37.2668056 0.882782376,30.4191098 C0.882782376,23.5714139 -3.29472355,0.848022207 13.3179824,0.848022207 C30.667727,0.848022207 25.7546136,23.5714139 25.7546136,30.4191098 L25.7546136,30.4191098 Z" id="Stroke-23" stroke="#3FBA91" stroke-width="1" stroke-linecap="round" stroke-linejoin="round" fill="none"/>
                        <path d="M23.0691526,30.5928802 C23.0691526,36.24129 18.5252021,40.8202637 12.9189923,40.8202637 C7.3142141,40.8202637 2.77026364,36.24129 2.77026364,30.5928802 C2.77026364,24.9444703 -0.525317318,2.84663428 12.9189923,2.84663428 C26.2401829,2.84663428 23.0691526,24.9444703 23.0691526,30.5928802" id="Fill-25" stroke="none" fill="#BDE2D4" fill-rule="evenodd"/>
                        <path d="M13.4059681,37.8223456 L13.4059681,57.8084663" id="Stroke-27" stroke="#3FBA91" stroke-width="1" stroke-linecap="round" stroke-linejoin="round" fill="none"/>
                    </g>
                </g>
                <g id="tree" mask="url(#mask-2)">
                    <g transform="translate(409.000000, 217.000000)">
                        <path d="M26.0550994,30.4198037 C26.0550994,37.2674996 20.4865226,42.8195697 13.6184682,42.8195697 C6.75041376,42.8195697 1.18326815,37.2674996 1.18326815,30.4198037 C1.18326815,23.5721079 -2.99423777,0.848716169 13.6184682,0.848716169 C30.9682127,0.848716169 26.0550994,23.5721079 26.0550994,30.4198037" id="Fill-29" stroke="none" fill="#FFFFFF" fill-rule="evenodd"/>
                        <path d="M26.0550994,30.4198037 C26.0550994,37.2674996 20.4865226,42.8195697 13.6184682,42.8195697 C6.75041376,42.8195697 1.18326815,37.2674996 1.18326815,30.4198037 C1.18326815,23.5721079 -2.99423777,0.848716169 13.6184682,0.848716169 C30.9682127,0.848716169 26.0550994,23.5721079 26.0550994,30.4198037 L26.0550994,30.4198037 Z" id="Stroke-31" stroke="#3FBA91" stroke-width="1" stroke-linecap="round" stroke-linejoin="round" fill="none"/>
                        <path d="M22.3703491,30.5935741 C22.3703491,36.2419839 17.8266301,40.8209577 12.2207058,40.8209577 C6.61621303,40.8209577 2.07106245,36.2419839 2.07106245,30.5935741 C2.07106245,24.9451643 -1.22291912,2.84732824 12.2207058,2.84732824 C25.541218,2.84732824 22.3703491,24.9451643 22.3703491,30.5935741" id="Fill-33" stroke="none" fill="#BDE2D4" fill-rule="evenodd"/>
                        <path d="M13.7064539,36.8237335 L13.7064539,56.8098543" id="Stroke-35" stroke="#3FBA91" stroke-width="1" stroke-linecap="round" stroke-linejoin="round" fill="none"/>
                    </g>
                </g>
                <g id="tree" mask="url(#mask-2)">
                    <g transform="translate(280.000000, 228.000000)">
                        <path d="M25.7876475,17.3036797 C25.7876475,24.2162709 20.1942592,29.8209577 13.2956032,29.8209577 C6.39694728,29.8209577 0.80499653,24.2162709 0.80499653,17.3036797 C0.80499653,10.3910886 6.39694728,0.841082582 13.2956032,0.841082582 C20.1942592,0.841082582 25.7876475,10.3910886 25.7876475,17.3036797" id="Fill-37" stroke="none" fill="#FFFFFF" fill-rule="evenodd"/>
                        <path d="M25.7876475,17.3036797 C25.7876475,24.2162709 20.1942592,29.8209577 13.2956032,29.8209577 C6.39694728,29.8209577 0.80499653,24.2162709 0.80499653,17.3036797 C0.80499653,10.3910886 6.39694728,0.841082582 13.2956032,0.841082582 C20.1942592,0.841082582 25.7876475,10.3910886 25.7876475,17.3036797 L25.7876475,17.3036797 Z" id="Stroke-39" stroke="#3FBA91" stroke-width="1" stroke-linecap="round" stroke-linejoin="round" fill="none"/>
                        <path d="M21.7904233,17.4631651 C21.7904233,23.1837767 17.3159834,27.8223456 11.7980856,27.8223456 C6.2787425,27.8223456 1.80430257,23.1837767 1.80430257,17.4631651 C1.80430257,11.7425535 6.2787425,3.83900069 11.7980856,3.83900069 C17.3159834,3.83900069 21.7904233,11.7425535 21.7904233,17.4631651" id="Fill-41" stroke="none" fill="#BDE2D4" fill-rule="evenodd"/>
                        <path d="M12.796669,24.8244275 L12.796669,44.8105482" id="Stroke-43" stroke="#3FBA91" stroke-width="1" stroke-linecap="round" stroke-linejoin="round" fill="none"/>
                    </g>
                </g>
                <g id="tree" mask="url(#mask-2)">
                    <g transform="translate(1291.000000, 218.000000)">
                        <path d="M25.4430245,30.4191098 C25.4430245,37.2668056 19.8758788,42.8188758 13.0063933,42.8188758 C6.13833881,42.8188758 0.571193201,37.2668056 0.571193201,30.4191098 C0.571193201,23.5714139 -3.60631272,0.848022207 13.0063933,0.848022207 C30.3561378,0.848022207 25.4430245,23.5714139 25.4430245,30.4191098" id="Fill-45" stroke="none" fill="#FFFFFF" fill-rule="evenodd"/>
                        <path d="M25.4430245,30.4191098 C25.4430245,37.2668056 19.8758788,42.8188758 13.0063933,42.8188758 C6.13833881,42.8188758 0.571193201,37.2668056 0.571193201,30.4191098 C0.571193201,23.5714139 -3.60631272,0.848022207 13.0063933,0.848022207 C30.3561378,0.848022207 25.4430245,23.5714139 25.4430245,30.4191098 L25.4430245,30.4191098 Z" id="Stroke-47" stroke="#3FBA91" stroke-width="1" stroke-linecap="round" stroke-linejoin="round" fill="none"/>
                        <path d="M22.7575802,30.5928802 C22.7575802,36.24129 18.2138612,40.8202637 12.6079369,40.8202637 C7.00344412,40.8202637 2.45829354,36.24129 2.45829354,30.5928802 C2.45829354,24.9444703 -0.835688027,2.84663428 12.6079369,2.84663428 C25.9284491,2.84663428 22.7575802,24.9444703 22.7575802,30.5928802" id="Fill-49" stroke="none" fill="#BDE2D4" fill-rule="evenodd"/>
                        <path d="M13.0943789,37.8223456 L13.0943789,57.8084663" id="Stroke-51" stroke="#3FBA91" stroke-width="1" stroke-linecap="round" stroke-linejoin="round" fill="none"/>
                    </g>
                </g>
                <g id="tree" mask="url(#mask-2)">
                    <g transform="translate(1310.000000, 231.000000)">
                        <path d="M25.0728661,17.3015979 C25.0728661,24.214189 19.4794778,29.8188758 12.5808218,29.8188758 C5.68216588,29.8188758 0.0902151284,24.214189 0.0902151284,17.3015979 C0.0902151284,10.3890067 5.68216588,0.839000694 12.5808218,0.839000694 C19.4794778,0.839000694 25.0728661,10.3890067 25.0728661,17.3015979" id="Fill-53" stroke="none" fill="#FFFFFF" fill-rule="evenodd"/>
                        <path d="M25.0728661,17.3015979 C25.0728661,24.214189 19.4794778,29.8188758 12.5808218,29.8188758 C5.68216588,29.8188758 0.0902151284,24.214189 0.0902151284,17.3015979 C0.0902151284,10.3890067 5.68216588,0.839000694 12.5808218,0.839000694 C19.4794778,0.839000694 25.0728661,10.3890067 25.0728661,17.3015979 L25.0728661,17.3015979 Z" id="Stroke-55" stroke="#3FBA91" stroke-width="1" stroke-linecap="round" stroke-linejoin="round" fill="none"/>
                        <path d="M22.074948,17.4610832 C22.074948,23.1816948 17.600508,27.8202637 12.0826102,27.8202637 C6.56326714,27.8202637 2.0888272,23.1816948 2.0888272,17.4610832 C2.0888272,11.7404717 6.56326714,3.83691881 12.0826102,3.83691881 C17.600508,3.83691881 22.074948,11.7404717 22.074948,17.4610832" id="Fill-57" stroke="none" fill="#BDE2D4" fill-rule="evenodd"/>
                        <path d="M13.0811936,24.8223456 L13.0811936,44.8084663" id="Stroke-59" stroke="#3FBA91" stroke-width="1" stroke-linecap="round" stroke-linejoin="round" fill="none"/>
                    </g>
                </g>
                <g id="tree" mask="url(#mask-2)">
                    <g transform="translate(1159.000000, 231.000000)">
                        <path d="M25.1776544,17.3015979 C25.1776544,24.214189 19.5842661,29.8188758 12.6856102,29.8188758 C5.78695422,29.8188758 0.19500347,24.214189 0.19500347,17.3015979 C0.19500347,10.3890067 5.78695422,0.839000694 12.6856102,0.839000694 C19.5842661,0.839000694 25.1776544,10.3890067 25.1776544,17.3015979" id="Fill-61" stroke="none" fill="#FFFFFF" fill-rule="evenodd"/>
                        <path d="M25.1776544,17.3015979 C25.1776544,24.214189 19.5842661,29.8188758 12.6856102,29.8188758 C5.78695422,29.8188758 0.19500347,24.214189 0.19500347,17.3015979 C0.19500347,10.3890067 5.78695422,0.839000694 12.6856102,0.839000694 C19.5842661,0.839000694 25.1776544,10.3890067 25.1776544,17.3015979 L25.1776544,17.3015979 Z" id="Stroke-63" stroke="#3FBA91" stroke-width="1" stroke-linecap="round" stroke-linejoin="round" fill="none"/>
                        <path d="M21.1804303,17.4610832 C21.1804303,23.1816948 16.7059903,27.8202637 11.1880925,27.8202637 C5.66874944,27.8202637 1.19430951,23.1816948 1.19430951,17.4610832 C1.19430951,11.7404717 5.66874944,3.83691881 11.1880925,3.83691881 C16.7059903,3.83691881 21.1804303,11.7404717 21.1804303,17.4610832" id="Fill-65" stroke="none" fill="#BDE2D4" fill-rule="evenodd"/>
                        <path d="M12.1866759,24.8223456 L12.1866759,44.8084663" id="Stroke-67" stroke="#3FBA91" stroke-width="1" stroke-linecap="round" stroke-linejoin="round" fill="none"/>
                    </g>
                </g>
                <g id="tree" mask="url(#mask-2)">
                    <g transform="translate(120.000000, 228.000000)">
                        <path d="M25.8986815,17.3036797 C25.8986815,24.2162709 20.3052932,29.8209577 13.4066372,29.8209577 C6.50798129,29.8209577 0.916030534,24.2162709 0.916030534,17.3036797 C0.916030534,10.3910886 6.50798129,0.841082582 13.4066372,0.841082582 C20.3052932,0.841082582 25.8986815,10.3910886 25.8986815,17.3036797" id="Fill-69" stroke="none" fill="#FFFFFF" fill-rule="evenodd"/>
                        <path d="M25.8986815,17.3036797 C25.8986815,24.2162709 20.3052932,29.8209577 13.4066372,29.8209577 C6.50798129,29.8209577 0.916030534,24.2162709 0.916030534,17.3036797 C0.916030534,10.3910886 6.50798129,0.841082582 13.4066372,0.841082582 C20.3052932,0.841082582 25.8986815,10.3910886 25.8986815,17.3036797 L25.8986815,17.3036797 Z" id="Stroke-71" stroke="#3FBA91" stroke-width="1" stroke-linecap="round" stroke-linejoin="round" fill="none"/>
                        <path d="M22.9007634,17.4631651 C22.9007634,23.1837767 18.4263234,27.8223456 12.9084256,27.8223456 C7.38908254,27.8223456 2.91464261,23.1837767 2.91464261,17.4631651 C2.91464261,11.7425535 7.38908254,3.83900069 12.9084256,3.83900069 C18.4263234,3.83900069 22.9007634,11.7425535 22.9007634,17.4631651" id="Fill-73" stroke="none" fill="#BDE2D4" fill-rule="evenodd"/>
                        <path d="M13.907009,24.8244275 L13.907009,44.8105482" id="Stroke-75" stroke="#3FBA91" stroke-width="1" stroke-linecap="round" stroke-linejoin="round" fill="none"/>
                    </g>
                </g>
                <g id="cloud" mask="url(#mask-2)" stroke-linecap="round" stroke="#3FBA91" stroke-linejoin="round">
                    <g transform="translate(1161.000000, 11.000000)" id="Stroke-80">
                        <path d="M142.725787,14.6141202 L137.54471,14.6141202 C137.530306,14.6141202 137.515902,14.6112389 137.501499,14.6112389 L120.611507,14.6112389 C119.276267,14.599714 118.187334,13.5062878 118.187334,12.1679573 C118.187334,10.8238642 119.28779,9.72323501 120.631672,9.72323501 L127.767355,9.72323501 C130.167042,9.72323501 132.131732,7.75823726 132.131732,5.35673342 C132.131732,2.95667019 130.167042,0.99167245 127.767355,0.99167245 L74.5046816,0.99167245 C72.1035545,0.99167245 70.1403055,2.95667019 70.1403055,5.35673342 C70.1403055,7.75823726 72.1035545,9.72323501 74.5046816,9.72323501 L89.8131271,9.72323501 C91.1584496,9.72323501 92.2589062,10.8238642 92.2589062,12.1679573 C92.2589062,13.5062878 91.1699727,14.599714 89.8347329,14.6112389 L4.55943209,14.6112389 C2.15830501,14.6112389 0.193615545,16.5762367 0.193615545,18.9777405 C0.193615545,21.3792444 2.15830501,23.3442421 4.55943209,23.3442421 L21.446543,23.3456827 C22.7817828,23.3586482 23.8707163,24.4520744 23.8707163,25.7889644 C23.8707163,27.134498 22.7702597,28.2351272 21.4249372,28.2351272 L18.2935333,28.2351272 C15.8924062,28.2351272 13.9277167,30.1986844 13.9277167,32.6001882 C13.9277167,35.0016921 15.8924062,36.9666898 18.2935333,36.9666898 L37.2965744,36.9666898 L37.5760097,36.9666898 L75.6152209,36.9666898 C78.016348,36.9666898 79.9810374,35.0016921 79.9810374,32.6001882 C79.9810374,30.1986844 78.016348,28.2351272 75.6152209,28.2351272 L72.1885374,28.2351272 C70.8432149,28.2351272 69.7441987,27.134498 69.7441987,25.7889644 C69.7441987,24.4520744 70.8316918,23.3586482 72.1669316,23.3456827 L142.725787,23.3456827 C145.126914,23.3456827 147.091603,21.380685 147.091603,18.9806217 C147.091603,16.5791179 145.126914,14.6141202 142.725787,14.6141202 L142.725787,14.6141202 Z"/>
                    </g>
                </g>
                <g id="cloud" mask="url(#mask-2)" stroke-linecap="round" stroke="#3FBA91" stroke-linejoin="round">
                    <g transform="translate(131.000000, 0.000000)" id="Stroke-82">
                        <path d="M8.20589583,22.9468235 L48.7415757,22.9439455 C51.1344916,22.9223607 53.0352986,20.7451646 52.5791625,18.2686581 C52.2266283,16.3605537 50.4121562,15.0668992 48.4710596,15.0668992 L47.7300183,15.0668992 C44.1600697,15.0668992 40.9642391,12.518443 40.4951527,8.97852086 C39.9282201,4.69320044 43.2866482,0.999306037 47.4666968,0.999306037 L102.477863,0.999306037 C106.047812,0.999306037 109.243643,3.54776221 109.712729,7.08768438 C110.279662,11.3715658 106.921234,15.0668992 102.741185,15.0668992 L94.6688707,15.0668992 C92.7277741,15.0668992 90.9118632,16.3605537 90.5607679,18.2686581 C90.1046317,20.7451646 92.0054387,22.9223607 94.3983547,22.9439455 L269.419365,22.9439455 C272.989314,22.9439455 276.185144,25.4909627 276.654231,29.0323239 C277.221163,33.3162053 273.862735,37.0115387 269.682686,37.0115387 L226.387167,37.0115387 C226.364145,37.0115387 226.341122,37.0144167 226.318099,37.0144167 L179.790777,37.0144167 C177.364766,37.0374406 175.443814,39.2765133 175.976213,41.7961896 C176.363281,43.6323444 178.07559,44.891463 179.951935,44.891463 L225.722388,44.891463 C229.292337,44.891463 232.488168,47.4399192 232.957254,50.9798414 C233.524187,55.2637228 230.165759,58.9590562 225.98571,58.9590562 L101.479256,58.9590562 C97.9078688,58.9590562 94.7120382,56.4106 94.2443908,52.8706779 C93.6760193,48.5867964 97.0344473,44.891463 101.214496,44.891463 L102.592977,44.891463 C104.467883,44.891463 106.181631,43.6323444 106.568699,41.7961896 C107.101098,39.2765133 105.180146,37.0374406 102.754135,37.0144167 L7.94113544,37.0144167 C3.76252573,37.0144167 0.40409767,33.3205223 0.971030255,29.0352019 C1.44011661,25.4952797 4.63450833,22.9468235 8.20589583,22.9468235 L8.20589583,22.9468235 Z"/>
                    </g>
                </g>
                <g id="cloud" mask="url(#mask-2)" stroke-linecap="round" stroke="#3FBA91" stroke-linejoin="round">
                    <g transform="translate(672.000000, 59.000000)" id="Stroke-84">
                        <path d="M143.456714,29.9382373 C146.99799,29.9382373 149.408582,27.6415822 149.408582,24.1422623 C149.408582,20.5661457 147.069734,18.3462873 143.527023,18.3462873 L138.855065,18.3462873 C136.870631,18.3462873 136.003965,17.5768716 136.003965,15.5729133 L136.003965,15.5931992 C136.003965,13.5892408 136.870631,11.1013185 138.855065,11.1013185 L186.033807,11.1013185 C189.575082,11.1013185 193.399028,9.14807495 193.399028,5.57195836 L193.399028,5.89943095 C193.399028,2.32331437 189.575082,0.958362248 186.033807,0.958362248 L141.015989,0.958362248 L140.60418,0.958362248 L84.4918963,0.958362248 C80.9506209,0.958362248 80.0437789,2.37547814 80.0437789,5.95159473 L80.0437789,5.70961277 C80.0437789,9.28572935 80.9506209,11.1013185 84.4918963,11.1013185 L104.654782,11.1013185 C106.639216,11.1013185 107.306434,13.7138543 107.306434,15.7163636 L107.306434,15.5207495 C107.306434,17.5247078 106.639216,18.3462873 104.654782,18.3462873 L6.94542664,18.3462873 C3.40415125,18.3462873 0.53296322,20.9341901 0.53296322,24.7696766 C0.53296322,26.9764941 3.05547624,29.9382373 6.59675163,29.9382373 L143.456714,29.9382373 L143.456714,29.9382373 Z"/>
                    </g>
                </g>
                <g id="house" mask="url(#mask-2)">
                    <g transform="translate(325.000000, 183.000000)">
                        <polygon id="Fill-86" stroke="none" fill="#FFFFFF" fill-rule="evenodd" points="5.7702984 92.8084663 68.7265788 92.8084663 68.7265788 0.872310895 5.7702984 0.872310895"/>
                        <polygon id="Stroke-88" stroke="#3FBA91" stroke-width="1" stroke-linecap="round" stroke-linejoin="round" fill="none" points="5.7702984 92.8084663 68.7265788 92.8084663 68.7265788 0.872310895 5.7702984 0.872310895"/>
                        <polygon id="Fill-89" stroke="none" fill="#FFFFFF" fill-rule="evenodd" points="20.759889 17.842526 11.8126024 17.8605135 11.7661346 5.88532963 20.7134212 5.86884108"/>
                        <polygon id="Stroke-90" stroke="#3FBA91" stroke-width="1" stroke-linecap="round" stroke-linejoin="round" fill="none" points="20.759889 17.842526 11.8126024 17.8605135 11.7661346 5.88532963 20.7134212 5.86884108"/>
                        <polygon id="Fill-91" stroke="none" fill="#FFFFFF" fill-rule="evenodd" points="34.7501735 17.842526 25.8028869 17.8605135 25.7564192 5.88532963 34.7037058 5.86884108"/>
                        <polygon id="Stroke-92" stroke="#3FBA91" stroke-width="1" stroke-linecap="round" stroke-linejoin="round" fill="none" points="34.7501735 17.842526 25.8028869 17.8605135 25.7564192 5.88532963 34.7037058 5.86884108"/>
                        <polygon id="Fill-93" stroke="none" fill="#FFFFFF" fill-rule="evenodd" points="49.7397641 17.842526 40.7924774 17.8605135 40.7460097 5.88532963 49.6932963 5.86884108"/>
                        <polygon id="Stroke-94" stroke="#3FBA91" stroke-width="1" stroke-linecap="round" stroke-linejoin="round" fill="none" points="49.7397641 17.842526 40.7924774 17.8605135 40.7460097 5.88532963 49.6932963 5.86884108"/>
                        <polygon id="Fill-95" stroke="none" fill="#FFFFFF" fill-rule="evenodd" points="63.7300486 17.842526 54.782762 17.8605135 54.7362942 5.88532963 63.6835808 5.86884108"/>
                        <polygon id="Stroke-96" stroke="#3FBA91" stroke-width="1" stroke-linecap="round" stroke-linejoin="round" fill="none" points="63.7300486 17.842526 54.782762 17.8605135 54.7362942 5.88532963 63.6835808 5.86884108"/>
                        <polygon id="Fill-97" stroke="none" fill="#FFFFFF" fill-rule="evenodd" points="20.759889 35.8300347 11.8126024 35.8480222 11.7661346 23.8728383 20.7134212 23.8563498"/>
                        <polygon id="Stroke-98" stroke="#3FBA91" stroke-width="1" stroke-linecap="round" stroke-linejoin="round" fill="none" points="20.759889 35.8300347 11.8126024 35.8480222 11.7661346 23.8728383 20.7134212 23.8563498"/>
                        <polygon id="Fill-99" stroke="none" fill="#FFFFFF" fill-rule="evenodd" points="34.7501735 35.8300347 25.8028869 35.8480222 25.7564192 23.8728383 34.7037058 23.8563498"/>
                        <polygon id="Stroke-100" stroke="#3FBA91" stroke-width="1" stroke-linecap="round" stroke-linejoin="round" fill="none" points="34.7501735 35.8300347 25.8028869 35.8480222 25.7564192 23.8728383 34.7037058 23.8563498"/>
                        <polygon id="Fill-101" stroke="none" fill="#FFFFFF" fill-rule="evenodd" points="20.759889 81.8042784 11.8334308 81.8160999 11.7661346 62.8425844 20.6925928 62.8292852"/>
                        <polygon id="Stroke-102" stroke="#3FBA91" stroke-width="1" stroke-linecap="round" stroke-linejoin="round" fill="none" points="20.759889 81.8042784 11.8334308 81.8160999 11.7661346 62.8425844 20.6925928 62.8292852"/>
                        <polygon id="Fill-103" stroke="none" fill="#FFFFFF" fill-rule="evenodd" points="34.7501735 81.8042775 25.8237153 81.8160999 25.7564192 62.8411076 34.6828774 62.8292852"/>
                        <polygon id="Stroke-104" stroke="#3FBA91" stroke-width="1" stroke-linecap="round" stroke-linejoin="round" fill="none" points="34.7501735 81.8042775 25.8237153 81.8160999 25.7564192 62.8411076 34.6828774 62.8292852"/>
                        <polygon id="Fill-105" stroke="none" fill="#FFFFFF" fill-rule="evenodd" points="49.7397641 35.8300347 40.7924774 35.8480222 40.7460097 23.8728383 49.6932963 23.8563498"/>
                        <polygon id="Stroke-106" stroke="#3FBA91" stroke-width="1" stroke-linecap="round" stroke-linejoin="round" fill="none" points="49.7397641 35.8300347 40.7924774 35.8480222 40.7460097 23.8728383 49.6932963 23.8563498"/>
                        <polygon id="Fill-107" stroke="none" fill="#FFFFFF" fill-rule="evenodd" points="63.7300486 35.8300347 54.782762 35.8480222 54.7362942 23.8728383 63.6835808 23.8563498"/>
                        <polygon id="Stroke-108" stroke="#3FBA91" stroke-width="1" stroke-linecap="round" stroke-linejoin="round" fill="none" points="63.7300486 35.8300347 54.782762 35.8480222 54.7362942 23.8728383 63.6835808 23.8563498"/>
                        <polygon id="Fill-109" stroke="none" fill="#FFFFFF" fill-rule="evenodd" points="20.759889 58.8140736 11.8126024 58.8320611 11.7661346 46.8568772 20.7134212 46.8403886"/>
                        <polygon id="Stroke-110" stroke="#3FBA91" stroke-width="1" stroke-linecap="round" stroke-linejoin="round" fill="none" points="20.759889 58.8140736 11.8126024 58.8320611 11.7661346 46.8568772 20.7134212 46.8403886"/>
                        <polygon id="Fill-111" stroke="none" fill="#FFFFFF" fill-rule="evenodd" points="34.7501735 58.8140736 25.8028869 58.8320611 25.7564192 46.8568772 34.7037058 46.8403886"/>
                        <polygon id="Stroke-112" stroke="#3FBA91" stroke-width="1" stroke-linecap="round" stroke-linejoin="round" fill="none" points="34.7501735 58.8140736 25.8028869 58.8320611 25.7564192 46.8568772 34.7037058 46.8403886"/>
                        <polygon id="Fill-113" stroke="none" fill="#FFFFFF" fill-rule="evenodd" points="49.7397641 58.8140736 40.7924774 58.8320611 40.7460097 46.8568772 49.6932963 46.8403886"/>
                        <polygon id="Stroke-114" stroke="#3FBA91" stroke-width="1" stroke-linecap="round" stroke-linejoin="round" fill="none" points="49.7397641 58.8140736 40.7924774 58.8320611 40.7460097 46.8568772 49.6932963 46.8403886"/>
                        <polygon id="Fill-115" stroke="none" fill="#FFFFFF" fill-rule="evenodd" points="63.7300486 58.8140736 54.782762 58.8320611 54.7362942 46.8568772 63.6835808 46.8403886"/>
                        <polygon id="Stroke-116" stroke="#3FBA91" stroke-width="1" stroke-linecap="round" stroke-linejoin="round" fill="none" points="63.7300486 58.8140736 54.782762 58.8320611 54.7362942 46.8568772 63.6835808 46.8403886"/>
                        <polygon id="Fill-117" stroke="none" fill="#FFFFFF" fill-rule="evenodd" points="63.7300486 87.7650506 40.8207172 87.8119362 40.7460097 62.8937528 63.6539044 62.8292852"/>
                        <polygon id="Stroke-118" stroke="#3FBA91" stroke-width="1" stroke-linecap="round" stroke-linejoin="round" fill="none" points="63.7300486 87.7650506 40.8207172 87.8119362 40.7460097 62.8937528 63.6539044 62.8292852"/>
                        <polyline id="Stroke-119" stroke="#3FBA91" stroke-width="1" stroke-linecap="round" stroke-linejoin="round" fill="none" points="0.773768217 40.8445524 5.03813493 40.8445524 12.0966935 40.8445524 19.1552521 40.8445524 74.722415 40.8445524"/>
                        <path d="M5.7702984,87.8119362 L68.7265788,87.8119362" id="Stroke-120" stroke="#3FBA91" stroke-width="1" stroke-linecap="round" stroke-linejoin="round" fill="none"/>
                        <path d="M54.7362942,62.8292852 L54.7362942,86.8126301" id="Stroke-121" stroke="#3FBA91" stroke-width="1" fill="none"/>
                    </g>
                </g>
                <g id="house" mask="url(#mask-2)">
                    <g transform="translate(161.000000, 206.000000)">
                        <polygon id="Fill-122" stroke="none" fill="#FFFFFF" fill-rule="evenodd" points="87.8272033 69.8084663 5.88410826 69.8084663 5.88410826 30.4589947 21.7321774 0.856349757 72.2626494 0.856349757 87.8272033 30.4589947"/>
                        <polygon id="Stroke-123" stroke="#3FBA91" stroke-width="1" stroke-linecap="round" stroke-linejoin="round" fill="none" points="87.8272033 69.8084663 5.88410826 69.8084663 5.88410826 30.4589947 21.7321774 0.856349757 72.2626494 0.856349757 87.8272033 30.4589947"/>
                        <path d="M0.887578071,29.8362248 L92.8237335,29.8362248" id="Stroke-124" stroke="#3FBA91" stroke-width="1" stroke-linecap="round" stroke-linejoin="round" fill="none"/>
                        <polygon id="Stroke-125" stroke="#3FBA91" stroke-width="1" stroke-linecap="round" stroke-linejoin="round" fill="none" points="10.8806384 54.8188758 30.8667592 54.8188758 30.8667592 39.8292852 10.8806384 39.8292852"/>
                        <path d="M20.8736988,39.8292852 L20.8736988,54.8188758" id="Stroke-126" stroke="#3FBA91" stroke-width="1" stroke-linecap="round" stroke-linejoin="round" fill="none"/>
                        <polygon id="Stroke-127" stroke="#3FBA91" stroke-width="1" stroke-linecap="round" stroke-linejoin="round" fill="none" points="61.8452464 54.8188758 81.8313671 54.8188758 81.8313671 39.8292852 61.8452464 39.8292852"/>
                        <path d="M72.8376128,39.8292852 L72.8376128,54.8188758" id="Stroke-128" stroke="#3FBA91" stroke-width="1" stroke-linecap="round" stroke-linejoin="round" fill="none"/>
                        <polygon id="Fill-129" stroke="none" fill="#FFFFFF" fill-rule="evenodd" points="62.8445524 26.8383067 31.8660652 26.8383067 31.8660652 7.4696853 47.0168884 3.85426787 62.8445524 7.49311449"/>
                        <polygon id="Stroke-130" stroke="#3FBA91" stroke-width="1" stroke-linecap="round" stroke-linejoin="round" fill="none" points="62.8445524 26.8383067 31.8660652 26.8383067 31.8660652 7.4696853 47.0168884 3.85426787 62.8445524 7.49311449"/>
                        <polygon id="Stroke-131" stroke="#3FBA91" stroke-width="1" stroke-linecap="round" stroke-linejoin="round" fill="none" points="62.8445524 25.8390007 31.8660652 25.8390007 31.8660652 10.3455108 47.0168884 6.85218598 62.8445524 10.3681579"/>
                        <polygon id="Stroke-132" stroke="#3FBA91" stroke-width="1" stroke-linecap="round" stroke-linejoin="round" fill="none" points="36.8625954 21.8417765 56.8487162 21.8417765 56.8487162 12.8480222 36.8625954 12.8480222"/>
                        <polygon id="Stroke-133" stroke="#3FBA91" stroke-width="1" stroke-linecap="round" stroke-linejoin="round" fill="none" points="56.8487162 68.8091603 36.8625954 68.789346 36.8625954 39.8292852 56.8487162 39.8292852"/>
                        <path d="M5.88410826,64.8119362 L36.8625954,64.8119362" id="Stroke-134" stroke="#3FBA91" stroke-width="1" stroke-linecap="round" stroke-linejoin="round" fill="none"/>
                        <path d="M56.8487162,64.8119362 L87.8272033,64.8119362" id="Stroke-135" stroke="#3FBA91" stroke-width="1" stroke-linecap="round" stroke-linejoin="round" fill="none"/>
                        <path d="M46.8556558,12.8480222 L46.8556558,21.8417765" id="Stroke-136" stroke="#3FBA91" stroke-width="1" stroke-linecap="round" stroke-linejoin="round" fill="none"/>
                    </g>
                </g>
                <g id="house" mask="url(#mask-2)">
                    <g transform="translate(742.000000, 197.000000)">
                        <polygon id="Fill-137" stroke="none" fill="#FFFFFF" fill-rule="evenodd" points="87.4240111 78.5876197 5.71560686 78.8084663 5.48091603 1.08344205 45.7671088 0.973740458 87.3664183 0.86259542"/>
                        <polygon id="Stroke-138" stroke="#3FBA91" stroke-width="1" stroke-linecap="round" stroke-linejoin="round" fill="none" points="87.4240111 78.5876197 5.71560686 78.8084663 5.48091603 1.08344205 45.7671088 0.973740458 87.3664183 0.86259542"/>
                        <polygon id="Stroke-139" stroke="#3FBA91" stroke-width="1" stroke-linecap="round" stroke-linejoin="round" fill="none" points="87.4240111 78.5876197 5.71560686 78.8084663 5.48091603 1.08344205 45.7671088 0.973740458 87.3664183 0.86259542"/>
                        <path d="M0.484385843,1.03447606 L92.4205413,0.86259542" id="Stroke-140" stroke="#3FBA91" stroke-width="1" stroke-linecap="round" stroke-linejoin="round" fill="none"/>
                        <path d="M0.484385843,39.0081055 L92.4205413,38.8362248" id="Stroke-141" stroke="#3FBA91" stroke-width="1" stroke-linecap="round" stroke-linejoin="round" fill="none"/>
                        <polygon id="Fill-142" stroke="none" fill="#FFFFFF" fill-rule="evenodd" points="32.462179 27.7905496 11.5342062 27.8438584 11.4767523 9.90965855 32.4047251 9.85634976"/>
                        <polygon id="Stroke-143" stroke="#3FBA91" stroke-width="1" stroke-linecap="round" stroke-linejoin="round" fill="none" points="32.462179 27.7905496 11.5342062 27.8438584 11.4767523 9.90965855 32.4047251 9.85634976"/>
                        <path d="M21.4698126,9.85634976 L21.5087856,27.8438584" id="Stroke-144" stroke="#3FBA91" stroke-width="1" stroke-linecap="round" stroke-linejoin="round" fill="none"/>
                        <polygon id="Stroke-145" stroke="#3FBA91" stroke-width="1" stroke-linecap="round" stroke-linejoin="round" fill="none" points="32.462179 67.7627911 11.5342062 67.8160999 11.4767523 49.8819 32.4047251 49.8285913"/>
                        <path d="M21.4698126,49.8285913 L21.5087856,67.8160999" id="Stroke-146" stroke="#3FBA91" stroke-width="1" stroke-linecap="round" stroke-linejoin="round" fill="none"/>
                        <polygon id="Stroke-147" stroke="#3FBA91" stroke-width="1" stroke-linecap="round" stroke-linejoin="round" fill="none" points="82.4274809 67.7627911 61.4995081 67.8160999 61.4420541 49.8819 82.370027 49.8285913"/>
                        <path d="M71.4351145,49.8285913 L71.4740874,67.8160999" id="Stroke-148" stroke="#3FBA91" stroke-width="1" stroke-linecap="round" stroke-linejoin="round" fill="none"/>
                        <polygon id="Fill-149" stroke="none" fill="#FFFFFF" fill-rule="evenodd" points="56.4455239 27.7905496 35.5160819 27.8438584 35.4600972 9.90965855 56.3880659 9.85634976"/>
                        <polygon id="Stroke-150" stroke="#3FBA91" stroke-width="1" stroke-linecap="round" stroke-linejoin="round" fill="none" points="56.4455239 27.7905496 35.5160819 27.8438584 35.4600972 9.90965855 56.3880659 9.85634976"/>
                        <path d="M46.4524636,9.85634976 L46.4914365,27.8438584" id="Stroke-151" stroke="#3FBA91" stroke-width="1" stroke-linecap="round" stroke-linejoin="round" fill="none"/>
                        <polygon id="Fill-152" stroke="none" fill="#FFFFFF" fill-rule="evenodd" points="82.4274809 27.7905496 61.4995081 27.8438584 61.4420541 9.90965855 82.370027 9.85634976"/>
                        <polygon id="Stroke-153" stroke="#3FBA91" stroke-width="1" stroke-linecap="round" stroke-linejoin="round" fill="none" points="82.4274809 27.7905496 61.4995081 27.8438584 61.4420541 9.90965855 82.370027 9.85634976"/>
                        <path d="M71.4351145,9.85634976 L71.4740874,27.8438584" id="Stroke-154" stroke="#3FBA91" stroke-width="1" stroke-linecap="round" stroke-linejoin="round" fill="none"/>
                        <polygon id="Stroke-155" stroke="#3FBA91" stroke-width="1" stroke-linecap="round" stroke-linejoin="round" fill="none" points="56.4455239 78.7737547 36.545253 78.8084663 36.4594032 49.8835513 56.3596741 49.8285913"/>
                        <path d="M5.48091603,72.8695906 L36.4594032,72.8126301" id="Stroke-156" stroke="#3FBA91" stroke-width="1" stroke-linecap="round" stroke-linejoin="round" fill="none"/>
                        <path d="M56.4455239,72.8705899 L87.4240111,72.8126301" id="Stroke-157" stroke="#3FBA91" stroke-width="1" stroke-linecap="round" stroke-linejoin="round" fill="none"/>
                    </g>
                </g>
                <g id="house" mask="url(#mask-2)">
                    <g transform="translate(877.000000, 206.000000)">
                        <polygon id="Fill-158" stroke="none" fill="#FFFFFF" fill-rule="evenodd" points="87.3303262 69.8084663 5.38723109 69.8084663 5.38723109 30.4589947 21.2353003 0.856349757 71.7657722 0.856349757 87.3303262 30.4589947"/>
                        <polygon id="Stroke-159" stroke="#3FBA91" stroke-width="1" stroke-linecap="round" stroke-linejoin="round" fill="none" points="87.3303262 69.8084663 5.38723109 69.8084663 5.38723109 30.4589947 21.2353003 0.856349757 71.7657722 0.856349757 87.3303262 30.4589947"/>
                        <path d="M0.390700902,29.8362248 L92.3268563,29.8362248" id="Stroke-160" stroke="#3FBA91" stroke-width="1" stroke-linecap="round" stroke-linejoin="round" fill="none"/>
                        <polygon id="Stroke-161" stroke="#3FBA91" stroke-width="1" stroke-linecap="round" stroke-linejoin="round" fill="none" points="10.3837613 54.8188758 30.369882 54.8188758 30.369882 39.8292852 10.3837613 39.8292852"/>
                        <path d="M20.3768217,39.8292852 L20.3768217,54.8188758" id="Stroke-162" stroke="#3FBA91" stroke-width="1" stroke-linecap="round" stroke-linejoin="round" fill="none"/>
                        <polygon id="Stroke-163" stroke="#3FBA91" stroke-width="1" stroke-linecap="round" stroke-linejoin="round" fill="none" points="61.3483692 54.8188758 81.3344899 54.8188758 81.3344899 39.8292852 61.3483692 39.8292852"/>
                        <path d="M71.3414296,39.8292852 L71.3414296,54.8188758" id="Stroke-164" stroke="#3FBA91" stroke-width="1" stroke-linecap="round" stroke-linejoin="round" fill="none"/>
                        <polygon id="Fill-165" stroke="none" fill="#FFFFFF" fill-rule="evenodd" points="61.3483692 26.8383067 30.369882 26.8383067 30.369882 7.4696853 45.5221514 3.85426787 61.3483692 7.49311449"/>
                        <polygon id="Stroke-166" stroke="#3FBA91" stroke-width="1" stroke-linecap="round" stroke-linejoin="round" fill="none" points="61.3483692 26.8383067 30.369882 26.8383067 30.369882 7.4696853 45.5221514 3.85426787 61.3483692 7.49311449"/>
                        <polygon id="Stroke-167" stroke="#3FBA91" stroke-width="1" stroke-linecap="round" stroke-linejoin="round" fill="none" points="61.3483692 25.8390007 30.369882 25.8390007 30.369882 10.3455108 45.5221514 6.85218598 61.3483692 10.3681579"/>
                        <polygon id="Stroke-168" stroke="#3FBA91" stroke-width="1" stroke-linecap="round" stroke-linejoin="round" fill="none" points="36.3657183 21.8417765 56.351839 21.8417765 56.351839 12.8480222 36.3657183 12.8480222"/>
                        <polygon id="Stroke-169" stroke="#3FBA91" stroke-width="1" stroke-linecap="round" stroke-linejoin="round" fill="none" points="56.351839 68.8091603 36.3657183 68.789346 36.3657183 39.8292852 56.351839 39.8292852"/>
                        <path d="M5.38723109,64.8119362 L36.3657183,64.8119362" id="Stroke-170" stroke="#3FBA91" stroke-width="1" stroke-linecap="round" stroke-linejoin="round" fill="none"/>
                        <path d="M56.351839,64.8119362 L87.3303262,64.8119362" id="Stroke-171" stroke="#3FBA91" stroke-width="1" stroke-linecap="round" stroke-linejoin="round" fill="none"/>
                        <path d="M46.3587786,12.8480222 L46.3587786,21.8417765" id="Stroke-172" stroke="#3FBA91" stroke-width="1" stroke-linecap="round" stroke-linejoin="round" fill="none"/>
                    </g>
                </g>
                <g id="house" mask="url(#mask-2)">
                    <g transform="translate(1186.000000, 197.000000)">
                        <polygon id="Fill-173" stroke="none" fill="#FFFFFF" fill-rule="evenodd" points="87.1158917 27.8438584 5.17279667 27.8438584 15.2915557 0.86259542 76.6819559 0.86259542"/>
                        <polygon id="Stroke-174" stroke="#3FBA91" stroke-width="1" stroke-linecap="round" stroke-linejoin="round" fill="none" points="87.1158917 27.8438584 5.17279667 27.8438584 15.2915557 0.86259542 76.6819559 0.86259542"/>
                        <polygon id="Stroke-175" stroke="#3FBA91" stroke-width="1" stroke-linecap="round" stroke-linejoin="round" fill="none" points="87.1158917 27.8438584 5.17279667 27.8438584 15.2915557 0.86259542 76.6819559 0.86259542"/>
                        <polygon id="Fill-176" stroke="none" fill="#FFFFFF" fill-rule="evenodd" points="86.9388746 78.8084663 5.17279667 78.8084663 5.17279667 27.8438584 45.4880856 27.8438584 87.1158917 27.8438584"/>
                        <polygon id="Stroke-177" stroke="#3FBA91" stroke-width="1" stroke-linecap="round" stroke-linejoin="round" fill="none" points="86.9388746 78.8084663 5.17279667 78.8084663 5.17279667 27.8438584 45.4880856 27.8438584 87.1158917 27.8438584"/>
                        <path d="M11.1686329,41.8751145 L32.1540597,41.834143" id="Stroke-178" stroke="#3FBA91" stroke-width="1" stroke-linecap="round" stroke-linejoin="round" fill="none"/>
                        <path d="M0.176266482,27.8438584 L92.1124219,27.8438584" id="Stroke-179" stroke="#3FBA91" stroke-width="1" stroke-linecap="round" stroke-linejoin="round" fill="none"/>
                        <path d="M57.1367106,77.8091603 L36.1512838,77.8091603 L36.1512838,50.5048675 C36.1512838,50.5048675 39.1301815,44.8320611 46.6432657,44.8320611 C54.157813,44.8320611 57.1367106,49.9728641 57.1367106,49.9728641 L57.1367106,77.8091603 L57.1367106,77.8091603 Z" id="Stroke-180" stroke="#3FBA91" stroke-width="1" stroke-linecap="round" stroke-linejoin="round" fill="none"/>
                        <path d="M31.1547536,65.8174879 L10.1693269,65.8174879 L10.1693269,38.5146588 C10.1693269,38.5146588 13.1482245,32.8403886 20.6613087,32.8403886 C28.175856,32.8403886 31.1547536,37.9825608 31.1547536,37.9825608 L31.1547536,65.8174879 L31.1547536,65.8174879 Z" id="Stroke-181" stroke="#3FBA91" stroke-width="1" stroke-linecap="round" stroke-linejoin="round" fill="none"/>
                        <path d="M62.1332408,41.8751145 L83.1186676,41.834143" id="Stroke-182" stroke="#3FBA91" stroke-width="1" stroke-linecap="round" stroke-linejoin="round" fill="none"/>
                        <path d="M83.1186676,65.8174879 L62.1332408,65.8174879 L62.1332408,38.5146588 C62.1332408,38.5146588 65.1121385,32.8403886 72.6266858,32.8403886 C80.1397699,32.8403886 83.1186676,37.9825608 83.1186676,37.9825608 L83.1186676,65.8174879 L83.1186676,65.8174879 Z" id="Stroke-183" stroke="#3FBA91" stroke-width="1" stroke-linecap="round" stroke-linejoin="round" fill="none"/>
                        <path d="M33.1533657,21.8480222 L19.1630812,21.8480222 L19.1630812,10.3729718 C19.1630812,10.3729718 21.1486265,6.85843164 26.1582235,6.85843164 C31.1678204,6.85843164 33.1533657,10.3058417 33.1533657,10.3058417 L33.1533657,21.8480222 Z" id="Fill-184" stroke="none" fill="#FFFFFF" fill-rule="evenodd"/>
                        <path d="M33.1533657,21.8480222 L19.1630812,21.8480222 L19.1630812,10.3729718 C19.1630812,10.3729718 21.1486265,6.85843164 26.1582235,6.85843164 C31.1678204,6.85843164 33.1533657,10.3058417 33.1533657,10.3058417 L33.1533657,21.8480222 L33.1533657,21.8480222 Z" id="Stroke-185" stroke="#3FBA91" stroke-width="1" stroke-linecap="round" stroke-linejoin="round" fill="none"/>
                        <path d="M53.1394865,21.8480222 L39.1492019,21.8480222 L39.1492019,10.3058417 C39.1492019,10.3058417 41.1347473,6.85843164 46.1443442,6.85843164 C51.1539412,6.85843164 53.1394865,10.3729718 53.1394865,10.3729718 L53.1394865,21.8480222 Z" id="Fill-186" stroke="none" fill="#FFFFFF" fill-rule="evenodd"/>
                        <path d="M53.1394865,21.8480222 L39.1492019,21.8480222 L39.1492019,10.3058417 C39.1492019,10.3058417 41.1347473,6.85843164 46.1443442,6.85843164 C51.1539412,6.85843164 53.1394865,10.3729718 53.1394865,10.3729718 L53.1394865,21.8480222 L53.1394865,21.8480222 Z" id="Stroke-187" stroke="#3FBA91" stroke-width="1" stroke-linecap="round" stroke-linejoin="round" fill="none"/>
                        <path d="M75.1242193,21.8480222 L60.4519234,21.8480222 L60.1346287,10.3729718 C60.1346287,10.3729718 62.5342619,6.85843164 67.7880713,6.85843164 C73.0418808,6.85843164 75.1242193,10.3729718 75.1242193,10.3729718 L75.1242193,21.8480222 Z" id="Fill-188" stroke="none" fill="#FFFFFF" fill-rule="evenodd"/>
                        <path d="M75.1242193,21.8480222 L60.4519234,21.8480222 L60.1346287,10.3729718 C60.1346287,10.3729718 62.5342619,6.85843164 67.7880713,6.85843164 C73.0418808,6.85843164 75.1242193,10.3729718 75.1242193,10.3729718 L75.1242193,21.8480222 L75.1242193,21.8480222 Z" id="Stroke-189" stroke="#3FBA91" stroke-width="1" stroke-linecap="round" stroke-linejoin="round" fill="none"/>
                        <path d="M21.1616933,41.834143 L21.1616933,65.8174879" id="Stroke-190" stroke="#3FBA91" stroke-width="1" stroke-linecap="round" stroke-linejoin="round" fill="none"/>
                        <path d="M72.1263012,41.834143 L72.1263012,65.8174879" id="Stroke-191" stroke="#3FBA91" stroke-width="1" stroke-linecap="round" stroke-linejoin="round" fill="none"/>
                        <path d="M19.1630812,17.8507981 L33.1533657,17.8507981" id="Stroke-192" stroke="#3FBA91" stroke-width="1" stroke-linecap="round" stroke-linejoin="round" fill="none"/>
                        <path d="M39.1492019,17.8507981 L53.1394865,17.8507981" id="Stroke-193" stroke="#3FBA91" stroke-width="1" stroke-linecap="round" stroke-linejoin="round" fill="none"/>
                        <path d="M60.1346287,17.8507981 L74.1249133,17.8507981" id="Stroke-194" stroke="#3FBA91" stroke-width="1" stroke-linecap="round" stroke-linejoin="round" fill="none"/>
                    </g>
                </g>
                <g id="board" mask="url(#mask-2)">
                    <g transform="translate(541.000000, 235.000000)">
                        <path d="M31.2909919,30.815406 L4.93246402,30.815406 C2.5541214,30.815406 0.623872311,28.8728198 0.623872311,26.4760475 L0.623872311,5.1755833 C0.623872311,2.77881098 2.5541214,0.836224844 4.93246402,0.836224844 L31.2909919,0.836224844 C33.6707707,0.836224844 35.5995836,2.77881098 35.5995836,5.1755833 L35.5995836,26.4760475 C35.5995836,28.8728198 33.6707707,30.815406 31.2909919,30.815406" id="Fill-195" stroke="none" fill="#FFFFFF" fill-rule="evenodd"/>
                        <path d="M31.2909919,30.815406 L4.93246402,30.815406 C2.5541214,30.815406 0.623872311,28.8728198 0.623872311,26.4760475 L0.623872311,5.1755833 C0.623872311,2.77881098 2.5541214,0.836224844 4.93246402,0.836224844 L31.2909919,0.836224844 C33.6707707,0.836224844 35.5995836,2.77881098 35.5995836,5.1755833 L35.5995836,26.4760475 C35.5995836,28.8728198 33.6707707,30.815406 31.2909919,30.815406 L31.2909919,30.815406 Z" id="Stroke-196" stroke="#3FBA91" stroke-width="1" fill="none"/>
                        <path d="M18.611381,29.8160999 L18.611381,39.8091603" id="Stroke-197" stroke="#3FBA91" stroke-width="1" fill="none"/>
                        <path d="M24.1607594,22.5676896 L22.3146007,22.5676896 L22.3146007,18.7971669 C22.3146007,17.9537987 22.2113903,17.3843078 22.0064231,17.0843469 C21.8000022,16.7872842 21.4903709,16.6380283 21.0789828,16.6380283 C20.7649904,16.6380283 20.4844325,16.7293207 20.2358552,16.9090074 C19.9887316,17.0930414 19.8041157,17.3451824 19.6820076,17.6639814 C19.5613532,17.9885768 19.5017528,18.5030024 19.5017528,19.2116056 L19.5017528,22.5676896 L17.6555941,22.5676896 L17.6555941,18.96671 C17.6555941,18.3030285 17.6061694,17.8190337 17.5102273,17.521971 C17.4142852,17.2249083 17.2689184,17.001749 17.0755805,16.8553912 C16.8836963,16.7090335 16.6496557,16.6380283 16.3763661,16.6380283 C16.0710958,16.6380283 15.7934452,16.7293207 15.5448679,16.9148038 C15.2962906,17.0988378 15.1102211,17.355326 14.9866593,17.690065 C14.8630975,18.0219057 14.8020435,18.5450259 14.8020435,19.2608746 L14.8020435,22.5676896 L12.9689678,22.5676896 L12.9689678,15.1338767 L14.8020435,15.1338767 L14.8020435,15.9888376 C15.1145821,15.6367096 15.4634625,15.3758741 15.8472309,15.2019837 C16.2295456,15.0295425 16.6467484,14.9411482 17.1002929,14.9411482 C17.5567447,14.9411482 17.9681328,15.055626 18.3359109,15.2845817 C18.7036889,15.5106391 18.9987836,15.8453781 19.2226485,16.2830021 C19.5133821,15.8453781 19.8709845,15.5106391 20.2940019,15.2845817 C20.7170194,15.055626 21.1807395,14.9411482 21.6822551,14.9411482 C22.2012146,14.9411482 22.6576664,15.0643205 23.0516105,15.3106652 C23.4455546,15.5570099 23.7290199,15.8801561 23.9020064,16.2743076 C24.0749929,16.6728064 24.1607594,17.3162007 24.1607594,18.2088379 L24.1607594,22.5676896 Z M25.2379275,13.3630932 L25.2379275,9.50997262 C25.2379275,9.45490733 25.1943175,9.40998566 25.1390781,9.40998566 L22.7972186,9.40998566 C22.7434329,9.40998566 22.6983691,9.45490733 22.6983691,9.50997262 L22.6983691,10.7764741 L18.9711639,6.98421513 C18.8723144,6.88422818 18.742938,6.83206107 18.6121078,6.83206107 C18.4812777,6.83206107 18.3519012,6.88422818 18.2515981,6.98421513 L10.9774424,14.3890463 C10.7782899,14.5890202 10.6169327,14.987519 10.6169327,15.2700908 L10.6169327,24.3007968 C10.6169327,24.5877159 10.8466123,24.8195697 11.1257166,24.8195697 L26.0970454,24.8195697 C26.3761497,24.8195697 26.6058293,24.5877159 26.6058293,24.3007968 L26.6058293,15.2700908 C26.6058293,14.987519 26.4444721,14.5890202 26.2453196,14.3890463 L25.2379275,13.3630932 Z" id="Fill-199" stroke="none" fill="#3FBA91" fill-rule="evenodd"/>
                    </g>
                </g>
                <g id="tree" mask="url(#mask-2)">
                    <g transform="translate(709.000000, 222.000000)">
                        <path d="M25.4899375,17.3078435 C25.4899375,24.2204346 19.8965493,29.8251214 12.9978933,29.8251214 C6.09923736,29.8251214 0.507286607,24.2204346 0.507286607,17.3078435 C0.507286607,10.3952524 6.09923736,0.845246357 12.9978933,0.845246357 C19.8965493,0.845246357 25.4899375,10.3952524 25.4899375,17.3078435" id="Fill-200" stroke="none" fill="#FFFFFF" fill-rule="evenodd"/>
                        <path d="M25.4899375,17.3078435 C25.4899375,24.2204346 19.8965493,29.8251214 12.9978933,29.8251214 C6.09923736,29.8251214 0.507286607,24.2204346 0.507286607,17.3078435 C0.507286607,10.3952524 6.09923736,0.845246357 12.9978933,0.845246357 C19.8965493,0.845246357 25.4899375,10.3952524 25.4899375,17.3078435 L25.4899375,17.3078435 Z" id="Stroke-201" stroke="#3FBA91" stroke-width="1" stroke-linecap="round" stroke-linejoin="round" fill="none"/>
                        <path d="M22.4920194,16.4680228 C22.4920194,22.1886344 18.0175795,26.8272033 12.4996817,26.8272033 C6.98033861,26.8272033 2.50589868,22.1886344 2.50589868,16.4680228 C2.50589868,10.7474113 6.98033861,2.84385843 12.4996817,2.84385843 C18.0175795,2.84385843 22.4920194,10.7474113 22.4920194,16.4680228" id="Fill-202" stroke="none" fill="#BDE2D4" fill-rule="evenodd"/>
                        <path d="M13.4982651,23.8292852 L13.4982651,43.815406" id="Stroke-203" stroke="#3FBA91" stroke-width="1" stroke-linecap="round" stroke-linejoin="round" fill="none"/>
                    </g>
                </g>
                <g id="tree" mask="url(#mask-2)">
                    <g transform="translate(675.000000, 218.000000)">
                        <path d="M25.8705054,30.4191098 C25.8705054,37.2668056 20.3033598,42.8188758 13.4338742,42.8188758 C6.56581973,42.8188758 0.998674118,37.2668056 0.998674118,30.4191098 C0.998674118,23.5714139 -3.1788318,0.848022207 13.4338742,0.848022207 C30.7836187,0.848022207 25.8705054,23.5714139 25.8705054,30.4191098" id="Fill-204" stroke="none" fill="#FFFFFF" fill-rule="evenodd"/>
                        <path d="M25.8705054,30.4191098 C25.8705054,37.2668056 20.3033598,42.8188758 13.4338742,42.8188758 C6.56581973,42.8188758 0.998674118,37.2668056 0.998674118,30.4191098 C0.998674118,23.5714139 -3.1788318,0.848022207 13.4338742,0.848022207 C30.7836187,0.848022207 25.8705054,23.5714139 25.8705054,30.4191098 L25.8705054,30.4191098 Z" id="Stroke-205" stroke="#3FBA91" stroke-width="1" stroke-linecap="round" stroke-linejoin="round" fill="none"/>
                        <path d="M23.1850611,30.5928802 C23.1850611,36.24129 18.6413421,40.8202637 13.0354178,40.8202637 C7.43092504,40.8202637 2.88577446,36.24129 2.88577446,30.5928802 C2.88577446,24.9444703 -0.408207111,2.84663428 13.0354178,2.84663428 C26.35593,2.84663428 23.1850611,24.9444703 23.1850611,30.5928802" id="Fill-206" stroke="none" fill="#BDE2D4" fill-rule="evenodd"/>
                        <path d="M13.5218598,37.8223456 L13.5218598,57.8084663" id="Stroke-207" stroke="#3FBA91" stroke-width="1" stroke-linecap="round" stroke-linejoin="round" fill="none"/>
                    </g>
                </g>
                <g id="house" mask="url(#mask-2)">
                    <g transform="translate(1059.000000, 211.000000)">
                        <polygon id="Fill-208" stroke="none" fill="#FFFFFF" fill-rule="evenodd" points="87.204025 28.8277011 78.3056793 28.833449 78.2102706 0.858627802 87.1086164 0.852879944"/>
                        <polygon id="Stroke-209" stroke="#3FBA91" stroke-width="1" stroke-linecap="round" stroke-linejoin="round" fill="none" points="87.204025 28.8277011 78.3056793 28.833449 78.2102706 0.858627802 87.1086164 0.852879944"/>
                        <path d="M78.2102706,5.84941013 L87.204025,5.84941013" id="Stroke-210" stroke="#3FBA91" stroke-width="1" fill="none"/>
                        <polygon id="Fill-211" stroke="none" fill="#FFFFFF" fill-rule="evenodd" points="16.2532963 28.8277011 7.35495062 28.833449 7.25954198 0.858627802 16.1578877 0.852879944"/>
                        <polygon id="Stroke-212" stroke="#3FBA91" stroke-width="1" stroke-linecap="round" stroke-linejoin="round" fill="none" points="16.2532963 28.8277011 7.35495062 28.833449 7.25954198 0.858627802 16.1578877 0.852879944"/>
                        <path d="M7.25954198,5.84941013 L16.2532963,5.84941013" id="Stroke-213" stroke="#3FBA91" stroke-width="1" fill="none"/>
                        <polygon id="Fill-214" stroke="none" fill="#FFFFFF" fill-rule="evenodd" points="87.204025 58.8126301 5.26092991 58.8126301 5.26092991 24.6353514 20.9665219 0.852879944 71.4969938 0.852879944 87.204025 24.6353514"/>
                        <path d="M92.2005552,24.8362248 L0.264399722,24.8362248" id="Stroke-215" stroke="#3FBA91" stroke-width="1" stroke-linecap="round" stroke-linejoin="round" fill="none"/>
                        <path d="M56.2255378,58.8126301 L36.2394171,58.7928158 L36.2394171,39.7399208 C36.2394171,34.2683347 40.713453,29.832755 46.2324774,29.832755 C51.7515019,29.832755 56.2255378,34.2683347 56.2255378,39.7399208 L56.2255378,58.8126301 L56.2255378,58.8126301 Z" id="Stroke-216" stroke="#3FBA91" stroke-width="1" stroke-linecap="round" stroke-linejoin="round" fill="none"/>
                        <polygon id="Fill-217" stroke="none" fill="#FFFFFF" fill-rule="evenodd" points="0.264399722 64.8084663 92.2005552 64.8084663 92.2005552 59.8119362 0.264399722 59.8119362"/>
                        <polygon id="Stroke-218" stroke="#3FBA91" stroke-width="1" stroke-linecap="round" stroke-linejoin="round" fill="none" points="0.264399722 64.8084663 92.2005552 64.8084663 92.2005552 59.8119362 0.264399722 59.8119362"/>
                        <path d="M5.26092991,44.8223456 L36.2394171,44.8223456" id="Stroke-219" stroke="#3FBA91" stroke-width="1" fill="none"/>
                        <path d="M56.2255378,44.8223456 L87.204025,44.8223456" id="Stroke-220" stroke="#3FBA91" stroke-width="1" fill="none"/>
                        <path d="M26.2463567,52.803862 L17.2991001,52.8167939 L17.2526326,40.1334787 C17.2436388,37.7611944 19.2447425,35.8329051 21.7195155,35.8285945 C24.1867939,35.8257207 26.1908954,37.7367674 26.1998891,40.1018674 L26.2463567,52.803862 Z" id="Fill-221" stroke="none" fill="#FFFFFF" fill-rule="evenodd"/>
                        <path d="M26.2463567,52.803862 L17.2991001,52.8167939 L17.2526326,40.1334787 C17.2436388,37.7611944 19.2447425,35.8329051 21.7195155,35.8285945 C24.1867939,35.8257207 26.1908954,37.7367674 26.1998891,40.1018674 L26.2463567,52.803862 L26.2463567,52.803862 Z" id="Stroke-222" stroke="#3FBA91" stroke-width="1" stroke-linecap="round" stroke-linejoin="round" fill="none"/>
                        <path d="M77.2109646,52.803862 L68.263708,52.8167939 L68.2172405,40.1334787 C68.2082467,37.7611944 70.2093504,35.8329051 72.6841235,35.8285945 C75.1514018,35.8257207 77.1555033,37.7367674 77.164497,40.1018674 L77.2109646,52.803862 Z" id="Fill-223" stroke="none" fill="#FFFFFF" fill-rule="evenodd"/>
                        <path d="M77.2109646,52.803862 L68.263708,52.8167939 L68.2172405,40.1334787 C68.2082467,37.7611944 70.2093504,35.8329051 72.6841235,35.8285945 C75.1514018,35.8257207 77.1555033,37.7367674 77.164497,40.1018674 L77.2109646,52.803862 L77.2109646,52.803862 Z" id="Stroke-224" stroke="#3FBA91" stroke-width="1" stroke-linecap="round" stroke-linejoin="round" fill="none"/>
                        <polygon id="Stroke-225" stroke="#3FBA91" stroke-width="1" stroke-linecap="round" stroke-linejoin="round" fill="none" points="87.204025 58.8126301 5.26092991 58.8126301 5.26092991 24.6353514 20.9665219 0.852879944 71.4969938 0.852879944 87.204025 24.6353514"/>
                    </g>
                </g>
                <g id="house" mask="url(#mask-2)">
                    <g transform="translate(445.000000, 214.000000)">
                        <polygon id="Fill-226" stroke="none" fill="#FFFFFF" fill-rule="evenodd" points="87.630118 60.8091603 5.6870229 60.8091603 5.6870229 23.8063424 15.8052188 0.850798057 77.1957736 0.850798057 87.630118 23.8063424"/>
                        <polygon id="Stroke-227" stroke="#3FBA91" stroke-width="1" stroke-linecap="round" stroke-linejoin="round" fill="none" points="87.630118 60.8091603 5.6870229 60.8091603 5.6870229 23.8063424 15.8052188 0.850798057 77.1957736 0.850798057 87.630118 23.8063424"/>
                        <path d="M0.690492713,23.8348369 L92.6266482,23.8348369" id="Stroke-228" stroke="#3FBA91" stroke-width="1" stroke-linecap="round" stroke-linejoin="round" fill="none"/>
                        <polygon id="Fill-229" stroke="none" fill="#FFFFFF" fill-rule="evenodd" points="57.6509368 52.814712 67.6439972 52.814712 67.6439972 33.8278973 57.6509368 33.8278973"/>
                        <polygon id="Stroke-230" stroke="#3FBA91" stroke-width="1" stroke-linecap="round" stroke-linejoin="round" fill="none" points="57.6509368 52.814712 67.6439972 52.814712 67.6439972 33.8278973 57.6509368 33.8278973"/>
                        <polygon id="Fill-231" stroke="none" fill="#FFFFFF" fill-rule="evenodd" points="71.6412214 52.814712 81.6342817 52.814712 81.6342817 33.8278973 71.6412214 33.8278973"/>
                        <polygon id="Stroke-232" stroke="#3FBA91" stroke-width="1" stroke-linecap="round" stroke-linejoin="round" fill="none" points="71.6412214 52.814712 81.6342817 52.814712 81.6342817 33.8278973 71.6412214 33.8278973"/>
                        <path d="M57.6509368,37.8251214 L67.6439972,37.8251214" id="Stroke-233" stroke="#3FBA91" stroke-width="1" stroke-linecap="round" stroke-linejoin="round" fill="none"/>
                        <path d="M71.6412214,37.8251214 L81.6342817,37.8251214" id="Stroke-234" stroke="#3FBA91" stroke-width="1" stroke-linecap="round" stroke-linejoin="round" fill="none"/>
                        <polygon id="Fill-235" stroke="none" fill="#FFFFFF" fill-rule="evenodd" points="52.6544067 60.8091603 11.8712638 60.8091603 11.6828591 23.8982072 32.1916442 14.8410826 52.466002 23.8982072"/>
                        <polygon id="Stroke-236" stroke="#3FBA91" stroke-width="1" stroke-linecap="round" stroke-linejoin="round" fill="none" points="52.6544067 60.8091603 11.8712638 60.8091603 11.6828591 23.8982072 32.1916442 14.8410826 52.466002 23.8982072"/>
                        <polygon id="Stroke-237" stroke="#3FBA91" stroke-width="1" stroke-linecap="round" stroke-linejoin="round" fill="none" points="52.6544067 61.8084663 11.8712638 61.8084663 11.6828591 27.7511148 32.1686329 18.8383067 52.4703166 28.0095819"/>
                        <polygon id="Stroke-238" stroke="#3FBA91" stroke-width="1" stroke-linecap="round" stroke-linejoin="round" fill="none" points="42.6613463 61.8084663 22.6752255 61.7896923 22.6752255 33.8278973 42.6613463 33.8278973"/>
                        <polygon id="Stroke-239" stroke="#3FBA91" stroke-width="1" stroke-linecap="round" stroke-linejoin="round" fill="none" points="20.6766135 33.8278973 45.6592644 33.8278973 45.6592644 29.8306731 20.6766135 29.8306731"/>
                    </g>
                </g>
                <g id="house" mask="url(#mask-2)">
                    <g transform="translate(579.000000, 181.000000)">
                        <polygon id="Fill-240" stroke="none" fill="#FFFFFF" fill-rule="evenodd" points="86.537821 28.84852 77.6394753 28.8542679 77.5440666 0.879446678 86.4424123 0.87369882"/>
                        <polygon id="Stroke-241" stroke="#3FBA91" stroke-width="1" stroke-linecap="round" stroke-linejoin="round" fill="none" points="86.537821 28.84852 77.6394753 28.8542679 77.5440666 0.879446678 86.4424123 0.87369882"/>
                        <path d="M77.5440666,5.87022901 L86.537821,5.87022901" id="Stroke-242" stroke="#3FBA91" stroke-width="1" fill="none"/>
                        <polygon id="Fill-243" stroke="none" fill="#FFFFFF" fill-rule="evenodd" points="15.5870923 28.84852 6.68874659 28.8542679 6.59333796 0.879446678 15.4916837 0.87369882"/>
                        <polygon id="Stroke-244" stroke="#3FBA91" stroke-width="1" stroke-linecap="round" stroke-linejoin="round" fill="none" points="15.5870923 28.84852 6.68874659 28.8542679 6.59333796 0.879446678 15.4916837 0.87369882"/>
                        <path d="M6.59333796,5.87022901 L15.5870923,5.87022901" id="Stroke-245" stroke="#3FBA91" stroke-width="1" fill="none"/>
                        <polygon id="Fill-246" stroke="none" fill="#FFFFFF" fill-rule="evenodd" points="87.537127 58.833449 5.59403192 58.833449 5.59403192 24.6561702 21.2996239 0.87369882 71.8300958 0.87369882 87.537127 24.6561702"/>
                        <polygon id="Stroke-247" stroke="#3FBA91" stroke-width="1" stroke-linecap="round" stroke-linejoin="round" fill="none" points="87.537127 58.833449 5.59403192 58.833449 5.59403192 24.7392568 21.2996239 3.87161693 71.8300958 3.87161693 87.537127 24.7392568"/>
                        <polygon id="Fill-248" stroke="none" fill="#FFFFFF" fill-rule="evenodd" points="87.537127 94.5856762 5.80287202 94.8084663 5.59403192 26.0805866 45.8929703 25.9706382 87.5054409 25.8563498"/>
                        <polygon id="Stroke-249" stroke="#3FBA91" stroke-width="1" stroke-linecap="round" stroke-linejoin="round" fill="none" points="87.537127 94.5856762 5.80287202 94.8084663 5.59403192 26.0805866 45.8929703 25.9706382 87.5054409 25.8563498"/>
                        <polygon id="Stroke-250" stroke="#3FBA91" stroke-width="1" stroke-linecap="round" stroke-linejoin="round" fill="none" points="87.537127 94.5856715 5.80287202 94.8084663 5.59403192 26.0791446 45.8929703 25.9691939 87.5054409 25.8563498"/>
                        <path d="M0.597501735,26.0282304 L92.5336572,25.8563498" id="Stroke-251" stroke="#3FBA91" stroke-width="1" stroke-linecap="round" stroke-linejoin="round" fill="none"/>
                        <path d="M0.597501735,58.0060236 L92.5336572,57.834143" id="Stroke-252" stroke="#3FBA91" stroke-width="1" stroke-linecap="round" stroke-linejoin="round" fill="none"/>
                        <polygon id="Fill-253" stroke="none" fill="#FFFFFF" fill-rule="evenodd" points="32.5752949 49.7863859 11.6473221 49.8396947 11.5898681 31.9054948 32.517841 31.852186"/>
                        <polygon id="Stroke-254" stroke="#3FBA91" stroke-width="1" stroke-linecap="round" stroke-linejoin="round" fill="none" points="32.5752949 49.7863859 11.6473221 49.8396947 11.5898681 31.9054948 32.517841 31.852186"/>
                        <path d="M21.5829285,31.852186 L21.6219015,49.8396947" id="Stroke-255" stroke="#3FBA91" stroke-width="1" stroke-linecap="round" stroke-linejoin="round" fill="none"/>
                        <polygon id="Stroke-256" stroke="#3FBA91" stroke-width="1" stroke-linecap="round" stroke-linejoin="round" fill="none" points="32.5752949 83.7627911 11.6473221 83.8160999 11.5898681 65.8819 32.517841 65.8285913"/>
                        <path d="M21.5829285,65.8285913 L21.6219015,83.8160999" id="Stroke-257" stroke="#3FBA91" stroke-width="1" stroke-linecap="round" stroke-linejoin="round" fill="none"/>
                        <polygon id="Stroke-258" stroke="#3FBA91" stroke-width="1" stroke-linecap="round" stroke-linejoin="round" fill="none" points="82.5405968 83.7627911 61.612624 83.8160999 61.55517 65.8819 82.4831428 65.8285913"/>
                        <path d="M71.5482304,65.8285913 L71.5872033,83.8160999" id="Stroke-259" stroke="#3FBA91" stroke-width="1" stroke-linecap="round" stroke-linejoin="round" fill="none"/>
                        <polygon id="Fill-260" stroke="none" fill="#FFFFFF" fill-rule="evenodd" points="57.5579459 49.7863859 36.629973 49.8396947 36.5725191 31.9054948 57.5004919 31.852186"/>
                        <polygon id="Stroke-261" stroke="#3FBA91" stroke-width="1" stroke-linecap="round" stroke-linejoin="round" fill="none" points="57.5579459 49.7863859 36.629973 49.8396947 36.5725191 31.9054948 57.5004919 31.852186"/>
                        <path d="M46.5655795,31.852186 L46.6045524,49.8396947" id="Stroke-262" stroke="#3FBA91" stroke-width="1" stroke-linecap="round" stroke-linejoin="round" fill="none"/>
                        <polygon id="Fill-263" stroke="none" fill="#FFFFFF" fill-rule="evenodd" points="82.5405968 49.7863859 61.612624 49.8396947 61.55517 31.9054948 82.4831428 31.852186"/>
                        <polygon id="Stroke-264" stroke="#3FBA91" stroke-width="1" stroke-linecap="round" stroke-linejoin="round" fill="none" points="82.5405968 49.7863859 61.612624 49.8396947 61.55517 31.9054948 82.4831428 31.852186"/>
                        <path d="M71.5482304,31.852186 L71.5872033,49.8396947" id="Stroke-265" stroke="#3FBA91" stroke-width="1" stroke-linecap="round" stroke-linejoin="round" fill="none"/>
                        <polygon id="Stroke-266" stroke="#3FBA91" stroke-width="1" stroke-linecap="round" stroke-linejoin="round" fill="none" points="56.5586398 94.7737547 36.6583689 94.8084663 36.5725191 65.8835513 56.47279 65.8285913"/>
                        <path d="M5.59403192,88.8695906 L36.5725191,88.8126301" id="Stroke-267" stroke="#3FBA91" stroke-width="1" stroke-linecap="round" stroke-linejoin="round" fill="none"/>
                        <path d="M56.5586398,88.8705899 L87.537127,88.8126301" id="Stroke-268" stroke="#3FBA91" stroke-width="1" stroke-linecap="round" stroke-linejoin="round" fill="none"/>
                    </g>
                </g>
                <g id="board" mask="url(#mask-2)">
                    <g transform="translate(975.000000, 235.000000)">
                        <path d="M17.3108952,30.815406 L17.3108952,40.8084663" id="Stroke-271" stroke="#3FBA91" stroke-width="1" fill="none"/>
                        <path d="M30.9898122,30.815406 L4.63128429,30.815406 C2.25294166,30.815406 0.322692575,28.8728198 0.322692575,26.4760475 L0.322692575,5.1755833 C0.322692575,2.77881098 2.25294166,0.836224844 4.63128429,0.836224844 L30.9898122,0.836224844 C33.369591,0.836224844 35.2984039,2.77881098 35.2984039,5.1755833 L35.2984039,26.4760475 C35.2984039,28.8728198 33.369591,30.815406 30.9898122,30.815406" id="Fill-269" stroke="none" fill="#FFFFFF" fill-rule="evenodd"/>
                        <path d="M22.8602736,22.5676896 L21.014115,22.5676896 L21.014115,18.7971669 C21.014115,17.9537987 20.9109045,17.3843078 20.7059373,17.0843469 C20.4995164,16.7872842 20.1898851,16.6380283 19.778497,16.6380283 C19.4645047,16.6380283 19.1839467,16.7293207 18.9353694,16.9090074 C18.6882458,17.0930414 18.50363,17.3451824 18.3815218,17.6639814 C18.2608674,17.9885768 18.201267,18.5030024 18.201267,19.2116056 L18.201267,22.5676896 L16.3551084,22.5676896 L16.3551084,18.96671 C16.3551084,18.3030285 16.3056836,17.8190337 16.2097415,17.521971 C16.1137994,17.2249083 15.9698863,17.001749 15.7750948,16.8553912 C15.5832105,16.7090335 15.34917,16.6380283 15.0758803,16.6380283 C14.77061,16.6380283 14.4929594,16.7293207 14.2443821,16.9148038 C13.9958049,17.0988378 13.8097353,17.355326 13.6861735,17.690065 C13.5626117,18.0219057 13.5015577,18.5450259 13.5015577,19.2608746 L13.5015577,22.5676896 L11.6684821,22.5676896 L11.6684821,15.1338767 L13.5015577,15.1338767 L13.5015577,15.9888376 C13.8140963,15.6367096 14.1629767,15.3758741 14.5467451,15.2019837 C14.9290599,15.0295425 15.3462626,14.9411482 15.7998071,14.9411482 C16.2562589,14.9411482 16.667647,15.055626 17.0354251,15.2845817 C17.4032031,15.5106391 17.6982978,15.8453781 17.9221627,16.2830021 C18.2128963,15.8453781 18.5704987,15.5106391 18.9935162,15.2845817 C19.4165336,15.055626 19.8802538,14.9411482 20.3817693,14.9411482 C20.9007288,14.9411482 21.3571807,15.0643205 21.7511247,15.3106652 C22.1450688,15.5570099 22.4285341,15.8801561 22.6015206,16.2743076 C22.7745072,16.6728064 22.8602736,17.3162007 22.8602736,18.2088379 L22.8602736,22.5676896 Z M23.9374417,13.3630932 L23.9374417,9.50997262 C23.9374417,9.45490733 23.8938317,9.40998566 23.8385923,9.40998566 L21.4967328,9.40998566 C21.4429471,9.40998566 21.3978834,9.45490733 21.3978834,9.50997262 L21.3978834,10.7764741 L17.6706781,6.98421513 C17.5718287,6.88422818 17.4424522,6.83206107 17.311622,6.83206107 C17.1807919,6.83206107 17.0514154,6.88422818 16.9511123,6.98421513 L9.67695663,14.3890463 C9.47780408,14.5890202 9.31644691,14.987519 9.31644691,15.2700908 L9.31644691,24.3007968 C9.31644691,24.5877159 9.54612649,24.8195697 9.82523078,24.8195697 L24.7965596,24.8195697 C25.0756639,24.8195697 25.3053435,24.5877159 25.3053435,24.3007968 L25.3053435,15.2700908 C25.3053435,14.987519 25.1439863,14.5890202 24.9448338,14.3890463 L23.9374417,13.3630932 Z" id="Fill-273" stroke="none" fill="#3FBA91" fill-rule="evenodd"/>
                        <path d="M30.9898122,30.815406 L4.63128429,30.815406 C2.25294166,30.815406 0.322692575,28.8728198 0.322692575,26.4760475 L0.322692575,5.1755833 C0.322692575,2.77881098 2.25294166,0.836224844 4.63128429,0.836224844 L30.9898122,0.836224844 C33.369591,0.836224844 35.2984039,2.77881098 35.2984039,5.1755833 L35.2984039,26.4760475 C35.2984039,28.8728198 33.369591,30.815406 30.9898122,30.815406 L30.9898122,30.815406 Z" id="Stroke-270" stroke="#3FBA91" stroke-width="1" fill="none"/>
                    </g>
                </g>
            </g>
        </g>
    </g>
</symbol></svg>
