<?xml version="1.0" encoding="UTF-8" standalone="no"?>
<svg width="102px" height="34px" viewbox="0 0 102 34" version="1.1" xmlns="http://www.w3.org/2000/svg" xmlns:xlink="http://www.w3.org/1999/xlink"><symbol id="icon-logo" viewBox="0 0 102 34">
    <title>Moovyn logo</title>
    <defs/>
    <g id="Login" stroke="none" stroke-width="1" fill="none" fill-rule="evenodd">
        <g transform="translate(-588.000000, -100.000000)" id="Logo" fill="currentColor">
            <g transform="translate(588.000000, 100.000000)">
                <path d="M24.2272977,27.5799626 L20.9420499,27.5799626 L20.9420499,20.988191 C20.9420499,19.5154879 20.7581338,18.5182838 20.3925963,17.9965786 C20.0257474,17.4745456 19.4762938,17.2140207 18.7435796,17.2140207 C18.1859301,17.2140207 17.6863075,17.373285 17.2440563,17.6914859 C16.8024608,18.0106698 16.473641,18.4497936 16.2585804,19.011151 C16.0435197,19.5728362 15.9356616,20.4740229 15.9356616,21.7160222 L15.9356616,27.5799626 L12.6504139,27.5799626 L12.6504139,21.2867296 C12.6504139,20.1240348 12.5645208,19.2815071 12.3927345,18.760785 C12.2212761,18.2394074 11.9642525,17.8510779 11.6203522,17.5954685 C11.2767797,17.3408423 10.8617389,17.2140207 10.3745742,17.2140207 C9.83200509,17.2140207 9.33861143,17.3749235 8.89570457,17.6977123 C8.45279771,18.0198456 8.12102736,18.4714221 7.9020327,19.0530972 C7.68205454,19.6344446 7.57255721,20.5500503 7.57255721,21.8002422 L7.57255721,27.5799626 L4.31058588,27.5799626 L4.31058588,14.5868155 L7.57255721,14.5868155 L7.57255721,16.0791808 C8.12987894,15.4660461 8.74981741,15.0085709 9.43204478,14.7057722 C10.1132886,14.4033011 10.8564936,14.2522294 11.6616596,14.2522294 C12.4746936,14.2522294 13.2080635,14.4511459 13.8614412,14.8489789 C14.5151468,15.2474673 15.0409963,15.8288147 15.4396452,16.5933488 C15.9579545,15.8288147 16.5936291,15.2474673 17.3466691,14.8489789 C18.1000369,14.4511459 18.9232339,14.2522294 19.8156044,14.2522294 C20.7401028,14.2522294 21.5531368,14.4668757 22.2543787,14.8964961 C22.9556206,15.3267718 23.4598328,15.8878015 23.7673433,16.5808961 C24.0741981,17.2739906 24.2272977,18.4003102 24.2272977,19.960838 L24.2272977,27.5799626 Z M26.1451401,11.4906655 L26.1451401,4.75732557 C26.1451401,4.6606528 26.0661315,4.58102066 25.969092,4.58102066 L21.8016368,4.58102066 C21.7042694,4.58102066 21.6252608,4.6606528 21.6252608,4.75732557 L21.6252608,6.97227881 L14.9931322,0.340527252 C14.8164284,0.163894644 14.5846481,0.0760698963 14.3522122,0.0760698963 C14.1204319,0.0760698963 13.8893073,0.163894644 13.7129314,0.340527252 L0.766347482,13.2832079 C0.413923444,13.6345069 0.126738832,14.3285845 0.126738832,14.826695 L0.126738832,30.6095887 C0.126738832,31.1080269 0.533911535,31.5160187 1.03123922,31.5160187 L27.6731852,31.5160187 C28.1708407,31.5160187 28.5780134,31.1080269 28.5780134,30.6095887 L28.5780134,14.826695 C28.5780134,14.3285845 28.2908288,13.6345069 27.9380769,13.2832079 L26.1451401,11.4906655 Z" id="Fill-1"/>
                <path d="M36.824,25.792 C37.9920058,25.792 38.9559962,25.4040039 39.716,24.628 C40.4760038,23.8519961 40.856,22.8480062 40.856,21.616 C40.856,20.3839938 40.4760038,19.3800039 39.716,18.604 C38.9559962,17.8279961 37.9920058,17.44 36.824,17.44 C35.6559942,17.44 34.6920038,17.8279961 33.932,18.604 C33.1719962,19.3800039 32.792,20.3839938 32.792,21.616 C32.792,22.8480062 33.1719962,23.8519961 33.932,24.628 C34.6920038,25.4040039 35.6559942,25.792 36.824,25.792 L36.824,25.792 Z M36.824,28.192 C34.9039904,28.192 33.3040064,27.5560064 32.024,26.284 C30.7439936,25.0119936 30.104,23.4560092 30.104,21.616 C30.104,19.7759908 30.7439936,18.2200064 32.024,16.948 C33.3040064,15.6759936 34.9039904,15.04 36.824,15.04 C38.7440096,15.04 40.3439936,15.6759936 41.624,16.948 C42.9040064,18.2200064 43.544,19.7759908 43.544,21.616 C43.544,23.4560092 42.9040064,25.0119936 41.624,26.284 C40.3439936,27.5560064 38.7440096,28.192 36.824,28.192 L36.824,28.192 Z M52.472,25.792 C53.6400058,25.792 54.6039962,25.4040039 55.364,24.628 C56.1240038,23.8519961 56.504,22.8480062 56.504,21.616 C56.504,20.3839938 56.1240038,19.3800039 55.364,18.604 C54.6039962,17.8279961 53.6400058,17.44 52.472,17.44 C51.3039942,17.44 50.3400038,17.8279961 49.58,18.604 C48.8199962,19.3800039 48.44,20.3839938 48.44,21.616 C48.44,22.8480062 48.8199962,23.8519961 49.58,24.628 C50.3400038,25.4040039 51.3039942,25.792 52.472,25.792 L52.472,25.792 Z M52.472,28.192 C50.5519904,28.192 48.9520064,27.5560064 47.672,26.284 C46.3919936,25.0119936 45.752,23.4560092 45.752,21.616 C45.752,19.7759908 46.3919936,18.2200064 47.672,16.948 C48.9520064,15.6759936 50.5519904,15.04 52.472,15.04 C54.3920096,15.04 55.9919936,15.6759936 57.272,16.948 C58.5520064,18.2200064 59.192,19.7759908 59.192,21.616 C59.192,23.4560092 58.5520064,25.0119936 57.272,26.284 C55.9919936,27.5560064 54.3920096,28.192 52.472,28.192 L52.472,28.192 Z M65.624,28 L60.488,15.232 L63.272,15.232 L67.16,24.88 L71.048,15.232 L73.832,15.232 L68.696,28 L65.624,28 Z M77.576,33.088 C76.4079942,33.088 75.3520047,32.6640042 74.408,31.816 L75.632,29.632 C76.1920028,30.1600026 76.771997,30.424 77.372,30.424 C77.972003,30.424 78.4599981,30.2080022 78.836,29.776 C79.2120019,29.3439978 79.4,28.8720026 79.4,28.36 C79.4,28.1359989 77.6800172,23.7600426 74.24,15.232 L77.12,15.232 L80.936,24.64 L84.752,15.232 L87.632,15.232 L81.44,30.4 C81.0719982,31.2320042 80.5440034,31.8879976 79.856,32.368 C79.1679966,32.8480024 78.4080042,33.088 77.576,33.088 L77.576,33.088 Z M92.432,21.088 L92.432,28 L89.744,28 L89.744,15.232 L92.432,15.232 L92.432,17.56 C92.8640022,16.7759961 93.4599962,16.1600022 94.22,15.712 C94.9800038,15.2639978 95.7999956,15.04 96.68,15.04 C98.1200072,15.04 99.2839956,15.4799956 100.172,16.36 C101.060004,17.2400044 101.504,18.5119917 101.504,20.176 L101.504,28 L98.816,28 L98.816,20.992 C98.816,18.6399882 97.8400098,17.464 95.888,17.464 C94.9599954,17.464 94.1520034,17.7719969 93.464,18.388 C92.7759966,19.0040031 92.432,19.9039941 92.432,21.088 L92.432,21.088 Z" id="oovyn"/>
            </g>
        </g>
    </g>
</symbol></svg>
